%TF.GenerationSoftware,KiCad,Pcbnew,(5.0.2)-1*%
%TF.CreationDate,2020-06-03T15:28:38+08:00*%
%TF.ProjectId,MixRelays,4d697852-656c-4617-9973-2e6b69636164,rev?*%
%TF.SameCoordinates,Original*%
%TF.FileFunction,Soldermask,Bot*%
%TF.FilePolarity,Negative*%
%FSLAX46Y46*%
G04 Gerber Fmt 4.6, Leading zero omitted, Abs format (unit mm)*
G04 Created by KiCad (PCBNEW (5.0.2)-1) date 2020-06-03 15:28:38*
%MOMM*%
%LPD*%
G01*
G04 APERTURE LIST*
%ADD10C,0.010000*%
%ADD11C,0.350000*%
G04 APERTURE END LIST*
D10*
G36*
X160493356Y-102780641D02*
X160419036Y-102791424D01*
X160352356Y-102812601D01*
X160284752Y-102846555D01*
X160241782Y-102873017D01*
X160194623Y-102906911D01*
X160169755Y-102933577D01*
X160164780Y-102948861D01*
X160171266Y-102973699D01*
X160191401Y-102979621D01*
X160226206Y-102966524D01*
X160271263Y-102938147D01*
X160365801Y-102886863D01*
X160469898Y-102856503D01*
X160578891Y-102846949D01*
X160688114Y-102858082D01*
X160792903Y-102889782D01*
X160888593Y-102941932D01*
X160905570Y-102954302D01*
X160932962Y-102974140D01*
X160950742Y-102985055D01*
X160953379Y-102985837D01*
X160968286Y-102980824D01*
X160974405Y-102978429D01*
X160990222Y-102962890D01*
X160985081Y-102939647D01*
X160961395Y-102910952D01*
X160921571Y-102879061D01*
X160868020Y-102846227D01*
X160803152Y-102814706D01*
X160796283Y-102811775D01*
X160755070Y-102795936D01*
X160717029Y-102785934D01*
X160673946Y-102780458D01*
X160617605Y-102778198D01*
X160583880Y-102777871D01*
X160493356Y-102780641D01*
X160493356Y-102780641D01*
G37*
X160493356Y-102780641D02*
X160419036Y-102791424D01*
X160352356Y-102812601D01*
X160284752Y-102846555D01*
X160241782Y-102873017D01*
X160194623Y-102906911D01*
X160169755Y-102933577D01*
X160164780Y-102948861D01*
X160171266Y-102973699D01*
X160191401Y-102979621D01*
X160226206Y-102966524D01*
X160271263Y-102938147D01*
X160365801Y-102886863D01*
X160469898Y-102856503D01*
X160578891Y-102846949D01*
X160688114Y-102858082D01*
X160792903Y-102889782D01*
X160888593Y-102941932D01*
X160905570Y-102954302D01*
X160932962Y-102974140D01*
X160950742Y-102985055D01*
X160953379Y-102985837D01*
X160968286Y-102980824D01*
X160974405Y-102978429D01*
X160990222Y-102962890D01*
X160985081Y-102939647D01*
X160961395Y-102910952D01*
X160921571Y-102879061D01*
X160868020Y-102846227D01*
X160803152Y-102814706D01*
X160796283Y-102811775D01*
X160755070Y-102795936D01*
X160717029Y-102785934D01*
X160673946Y-102780458D01*
X160617605Y-102778198D01*
X160583880Y-102777871D01*
X160493356Y-102780641D01*
G36*
X160508632Y-102971682D02*
X160497924Y-102973450D01*
X160444300Y-102986936D01*
X160390096Y-103006802D01*
X160341216Y-103030130D01*
X160303560Y-103054002D01*
X160283031Y-103075499D01*
X160281170Y-103080621D01*
X160281210Y-103106970D01*
X160295703Y-103117767D01*
X160326476Y-103113114D01*
X160375352Y-103093112D01*
X160388770Y-103086636D01*
X160437645Y-103064165D01*
X160477609Y-103051275D01*
X160520000Y-103045403D01*
X160576155Y-103043990D01*
X160577530Y-103043990D01*
X160634342Y-103045369D01*
X160677040Y-103051167D01*
X160716834Y-103063871D01*
X160763506Y-103085265D01*
X160810809Y-103108253D01*
X160840314Y-103120940D01*
X160856960Y-103124343D01*
X160865687Y-103119480D01*
X160871388Y-103107490D01*
X160874877Y-103083587D01*
X160862808Y-103062448D01*
X160831927Y-103040305D01*
X160797977Y-103022485D01*
X160701653Y-102986244D01*
X160602669Y-102968896D01*
X160508632Y-102971682D01*
X160508632Y-102971682D01*
G37*
X160508632Y-102971682D02*
X160497924Y-102973450D01*
X160444300Y-102986936D01*
X160390096Y-103006802D01*
X160341216Y-103030130D01*
X160303560Y-103054002D01*
X160283031Y-103075499D01*
X160281170Y-103080621D01*
X160281210Y-103106970D01*
X160295703Y-103117767D01*
X160326476Y-103113114D01*
X160375352Y-103093112D01*
X160388770Y-103086636D01*
X160437645Y-103064165D01*
X160477609Y-103051275D01*
X160520000Y-103045403D01*
X160576155Y-103043990D01*
X160577530Y-103043990D01*
X160634342Y-103045369D01*
X160677040Y-103051167D01*
X160716834Y-103063871D01*
X160763506Y-103085265D01*
X160810809Y-103108253D01*
X160840314Y-103120940D01*
X160856960Y-103124343D01*
X160865687Y-103119480D01*
X160871388Y-103107490D01*
X160874877Y-103083587D01*
X160862808Y-103062448D01*
X160831927Y-103040305D01*
X160797977Y-103022485D01*
X160701653Y-102986244D01*
X160602669Y-102968896D01*
X160508632Y-102971682D01*
G36*
X160544848Y-103168756D02*
X160490122Y-103179620D01*
X160442943Y-103196993D01*
X160408929Y-103218101D01*
X160393699Y-103240166D01*
X160393380Y-103243590D01*
X160401937Y-103267626D01*
X160427775Y-103273433D01*
X160471148Y-103261062D01*
X160473019Y-103260288D01*
X160528358Y-103245543D01*
X160590152Y-103241799D01*
X160647386Y-103249073D01*
X160677407Y-103259968D01*
X160718537Y-103276506D01*
X160744900Y-103274533D01*
X160757847Y-103257911D01*
X160755386Y-103233309D01*
X160732571Y-103209855D01*
X160694432Y-103189654D01*
X160645997Y-103174810D01*
X160592295Y-103167428D01*
X160544848Y-103168756D01*
X160544848Y-103168756D01*
G37*
X160544848Y-103168756D02*
X160490122Y-103179620D01*
X160442943Y-103196993D01*
X160408929Y-103218101D01*
X160393699Y-103240166D01*
X160393380Y-103243590D01*
X160401937Y-103267626D01*
X160427775Y-103273433D01*
X160471148Y-103261062D01*
X160473019Y-103260288D01*
X160528358Y-103245543D01*
X160590152Y-103241799D01*
X160647386Y-103249073D01*
X160677407Y-103259968D01*
X160718537Y-103276506D01*
X160744900Y-103274533D01*
X160757847Y-103257911D01*
X160755386Y-103233309D01*
X160732571Y-103209855D01*
X160694432Y-103189654D01*
X160645997Y-103174810D01*
X160592295Y-103167428D01*
X160544848Y-103168756D01*
G36*
X158016909Y-102208613D02*
X157975850Y-102232369D01*
X157942836Y-102271916D01*
X157922010Y-102326009D01*
X157916880Y-102375157D01*
X157924848Y-102442477D01*
X157950393Y-102495598D01*
X157975756Y-102523776D01*
X158018854Y-102548408D01*
X158068799Y-102554389D01*
X158115896Y-102541165D01*
X158129108Y-102532532D01*
X158165479Y-102489254D01*
X158187588Y-102431798D01*
X158193780Y-102368040D01*
X158182399Y-102305852D01*
X158178769Y-102296414D01*
X158146945Y-102244550D01*
X158106599Y-102213458D01*
X158061873Y-102201895D01*
X158016909Y-102208613D01*
X158016909Y-102208613D01*
G37*
X158016909Y-102208613D02*
X157975850Y-102232369D01*
X157942836Y-102271916D01*
X157922010Y-102326009D01*
X157916880Y-102375157D01*
X157924848Y-102442477D01*
X157950393Y-102495598D01*
X157975756Y-102523776D01*
X158018854Y-102548408D01*
X158068799Y-102554389D01*
X158115896Y-102541165D01*
X158129108Y-102532532D01*
X158165479Y-102489254D01*
X158187588Y-102431798D01*
X158193780Y-102368040D01*
X158182399Y-102305852D01*
X158178769Y-102296414D01*
X158146945Y-102244550D01*
X158106599Y-102213458D01*
X158061873Y-102201895D01*
X158016909Y-102208613D01*
G36*
X158604274Y-103022593D02*
X158602680Y-103032284D01*
X158598867Y-103050739D01*
X158588335Y-103088681D01*
X158572451Y-103141517D01*
X158552580Y-103204654D01*
X158539180Y-103245965D01*
X158517679Y-103312041D01*
X158499292Y-103369514D01*
X158485361Y-103414116D01*
X158477226Y-103441579D01*
X158475680Y-103448171D01*
X158487525Y-103451614D01*
X158519641Y-103454397D01*
X158566904Y-103456204D01*
X158615380Y-103456740D01*
X158671517Y-103456013D01*
X158716885Y-103454043D01*
X158746356Y-103451144D01*
X158755080Y-103448171D01*
X158751311Y-103433775D01*
X158740896Y-103399535D01*
X158725177Y-103349721D01*
X158705493Y-103288599D01*
X158691580Y-103245965D01*
X158669957Y-103178823D01*
X158651495Y-103119199D01*
X158637558Y-103071688D01*
X158629513Y-103040881D01*
X158628080Y-103032284D01*
X158621521Y-103014755D01*
X158615380Y-103012240D01*
X158604274Y-103022593D01*
X158604274Y-103022593D01*
G37*
X158604274Y-103022593D02*
X158602680Y-103032284D01*
X158598867Y-103050739D01*
X158588335Y-103088681D01*
X158572451Y-103141517D01*
X158552580Y-103204654D01*
X158539180Y-103245965D01*
X158517679Y-103312041D01*
X158499292Y-103369514D01*
X158485361Y-103414116D01*
X158477226Y-103441579D01*
X158475680Y-103448171D01*
X158487525Y-103451614D01*
X158519641Y-103454397D01*
X158566904Y-103456204D01*
X158615380Y-103456740D01*
X158671517Y-103456013D01*
X158716885Y-103454043D01*
X158746356Y-103451144D01*
X158755080Y-103448171D01*
X158751311Y-103433775D01*
X158740896Y-103399535D01*
X158725177Y-103349721D01*
X158705493Y-103288599D01*
X158691580Y-103245965D01*
X158669957Y-103178823D01*
X158651495Y-103119199D01*
X158637558Y-103071688D01*
X158629513Y-103040881D01*
X158628080Y-103032284D01*
X158621521Y-103014755D01*
X158615380Y-103012240D01*
X158604274Y-103022593D01*
G36*
X152077388Y-103244035D02*
X152070860Y-103246935D01*
X152031107Y-103277608D01*
X151998065Y-103324197D01*
X151977398Y-103377240D01*
X151973280Y-103409949D01*
X151973280Y-103444040D01*
X152157430Y-103444040D01*
X152229137Y-103443923D01*
X152279289Y-103443174D01*
X152311734Y-103441195D01*
X152330317Y-103437390D01*
X152338886Y-103431160D01*
X152341286Y-103421908D01*
X152341372Y-103415465D01*
X152332714Y-103379103D01*
X152310916Y-103335133D01*
X152281596Y-103293075D01*
X152251581Y-103263328D01*
X152198097Y-103238135D01*
X152136578Y-103231390D01*
X152077388Y-103244035D01*
X152077388Y-103244035D01*
G37*
X152077388Y-103244035D02*
X152070860Y-103246935D01*
X152031107Y-103277608D01*
X151998065Y-103324197D01*
X151977398Y-103377240D01*
X151973280Y-103409949D01*
X151973280Y-103444040D01*
X152157430Y-103444040D01*
X152229137Y-103443923D01*
X152279289Y-103443174D01*
X152311734Y-103441195D01*
X152330317Y-103437390D01*
X152338886Y-103431160D01*
X152341286Y-103421908D01*
X152341372Y-103415465D01*
X152332714Y-103379103D01*
X152310916Y-103335133D01*
X152281596Y-103293075D01*
X152251581Y-103263328D01*
X152198097Y-103238135D01*
X152136578Y-103231390D01*
X152077388Y-103244035D01*
G36*
X154020646Y-103240588D02*
X153965189Y-103261241D01*
X153916975Y-103300172D01*
X153880065Y-103357544D01*
X153868130Y-103389739D01*
X153856269Y-103452347D01*
X153853510Y-103523043D01*
X153859526Y-103591565D01*
X153873989Y-103647649D01*
X153876566Y-103653698D01*
X153897833Y-103689058D01*
X153928099Y-103726122D01*
X153961322Y-103758797D01*
X153991460Y-103780993D01*
X154008897Y-103787113D01*
X154033739Y-103790019D01*
X154049730Y-103793219D01*
X154077485Y-103792819D01*
X154115172Y-103784496D01*
X154125930Y-103780950D01*
X154184137Y-103747063D01*
X154231351Y-103692850D01*
X154264267Y-103622194D01*
X154266062Y-103616359D01*
X154281048Y-103550904D01*
X154282605Y-103492166D01*
X154270635Y-103427912D01*
X154264394Y-103405738D01*
X154233656Y-103337466D01*
X154189850Y-103286651D01*
X154137038Y-103253456D01*
X154079283Y-103238048D01*
X154020646Y-103240588D01*
X154020646Y-103240588D01*
G37*
X154020646Y-103240588D02*
X153965189Y-103261241D01*
X153916975Y-103300172D01*
X153880065Y-103357544D01*
X153868130Y-103389739D01*
X153856269Y-103452347D01*
X153853510Y-103523043D01*
X153859526Y-103591565D01*
X153873989Y-103647649D01*
X153876566Y-103653698D01*
X153897833Y-103689058D01*
X153928099Y-103726122D01*
X153961322Y-103758797D01*
X153991460Y-103780993D01*
X154008897Y-103787113D01*
X154033739Y-103790019D01*
X154049730Y-103793219D01*
X154077485Y-103792819D01*
X154115172Y-103784496D01*
X154125930Y-103780950D01*
X154184137Y-103747063D01*
X154231351Y-103692850D01*
X154264267Y-103622194D01*
X154266062Y-103616359D01*
X154281048Y-103550904D01*
X154282605Y-103492166D01*
X154270635Y-103427912D01*
X154264394Y-103405738D01*
X154233656Y-103337466D01*
X154189850Y-103286651D01*
X154137038Y-103253456D01*
X154079283Y-103238048D01*
X154020646Y-103240588D01*
G36*
X155983502Y-103233180D02*
X155923594Y-103255260D01*
X155879768Y-103295248D01*
X155850544Y-103354834D01*
X155840106Y-103396853D01*
X155831254Y-103444040D01*
X156215564Y-103444040D01*
X156207190Y-103409115D01*
X156178916Y-103336651D01*
X156131354Y-103279026D01*
X156125658Y-103274099D01*
X156073054Y-103240339D01*
X156019690Y-103229388D01*
X155983502Y-103233180D01*
X155983502Y-103233180D01*
G37*
X155983502Y-103233180D02*
X155923594Y-103255260D01*
X155879768Y-103295248D01*
X155850544Y-103354834D01*
X155840106Y-103396853D01*
X155831254Y-103444040D01*
X156215564Y-103444040D01*
X156207190Y-103409115D01*
X156178916Y-103336651D01*
X156131354Y-103279026D01*
X156125658Y-103274099D01*
X156073054Y-103240339D01*
X156019690Y-103229388D01*
X155983502Y-103233180D01*
G36*
X160565723Y-102184178D02*
X160537877Y-102206500D01*
X160499889Y-102240640D01*
X160455493Y-102283357D01*
X160444431Y-102294393D01*
X160399514Y-102338871D01*
X160360814Y-102375987D01*
X160331893Y-102402413D01*
X160316315Y-102414818D01*
X160314952Y-102415339D01*
X160308926Y-102403945D01*
X160303794Y-102374958D01*
X160302001Y-102355015D01*
X160298130Y-102294690D01*
X159980630Y-102294690D01*
X159977164Y-102523290D01*
X159973697Y-102751890D01*
X159871390Y-102854759D01*
X159827517Y-102899383D01*
X159799446Y-102929969D01*
X159784769Y-102950182D01*
X159781076Y-102963690D01*
X159785959Y-102974159D01*
X159790039Y-102978584D01*
X159813259Y-102991753D01*
X159852698Y-102998314D01*
X159892408Y-102999540D01*
X159973821Y-102999540D01*
X159977226Y-103301165D01*
X159980630Y-103602790D01*
X160572949Y-103606089D01*
X160711932Y-103606796D01*
X160827647Y-103607189D01*
X160922226Y-103607209D01*
X160997799Y-103606796D01*
X161056497Y-103605890D01*
X161100452Y-103604430D01*
X161131794Y-103602357D01*
X161152654Y-103599610D01*
X161165164Y-103596130D01*
X161171455Y-103591856D01*
X161173024Y-103589175D01*
X161175274Y-103571021D01*
X161177268Y-103531406D01*
X161178905Y-103474269D01*
X161180085Y-103403549D01*
X161180708Y-103323184D01*
X161180780Y-103284251D01*
X161180780Y-102999540D01*
X161255942Y-102999540D01*
X161312621Y-102997761D01*
X161348079Y-102991546D01*
X161366301Y-102979572D01*
X161371280Y-102961308D01*
X161362504Y-102948608D01*
X161337689Y-102920556D01*
X161328763Y-102911034D01*
X161231580Y-102911034D01*
X161220184Y-102918130D01*
X161191193Y-102923923D01*
X161171255Y-102925819D01*
X161110930Y-102929690D01*
X161107526Y-103231315D01*
X161104121Y-103532940D01*
X160050480Y-103532940D01*
X160050480Y-103248228D01*
X160050148Y-103164772D01*
X160049216Y-103089165D01*
X160047785Y-103025345D01*
X160045953Y-102977249D01*
X160043821Y-102948812D01*
X160042772Y-102943428D01*
X160026758Y-102929172D01*
X159990848Y-102923536D01*
X159979272Y-102923340D01*
X159945653Y-102921653D01*
X159925781Y-102917395D01*
X159923480Y-102915042D01*
X159931597Y-102902413D01*
X159952995Y-102876834D01*
X159983248Y-102843562D01*
X159986980Y-102839602D01*
X160050480Y-102772460D01*
X160050480Y-102364540D01*
X160228280Y-102364540D01*
X160228280Y-102446458D01*
X160229517Y-102493337D01*
X160234669Y-102524823D01*
X160245905Y-102540502D01*
X160265390Y-102539960D01*
X160295291Y-102522782D01*
X160337773Y-102488552D01*
X160395004Y-102436856D01*
X160425101Y-102408766D01*
X160578494Y-102264853D01*
X160905037Y-102582487D01*
X160980237Y-102655928D01*
X161049329Y-102723972D01*
X161110267Y-102784558D01*
X161161005Y-102835627D01*
X161199496Y-102875122D01*
X161223695Y-102900982D01*
X161231580Y-102911034D01*
X161328763Y-102911034D01*
X161299109Y-102879404D01*
X161249035Y-102827405D01*
X161189741Y-102766811D01*
X161123500Y-102699873D01*
X161052583Y-102628843D01*
X160979263Y-102555974D01*
X160905813Y-102483516D01*
X160834506Y-102413723D01*
X160767614Y-102348845D01*
X160707409Y-102291136D01*
X160656165Y-102242847D01*
X160616154Y-102206229D01*
X160589648Y-102183535D01*
X160579694Y-102176918D01*
X160565723Y-102184178D01*
X160565723Y-102184178D01*
G37*
X160565723Y-102184178D02*
X160537877Y-102206500D01*
X160499889Y-102240640D01*
X160455493Y-102283357D01*
X160444431Y-102294393D01*
X160399514Y-102338871D01*
X160360814Y-102375987D01*
X160331893Y-102402413D01*
X160316315Y-102414818D01*
X160314952Y-102415339D01*
X160308926Y-102403945D01*
X160303794Y-102374958D01*
X160302001Y-102355015D01*
X160298130Y-102294690D01*
X159980630Y-102294690D01*
X159977164Y-102523290D01*
X159973697Y-102751890D01*
X159871390Y-102854759D01*
X159827517Y-102899383D01*
X159799446Y-102929969D01*
X159784769Y-102950182D01*
X159781076Y-102963690D01*
X159785959Y-102974159D01*
X159790039Y-102978584D01*
X159813259Y-102991753D01*
X159852698Y-102998314D01*
X159892408Y-102999540D01*
X159973821Y-102999540D01*
X159977226Y-103301165D01*
X159980630Y-103602790D01*
X160572949Y-103606089D01*
X160711932Y-103606796D01*
X160827647Y-103607189D01*
X160922226Y-103607209D01*
X160997799Y-103606796D01*
X161056497Y-103605890D01*
X161100452Y-103604430D01*
X161131794Y-103602357D01*
X161152654Y-103599610D01*
X161165164Y-103596130D01*
X161171455Y-103591856D01*
X161173024Y-103589175D01*
X161175274Y-103571021D01*
X161177268Y-103531406D01*
X161178905Y-103474269D01*
X161180085Y-103403549D01*
X161180708Y-103323184D01*
X161180780Y-103284251D01*
X161180780Y-102999540D01*
X161255942Y-102999540D01*
X161312621Y-102997761D01*
X161348079Y-102991546D01*
X161366301Y-102979572D01*
X161371280Y-102961308D01*
X161362504Y-102948608D01*
X161337689Y-102920556D01*
X161328763Y-102911034D01*
X161231580Y-102911034D01*
X161220184Y-102918130D01*
X161191193Y-102923923D01*
X161171255Y-102925819D01*
X161110930Y-102929690D01*
X161107526Y-103231315D01*
X161104121Y-103532940D01*
X160050480Y-103532940D01*
X160050480Y-103248228D01*
X160050148Y-103164772D01*
X160049216Y-103089165D01*
X160047785Y-103025345D01*
X160045953Y-102977249D01*
X160043821Y-102948812D01*
X160042772Y-102943428D01*
X160026758Y-102929172D01*
X159990848Y-102923536D01*
X159979272Y-102923340D01*
X159945653Y-102921653D01*
X159925781Y-102917395D01*
X159923480Y-102915042D01*
X159931597Y-102902413D01*
X159952995Y-102876834D01*
X159983248Y-102843562D01*
X159986980Y-102839602D01*
X160050480Y-102772460D01*
X160050480Y-102364540D01*
X160228280Y-102364540D01*
X160228280Y-102446458D01*
X160229517Y-102493337D01*
X160234669Y-102524823D01*
X160245905Y-102540502D01*
X160265390Y-102539960D01*
X160295291Y-102522782D01*
X160337773Y-102488552D01*
X160395004Y-102436856D01*
X160425101Y-102408766D01*
X160578494Y-102264853D01*
X160905037Y-102582487D01*
X160980237Y-102655928D01*
X161049329Y-102723972D01*
X161110267Y-102784558D01*
X161161005Y-102835627D01*
X161199496Y-102875122D01*
X161223695Y-102900982D01*
X161231580Y-102911034D01*
X161328763Y-102911034D01*
X161299109Y-102879404D01*
X161249035Y-102827405D01*
X161189741Y-102766811D01*
X161123500Y-102699873D01*
X161052583Y-102628843D01*
X160979263Y-102555974D01*
X160905813Y-102483516D01*
X160834506Y-102413723D01*
X160767614Y-102348845D01*
X160707409Y-102291136D01*
X160656165Y-102242847D01*
X160616154Y-102206229D01*
X160589648Y-102183535D01*
X160579694Y-102176918D01*
X160565723Y-102184178D01*
G36*
X157020367Y-103243761D02*
X156952701Y-103257280D01*
X156901077Y-103286691D01*
X156864418Y-103333567D01*
X156841648Y-103399478D01*
X156831689Y-103485998D01*
X156831030Y-103520240D01*
X156831836Y-103579774D01*
X156835107Y-103621079D01*
X156842124Y-103651299D01*
X156854170Y-103677577D01*
X156861450Y-103689823D01*
X156906753Y-103744197D01*
X156962372Y-103775958D01*
X157031456Y-103786863D01*
X157035527Y-103786892D01*
X157093438Y-103780724D01*
X157139439Y-103760205D01*
X157142187Y-103758365D01*
X157179772Y-103727084D01*
X157205617Y-103690034D01*
X157221549Y-103642165D01*
X157229396Y-103578430D01*
X157231080Y-103512791D01*
X157230405Y-103451745D01*
X157227654Y-103409643D01*
X157221744Y-103380048D01*
X157211590Y-103356524D01*
X157202203Y-103341445D01*
X157152909Y-103284944D01*
X157096699Y-103252444D01*
X157032044Y-103243122D01*
X157020367Y-103243761D01*
X157020367Y-103243761D01*
G37*
X157020367Y-103243761D02*
X156952701Y-103257280D01*
X156901077Y-103286691D01*
X156864418Y-103333567D01*
X156841648Y-103399478D01*
X156831689Y-103485998D01*
X156831030Y-103520240D01*
X156831836Y-103579774D01*
X156835107Y-103621079D01*
X156842124Y-103651299D01*
X156854170Y-103677577D01*
X156861450Y-103689823D01*
X156906753Y-103744197D01*
X156962372Y-103775958D01*
X157031456Y-103786863D01*
X157035527Y-103786892D01*
X157093438Y-103780724D01*
X157139439Y-103760205D01*
X157142187Y-103758365D01*
X157179772Y-103727084D01*
X157205617Y-103690034D01*
X157221549Y-103642165D01*
X157229396Y-103578430D01*
X157231080Y-103512791D01*
X157230405Y-103451745D01*
X157227654Y-103409643D01*
X157221744Y-103380048D01*
X157211590Y-103356524D01*
X157202203Y-103341445D01*
X157152909Y-103284944D01*
X157096699Y-103252444D01*
X157032044Y-103243122D01*
X157020367Y-103243761D01*
G36*
X157714424Y-103258986D02*
X157661324Y-103293523D01*
X157620896Y-103343969D01*
X157616821Y-103351714D01*
X157600970Y-103401829D01*
X157592687Y-103467032D01*
X157591897Y-103538301D01*
X157598527Y-103606614D01*
X157612499Y-103662950D01*
X157619535Y-103678990D01*
X157661487Y-103736789D01*
X157715884Y-103772506D01*
X157783552Y-103786645D01*
X157796230Y-103786940D01*
X157853458Y-103781218D01*
X157898447Y-103762129D01*
X157904187Y-103758365D01*
X157941772Y-103727084D01*
X157967617Y-103690034D01*
X157983549Y-103642165D01*
X157991396Y-103578430D01*
X157993080Y-103512791D01*
X157990533Y-103436777D01*
X157981280Y-103380004D01*
X157962902Y-103336677D01*
X157932981Y-103301000D01*
X157891178Y-103268585D01*
X157835209Y-103244743D01*
X157774338Y-103242135D01*
X157714424Y-103258986D01*
X157714424Y-103258986D01*
G37*
X157714424Y-103258986D02*
X157661324Y-103293523D01*
X157620896Y-103343969D01*
X157616821Y-103351714D01*
X157600970Y-103401829D01*
X157592687Y-103467032D01*
X157591897Y-103538301D01*
X157598527Y-103606614D01*
X157612499Y-103662950D01*
X157619535Y-103678990D01*
X157661487Y-103736789D01*
X157715884Y-103772506D01*
X157783552Y-103786645D01*
X157796230Y-103786940D01*
X157853458Y-103781218D01*
X157898447Y-103762129D01*
X157904187Y-103758365D01*
X157941772Y-103727084D01*
X157967617Y-103690034D01*
X157983549Y-103642165D01*
X157991396Y-103578430D01*
X157993080Y-103512791D01*
X157990533Y-103436777D01*
X157981280Y-103380004D01*
X157962902Y-103336677D01*
X157932981Y-103301000D01*
X157891178Y-103268585D01*
X157835209Y-103244743D01*
X157774338Y-103242135D01*
X157714424Y-103258986D01*
G36*
X157493284Y-101386995D02*
X157103250Y-101387023D01*
X156689746Y-101387052D01*
X156252075Y-101387074D01*
X155903930Y-101387081D01*
X155448049Y-101387073D01*
X155016866Y-101387054D01*
X154609679Y-101387034D01*
X154225788Y-101387019D01*
X153864490Y-101387019D01*
X153525084Y-101387041D01*
X153206867Y-101387093D01*
X152909139Y-101387184D01*
X152631198Y-101387322D01*
X152372342Y-101387515D01*
X152131869Y-101387771D01*
X151909078Y-101388098D01*
X151703267Y-101388504D01*
X151513734Y-101388999D01*
X151339778Y-101389589D01*
X151180697Y-101390283D01*
X151035790Y-101391089D01*
X150904354Y-101392015D01*
X150785689Y-101393070D01*
X150679092Y-101394261D01*
X150583862Y-101395597D01*
X150499296Y-101397086D01*
X150424695Y-101398736D01*
X150359355Y-101400555D01*
X150302575Y-101402552D01*
X150253654Y-101404735D01*
X150211890Y-101407111D01*
X150176580Y-101409689D01*
X150147024Y-101412477D01*
X150122521Y-101415483D01*
X150102367Y-101418716D01*
X150085862Y-101422183D01*
X150072303Y-101425893D01*
X150060990Y-101429854D01*
X150051221Y-101434074D01*
X150042293Y-101438562D01*
X150033505Y-101443324D01*
X150024156Y-101448371D01*
X150013544Y-101453709D01*
X150009351Y-101455670D01*
X149939705Y-101497183D01*
X149868830Y-101556094D01*
X149803476Y-101625689D01*
X149750392Y-101699250D01*
X149732780Y-101730904D01*
X149719151Y-101758614D01*
X149707227Y-101784912D01*
X149696894Y-101811620D01*
X149688040Y-101840558D01*
X149680551Y-101873548D01*
X149674314Y-101912409D01*
X149669215Y-101958963D01*
X149665142Y-102015030D01*
X149661981Y-102082430D01*
X149659619Y-102162985D01*
X149657943Y-102258516D01*
X149656839Y-102370842D01*
X149656195Y-102501785D01*
X149655897Y-102653165D01*
X149655832Y-102826803D01*
X149655867Y-102967790D01*
X149655972Y-103149346D01*
X149656177Y-103307328D01*
X149656520Y-103443560D01*
X149657042Y-103559868D01*
X149657779Y-103658076D01*
X149658771Y-103740010D01*
X149660055Y-103807495D01*
X149661672Y-103862355D01*
X149663659Y-103906417D01*
X149666054Y-103941505D01*
X149668897Y-103969444D01*
X149672226Y-103992059D01*
X149676080Y-104011176D01*
X149678097Y-104019524D01*
X149714962Y-104132335D01*
X149765410Y-104228148D01*
X149832886Y-104313252D01*
X149846916Y-104327729D01*
X149924131Y-104394382D01*
X150009987Y-104445888D01*
X150111682Y-104486368D01*
X150138130Y-104494571D01*
X150145039Y-104496385D01*
X150153665Y-104498100D01*
X150164712Y-104499719D01*
X150178885Y-104501245D01*
X150196889Y-104502682D01*
X150219428Y-104504031D01*
X150247207Y-104505296D01*
X150280929Y-104506481D01*
X150321300Y-104507587D01*
X150369023Y-104508619D01*
X150424804Y-104509578D01*
X150489346Y-104510468D01*
X150563354Y-104511293D01*
X150647532Y-104512054D01*
X150742586Y-104512755D01*
X150849218Y-104513399D01*
X150968135Y-104513989D01*
X151100039Y-104514528D01*
X151245636Y-104515019D01*
X151405630Y-104515464D01*
X151580726Y-104515867D01*
X151771627Y-104516232D01*
X151979039Y-104516560D01*
X152203666Y-104516854D01*
X152446211Y-104517119D01*
X152707381Y-104517356D01*
X152987878Y-104517569D01*
X153288408Y-104517761D01*
X153609675Y-104517935D01*
X153952383Y-104518093D01*
X154317236Y-104518239D01*
X154704940Y-104518376D01*
X155116199Y-104518506D01*
X155551717Y-104518633D01*
X155834080Y-104518711D01*
X156211491Y-104518792D01*
X156582870Y-104518827D01*
X156947389Y-104518817D01*
X157304220Y-104518764D01*
X157652534Y-104518669D01*
X157991505Y-104518533D01*
X158320305Y-104518358D01*
X158638104Y-104518145D01*
X158944075Y-104517894D01*
X159237391Y-104517607D01*
X159517223Y-104517286D01*
X159782743Y-104516931D01*
X160033123Y-104516544D01*
X160267535Y-104516126D01*
X160485152Y-104515678D01*
X160685145Y-104515202D01*
X160866686Y-104514698D01*
X161028948Y-104514168D01*
X161171102Y-104513613D01*
X161292320Y-104513035D01*
X161391775Y-104512434D01*
X161468638Y-104511812D01*
X161522082Y-104511170D01*
X161551278Y-104510510D01*
X161555926Y-104510246D01*
X161688952Y-104486109D01*
X161807521Y-104441675D01*
X161910608Y-104377801D01*
X161997187Y-104295341D01*
X162066231Y-104195151D01*
X162116714Y-104078086D01*
X162130262Y-104031528D01*
X162134342Y-104013941D01*
X162137890Y-103993885D01*
X162140944Y-103969568D01*
X162143540Y-103939199D01*
X162145714Y-103900985D01*
X162147503Y-103853134D01*
X162148943Y-103793856D01*
X162150071Y-103721358D01*
X162150923Y-103633848D01*
X162151536Y-103529535D01*
X162151947Y-103406626D01*
X162152192Y-103263331D01*
X162152307Y-103097857D01*
X162152328Y-102957598D01*
X161650925Y-102957598D01*
X161650647Y-103076882D01*
X161649952Y-103193322D01*
X161648845Y-103303804D01*
X161647327Y-103405214D01*
X161645402Y-103494437D01*
X161643074Y-103568360D01*
X161640344Y-103623869D01*
X161637218Y-103657849D01*
X161636401Y-103662489D01*
X161602122Y-103768058D01*
X161548120Y-103858511D01*
X161475984Y-103932230D01*
X161387301Y-103987597D01*
X161283657Y-104022995D01*
X161282380Y-104023280D01*
X161252696Y-104026965D01*
X161200744Y-104030228D01*
X161129652Y-104033062D01*
X161042550Y-104035461D01*
X160942565Y-104037415D01*
X160832828Y-104038918D01*
X160716466Y-104039962D01*
X160596608Y-104040539D01*
X160476384Y-104040643D01*
X160358920Y-104040265D01*
X160247347Y-104039398D01*
X160144793Y-104038035D01*
X160054386Y-104036167D01*
X159979256Y-104033788D01*
X159922530Y-104030890D01*
X159887338Y-104027465D01*
X159882831Y-104026647D01*
X159780414Y-103993341D01*
X159689706Y-103940755D01*
X159614142Y-103871637D01*
X159609027Y-103864196D01*
X159009080Y-103864196D01*
X158997744Y-103871209D01*
X158969131Y-103875357D01*
X158953255Y-103875840D01*
X158897429Y-103875840D01*
X158842130Y-103713915D01*
X158786830Y-103551990D01*
X158443328Y-103544960D01*
X158394429Y-103694525D01*
X158374608Y-103753369D01*
X158356456Y-103804044D01*
X158341942Y-103841260D01*
X158333034Y-103859725D01*
X158332850Y-103859965D01*
X158314095Y-103869386D01*
X158282797Y-103874771D01*
X158249454Y-103875538D01*
X158224569Y-103871104D01*
X158218330Y-103866315D01*
X158221232Y-103852609D01*
X158231544Y-103817465D01*
X158248430Y-103763471D01*
X158271052Y-103693212D01*
X158298575Y-103609275D01*
X158330163Y-103514246D01*
X158364979Y-103410713D01*
X158379506Y-103367840D01*
X158452815Y-103151940D01*
X158120080Y-103151940D01*
X158120080Y-104155240D01*
X157993080Y-104155240D01*
X157993080Y-103789449D01*
X157955586Y-103824474D01*
X157896338Y-103863436D01*
X157826729Y-103883041D01*
X157752100Y-103883897D01*
X157677787Y-103866613D01*
X157609132Y-103831800D01*
X157551472Y-103780065D01*
X157549909Y-103778185D01*
X157508394Y-103710236D01*
X157480243Y-103627496D01*
X157466353Y-103537304D01*
X157467622Y-103447000D01*
X157484950Y-103363925D01*
X157495792Y-103336090D01*
X157542178Y-103255431D01*
X157598637Y-103197722D01*
X157666391Y-103162106D01*
X157723133Y-103151940D01*
X157358080Y-103151940D01*
X157358080Y-104155240D01*
X157231080Y-104155240D01*
X157231080Y-103789449D01*
X157193586Y-103824474D01*
X157134338Y-103863436D01*
X157064729Y-103883041D01*
X156990100Y-103883897D01*
X156961737Y-103877300D01*
X156570680Y-103877300D01*
X156462730Y-103869490D01*
X156462730Y-103488310D01*
X156325829Y-103488310D01*
X156323374Y-103583435D01*
X156302548Y-103671448D01*
X156265246Y-103748225D01*
X156213358Y-103809643D01*
X156162036Y-103845250D01*
X156095500Y-103868781D01*
X156014939Y-103880598D01*
X155929021Y-103880402D01*
X155846413Y-103867895D01*
X155810408Y-103857404D01*
X155779830Y-103843707D01*
X155768338Y-103827577D01*
X155768504Y-103810945D01*
X155777226Y-103779472D01*
X155795387Y-103766683D01*
X155828620Y-103769685D01*
X155842083Y-103773151D01*
X155898816Y-103783281D01*
X155963263Y-103786308D01*
X156025163Y-103782386D01*
X156074252Y-103771667D01*
X156079556Y-103769616D01*
X156129669Y-103736872D01*
X156172354Y-103687336D01*
X156200355Y-103629616D01*
X156201822Y-103624620D01*
X156210555Y-103593750D01*
X156215164Y-103571082D01*
X155247697Y-103571082D01*
X155247610Y-103661433D01*
X155247209Y-103738301D01*
X155246508Y-103798803D01*
X155245525Y-103840060D01*
X155244275Y-103859190D01*
X155244085Y-103859924D01*
X155228237Y-103870370D01*
X155195949Y-103875624D01*
X155187059Y-103875840D01*
X155136141Y-103875840D01*
X155132686Y-103637715D01*
X155129230Y-103399590D01*
X154659330Y-103399590D01*
X154655873Y-103638431D01*
X154652415Y-103877272D01*
X154598723Y-103873381D01*
X154545030Y-103869490D01*
X154545030Y-103471281D01*
X154396493Y-103471281D01*
X154396169Y-103550981D01*
X154379013Y-103650381D01*
X154342046Y-103734977D01*
X154286168Y-103803538D01*
X154212279Y-103854829D01*
X154157763Y-103877435D01*
X154111881Y-103884641D01*
X154052945Y-103883455D01*
X153991466Y-103874963D01*
X153937956Y-103860250D01*
X153921491Y-103853047D01*
X153881793Y-103827316D01*
X153840184Y-103792220D01*
X153823728Y-103775442D01*
X153783764Y-103726048D01*
X153757253Y-103678154D01*
X153741720Y-103624408D01*
X153734691Y-103557461D01*
X153733523Y-103507540D01*
X153734079Y-103447629D01*
X153737372Y-103405033D01*
X153744855Y-103371700D01*
X153757979Y-103339576D01*
X153767087Y-103321499D01*
X153818919Y-103246677D01*
X153881765Y-103193215D01*
X153591737Y-103193215D01*
X153591428Y-103215200D01*
X153590977Y-103258723D01*
X153590418Y-103319919D01*
X153589784Y-103394926D01*
X153589110Y-103479882D01*
X153588562Y-103552720D01*
X153586180Y-103877300D01*
X153478230Y-103869490D01*
X153471880Y-103615490D01*
X153469558Y-103528533D01*
X153467229Y-103463123D01*
X153464424Y-103415408D01*
X153460677Y-103381538D01*
X153455519Y-103357664D01*
X153448481Y-103339934D01*
X153439096Y-103324499D01*
X153435954Y-103320023D01*
X153391839Y-103274774D01*
X153340935Y-103248670D01*
X153288243Y-103241908D01*
X153238761Y-103254687D01*
X153197488Y-103287204D01*
X153182003Y-103309987D01*
X153174370Y-103328276D01*
X153168389Y-103354237D01*
X153163734Y-103391389D01*
X153160080Y-103443251D01*
X153157103Y-103513341D01*
X153154478Y-103605178D01*
X153154380Y-103609140D01*
X153148030Y-103869490D01*
X153040080Y-103877300D01*
X153040080Y-103634862D01*
X153039553Y-103539114D01*
X153037500Y-103464993D01*
X153033215Y-103408738D01*
X153025990Y-103366591D01*
X153015120Y-103334791D01*
X152999898Y-103309578D01*
X152979616Y-103287192D01*
X152973688Y-103281612D01*
X152925784Y-103252739D01*
X152871216Y-103243375D01*
X152817180Y-103252845D01*
X152770868Y-103280472D01*
X152751775Y-103302449D01*
X152743907Y-103317015D01*
X152737804Y-103336972D01*
X152733120Y-103365867D01*
X152729510Y-103407249D01*
X152726630Y-103464666D01*
X152724134Y-103541665D01*
X152722580Y-103602790D01*
X152716230Y-103869490D01*
X152608280Y-103877300D01*
X152608280Y-103606013D01*
X152608357Y-103533205D01*
X152464392Y-103533205D01*
X152461897Y-103575059D01*
X152438445Y-103672469D01*
X152396935Y-103752758D01*
X152338082Y-103815096D01*
X152262599Y-103858652D01*
X152201880Y-103877174D01*
X152155469Y-103881824D01*
X152094898Y-103880843D01*
X152055849Y-103877300D01*
X151706580Y-103877300D01*
X151598630Y-103869490D01*
X151595114Y-103673801D01*
X151591597Y-103478112D01*
X151547594Y-103429405D01*
X151503591Y-103380699D01*
X151338227Y-103628269D01*
X151172864Y-103875840D01*
X151109522Y-103875840D01*
X151073346Y-103873930D01*
X151050417Y-103869049D01*
X151046180Y-103865251D01*
X151053022Y-103852246D01*
X151072267Y-103821210D01*
X151101998Y-103775092D01*
X151140298Y-103716838D01*
X151167619Y-103675847D01*
X150955142Y-103675847D01*
X150954818Y-103747875D01*
X150954045Y-103804986D01*
X150952850Y-103843690D01*
X150951265Y-103860497D01*
X150951260Y-103860511D01*
X150933344Y-103872050D01*
X150892239Y-103873507D01*
X150890722Y-103873400D01*
X150836630Y-103869490D01*
X150836630Y-103158290D01*
X150950930Y-103158290D01*
X150954319Y-103501000D01*
X150954985Y-103592392D01*
X150955142Y-103675847D01*
X151167619Y-103675847D01*
X151185250Y-103649395D01*
X151225179Y-103590117D01*
X151274492Y-103516962D01*
X151319109Y-103450249D01*
X151357029Y-103393014D01*
X151386247Y-103348296D01*
X151404762Y-103319132D01*
X151410506Y-103309077D01*
X151404508Y-103294898D01*
X151384137Y-103264683D01*
X151351736Y-103221524D01*
X151309649Y-103168510D01*
X151295948Y-103151940D01*
X150715980Y-103151940D01*
X150715980Y-103253540D01*
X150614380Y-103253540D01*
X150613827Y-103466265D01*
X150612781Y-103567611D01*
X150609924Y-103647123D01*
X150604793Y-103708331D01*
X150596926Y-103754765D01*
X150585858Y-103789954D01*
X150571129Y-103817430D01*
X150567020Y-103823238D01*
X150524239Y-103860557D01*
X150465878Y-103881786D01*
X150397115Y-103885477D01*
X150361968Y-103880602D01*
X150335381Y-103872382D01*
X150324364Y-103856335D01*
X150322280Y-103826535D01*
X150322280Y-103780406D01*
X150376255Y-103784509D01*
X150413351Y-103784655D01*
X150442309Y-103777041D01*
X150464105Y-103759056D01*
X150479713Y-103728087D01*
X150490108Y-103681522D01*
X150496266Y-103616748D01*
X150499162Y-103531153D01*
X150499778Y-103453565D01*
X150500080Y-103253540D01*
X150309580Y-103253540D01*
X150309580Y-103151940D01*
X150500080Y-103151940D01*
X150500080Y-103075740D01*
X150501360Y-103030680D01*
X150508107Y-103007406D01*
X150524688Y-103002326D01*
X150555466Y-103011849D01*
X150570338Y-103017941D01*
X150597596Y-103031505D01*
X150610424Y-103048091D01*
X150614201Y-103077002D01*
X150614380Y-103094141D01*
X150614380Y-103151940D01*
X150715980Y-103151940D01*
X151295948Y-103151940D01*
X151260218Y-103108730D01*
X151244208Y-103089823D01*
X151192790Y-103029098D01*
X151147472Y-102974944D01*
X151123628Y-102946020D01*
X150969439Y-102946020D01*
X150961118Y-102984245D01*
X150948962Y-103001714D01*
X150915823Y-103021384D01*
X150876074Y-103021981D01*
X150840806Y-103003921D01*
X150820691Y-102971303D01*
X150819986Y-102934313D01*
X150835732Y-102900610D01*
X150864967Y-102877854D01*
X150891574Y-102872540D01*
X150931514Y-102883070D01*
X150958520Y-102909929D01*
X150969439Y-102946020D01*
X151123628Y-102946020D01*
X151110677Y-102930310D01*
X151084830Y-102898145D01*
X151072354Y-102881396D01*
X151071580Y-102879800D01*
X151083040Y-102875746D01*
X151112476Y-102873119D01*
X151138255Y-102872559D01*
X151204930Y-102872578D01*
X151585930Y-103343662D01*
X151598630Y-102878890D01*
X151652605Y-102874984D01*
X151706580Y-102871079D01*
X151706580Y-103877300D01*
X152055849Y-103877300D01*
X152030587Y-103875008D01*
X151972954Y-103865098D01*
X151947958Y-103858219D01*
X151918107Y-103845125D01*
X151906605Y-103828089D01*
X151906033Y-103807217D01*
X151909859Y-103778162D01*
X151920021Y-103764947D01*
X151942761Y-103764589D01*
X151978418Y-103772609D01*
X152073926Y-103787530D01*
X152158029Y-103782207D01*
X152229015Y-103757536D01*
X152285173Y-103714411D01*
X152324792Y-103653728D01*
X152345562Y-103580565D01*
X152352684Y-103532940D01*
X151858980Y-103532940D01*
X151858980Y-103461388D01*
X151865546Y-103378312D01*
X151887061Y-103310266D01*
X151926257Y-103250010D01*
X151947641Y-103226320D01*
X152009908Y-103174862D01*
X152075950Y-103146817D01*
X152149328Y-103141337D01*
X152233601Y-103157573D01*
X152234625Y-103157876D01*
X152291583Y-103184972D01*
X152348278Y-103229228D01*
X152396758Y-103283594D01*
X152421300Y-103323390D01*
X152443870Y-103385213D01*
X152458906Y-103459322D01*
X152464392Y-103533205D01*
X152608357Y-103533205D01*
X152608376Y-103516110D01*
X152608920Y-103447641D01*
X152610296Y-103396639D01*
X152612889Y-103359138D01*
X152617084Y-103331172D01*
X152623264Y-103308775D01*
X152631814Y-103287979D01*
X152640926Y-103269215D01*
X152681919Y-103207105D01*
X152733090Y-103167522D01*
X152797310Y-103148665D01*
X152836824Y-103146452D01*
X152915698Y-103157399D01*
X152982667Y-103190133D01*
X153027153Y-103229937D01*
X153061183Y-103267195D01*
X153117307Y-103211169D01*
X153178665Y-103165162D01*
X153244632Y-103143605D01*
X153313093Y-103146455D01*
X153381934Y-103173668D01*
X153441282Y-103217856D01*
X153497280Y-103269474D01*
X153497280Y-103150406D01*
X153544905Y-103154348D01*
X153576243Y-103159039D01*
X153589435Y-103170035D01*
X153591737Y-103193215D01*
X153881765Y-103193215D01*
X153883817Y-103191470D01*
X153958084Y-103156415D01*
X154038018Y-103142046D01*
X154119922Y-103148899D01*
X154200094Y-103177509D01*
X154274837Y-103228413D01*
X154292940Y-103245382D01*
X154347272Y-103312232D01*
X154381275Y-103386009D01*
X154396493Y-103471281D01*
X154545030Y-103471281D01*
X154545030Y-102878890D01*
X154599005Y-102874984D01*
X154652980Y-102871079D01*
X154652980Y-103291640D01*
X155135580Y-103291640D01*
X155135580Y-102871079D01*
X155189555Y-102874984D01*
X155243530Y-102878890D01*
X155246861Y-103361449D01*
X155247453Y-103470127D01*
X155247697Y-103571082D01*
X156215164Y-103571082D01*
X156215233Y-103570746D01*
X156212908Y-103554402D01*
X156200629Y-103543510D01*
X156175448Y-103536865D01*
X156134415Y-103533260D01*
X156074580Y-103531488D01*
X155992995Y-103530344D01*
X155970605Y-103530039D01*
X155726130Y-103526590D01*
X155722201Y-103472111D01*
X155726902Y-103385903D01*
X155751968Y-103308147D01*
X155794491Y-103241848D01*
X155851562Y-103190011D01*
X155920272Y-103155640D01*
X155997712Y-103141740D01*
X156040242Y-103143573D01*
X156124858Y-103165359D01*
X156196647Y-103208132D01*
X156254197Y-103270187D01*
X156296096Y-103349819D01*
X156320933Y-103445323D01*
X156325829Y-103488310D01*
X156462730Y-103488310D01*
X156462730Y-102828090D01*
X156516705Y-102824184D01*
X156570680Y-102820279D01*
X156570680Y-103877300D01*
X156961737Y-103877300D01*
X156915787Y-103866613D01*
X156847132Y-103831800D01*
X156789472Y-103780065D01*
X156787909Y-103778185D01*
X156745261Y-103708516D01*
X156716912Y-103624347D01*
X156703702Y-103532719D01*
X156706472Y-103440674D01*
X156726062Y-103355254D01*
X156734797Y-103333206D01*
X156772359Y-103269674D01*
X156823154Y-103213710D01*
X156880638Y-103171482D01*
X156927401Y-103151638D01*
X157002792Y-103142941D01*
X157079753Y-103154258D01*
X157151121Y-103183363D01*
X157209734Y-103228028D01*
X157223394Y-103243662D01*
X157256199Y-103285290D01*
X157256340Y-103218615D01*
X157256480Y-103151940D01*
X157358080Y-103151940D01*
X157723133Y-103151940D01*
X157746660Y-103147725D01*
X157764480Y-103147321D01*
X157851826Y-103157548D01*
X157924240Y-103188227D01*
X157982042Y-103239497D01*
X157985394Y-103243662D01*
X158018199Y-103285290D01*
X158018340Y-103218615D01*
X158018480Y-103151940D01*
X158120080Y-103151940D01*
X158452815Y-103151940D01*
X158545530Y-102878890D01*
X158612205Y-102875051D01*
X158649426Y-102873763D01*
X158673628Y-102874566D01*
X158678880Y-102876197D01*
X158682832Y-102888906D01*
X158694112Y-102923091D01*
X158711856Y-102976185D01*
X158735201Y-103045621D01*
X158763282Y-103128833D01*
X158795237Y-103223253D01*
X158830201Y-103326315D01*
X158843980Y-103366867D01*
X158879902Y-103472820D01*
X158913132Y-103571370D01*
X158942801Y-103659905D01*
X158968043Y-103735812D01*
X158987991Y-103796479D01*
X159001778Y-103839294D01*
X159008535Y-103861644D01*
X159009080Y-103864196D01*
X159609027Y-103864196D01*
X159557153Y-103788734D01*
X159540440Y-103752609D01*
X159510730Y-103678990D01*
X159510730Y-102243890D01*
X159544518Y-102171815D01*
X159602287Y-102077600D01*
X159678757Y-101999943D01*
X159704495Y-101983539D01*
X159006001Y-101983539D01*
X158929757Y-102288340D01*
X158853514Y-102593140D01*
X158817535Y-102593140D01*
X158798100Y-102591249D01*
X158784584Y-102582029D01*
X158773183Y-102560159D01*
X158760093Y-102520317D01*
X158756255Y-102507415D01*
X158743182Y-102461689D01*
X158725935Y-102399335D01*
X158706689Y-102328318D01*
X158687624Y-102256603D01*
X158686359Y-102251790D01*
X158665752Y-102174707D01*
X158650325Y-102120720D01*
X158639457Y-102088198D01*
X158632525Y-102075509D01*
X158628904Y-102081022D01*
X158627965Y-102098898D01*
X158625041Y-102120746D01*
X158616992Y-102162702D01*
X158604781Y-102220217D01*
X158589371Y-102288740D01*
X158573053Y-102358190D01*
X158518258Y-102586790D01*
X158443930Y-102594246D01*
X158389944Y-102400869D01*
X158258642Y-102400869D01*
X158245958Y-102468438D01*
X158217440Y-102527445D01*
X158174416Y-102572102D01*
X158158062Y-102582277D01*
X158099034Y-102601453D01*
X158032503Y-102603814D01*
X157970005Y-102589361D01*
X157954782Y-102582292D01*
X157903805Y-102541320D01*
X157870226Y-102482523D01*
X157854664Y-102407145D01*
X157853589Y-102379159D01*
X157853769Y-102377240D01*
X157751780Y-102377240D01*
X157751780Y-102593140D01*
X157720030Y-102593140D01*
X157705584Y-102592359D01*
X157696359Y-102586914D01*
X157691183Y-102572153D01*
X157688887Y-102543423D01*
X157688299Y-102496073D01*
X157688280Y-102466966D01*
X157686932Y-102408694D01*
X157683313Y-102356393D01*
X157678061Y-102317693D01*
X157674735Y-102305041D01*
X157650154Y-102260118D01*
X157617638Y-102227286D01*
X157583326Y-102212449D01*
X157578117Y-102212140D01*
X157555467Y-102206312D01*
X157548639Y-102184263D01*
X157548580Y-102180390D01*
X157556765Y-102156499D01*
X157578376Y-102149608D01*
X157609002Y-102158635D01*
X157644227Y-102182502D01*
X157671949Y-102210595D01*
X157700067Y-102243890D01*
X157700524Y-102202615D01*
X157704270Y-102173267D01*
X157717374Y-102162159D01*
X157726380Y-102161340D01*
X157735635Y-102162471D01*
X157742318Y-102168231D01*
X157746848Y-102182166D01*
X157749642Y-102207823D01*
X157751117Y-102248751D01*
X157751690Y-102308495D01*
X157751780Y-102377240D01*
X157853769Y-102377240D01*
X157861383Y-102296344D01*
X157885473Y-102232910D01*
X157926198Y-102188471D01*
X157983901Y-102162644D01*
X158052474Y-102154990D01*
X158118437Y-102161157D01*
X158167741Y-102182159D01*
X158206581Y-102221746D01*
X158231205Y-102263199D01*
X158254167Y-102330527D01*
X158258642Y-102400869D01*
X158389944Y-102400869D01*
X158363583Y-102306448D01*
X158340548Y-102224206D01*
X158319514Y-102149623D01*
X158301525Y-102086356D01*
X158287625Y-102038064D01*
X158278856Y-102008406D01*
X158276499Y-102001094D01*
X158281538Y-101989123D01*
X158300958Y-101983306D01*
X158324267Y-101984638D01*
X158340977Y-101994113D01*
X158341523Y-101994933D01*
X158346706Y-102010251D01*
X158357015Y-102046256D01*
X158371380Y-102099003D01*
X158388729Y-102164549D01*
X158407990Y-102238948D01*
X158410730Y-102249657D01*
X158435181Y-102344133D01*
X158454375Y-102415300D01*
X158468786Y-102464595D01*
X158478887Y-102493458D01*
X158485149Y-102503323D01*
X158488046Y-102495630D01*
X158488380Y-102485786D01*
X158491179Y-102465974D01*
X158498893Y-102426342D01*
X158510501Y-102371765D01*
X158524984Y-102307122D01*
X158533360Y-102270944D01*
X158554754Y-102179485D01*
X158571287Y-102109778D01*
X158584030Y-102058877D01*
X158594059Y-102023839D01*
X158602447Y-102001718D01*
X158610269Y-101989569D01*
X158618598Y-101984448D01*
X158628509Y-101983409D01*
X158638181Y-101983540D01*
X158650240Y-101984213D01*
X158660103Y-101988385D01*
X158669071Y-101999284D01*
X158678445Y-102020138D01*
X158689524Y-102054175D01*
X158703612Y-102104624D01*
X158722007Y-102174712D01*
X158734138Y-102221665D01*
X158758452Y-102315970D01*
X158777219Y-102387612D01*
X158791426Y-102438471D01*
X158802062Y-102470429D01*
X158810114Y-102485365D01*
X158816571Y-102485162D01*
X158822419Y-102471700D01*
X158828647Y-102446861D01*
X158835682Y-102415035D01*
X158846976Y-102365030D01*
X158862132Y-102298882D01*
X158879175Y-102225167D01*
X158896130Y-102152461D01*
X158896281Y-102151815D01*
X158912234Y-102084500D01*
X158924179Y-102038059D01*
X158933833Y-102008619D01*
X158942912Y-101992306D01*
X158953134Y-101985248D01*
X158966215Y-101983572D01*
X158970864Y-101983540D01*
X159006001Y-101983539D01*
X159704495Y-101983539D01*
X159744346Y-101958140D01*
X157459680Y-101958140D01*
X157459680Y-102593140D01*
X157427930Y-102593140D01*
X157410705Y-102591644D01*
X157401198Y-102583285D01*
X157397123Y-102562259D01*
X157396191Y-102522758D01*
X157396180Y-102512558D01*
X157394330Y-102463541D01*
X157387632Y-102432540D01*
X157374367Y-102412364D01*
X157371596Y-102409728D01*
X157358822Y-102399864D01*
X157347350Y-102399113D01*
X157333030Y-102410529D01*
X157311711Y-102437168D01*
X157285871Y-102472826D01*
X157255712Y-102514922D01*
X157230149Y-102550597D01*
X157213694Y-102573554D01*
X157211470Y-102576655D01*
X157187833Y-102589784D01*
X157158005Y-102590964D01*
X157117801Y-102586790D01*
X157145082Y-102550668D01*
X157062147Y-102550668D01*
X157059936Y-102573021D01*
X157038281Y-102590439D01*
X157002836Y-102601901D01*
X156959255Y-102606390D01*
X156913190Y-102602885D01*
X156870294Y-102590367D01*
X156862526Y-102586658D01*
X156822539Y-102556042D01*
X156802893Y-102513716D01*
X156799684Y-102476499D01*
X156805217Y-102438195D01*
X156823609Y-102406411D01*
X156858789Y-102376524D01*
X156910482Y-102346132D01*
X156951098Y-102322958D01*
X156973911Y-102304170D01*
X156984425Y-102284051D01*
X156987403Y-102266206D01*
X156981389Y-102229105D01*
X156956393Y-102207005D01*
X156914777Y-102201137D01*
X156875289Y-102207802D01*
X156842157Y-102214762D01*
X156825285Y-102211763D01*
X156818533Y-102201736D01*
X156818189Y-102178354D01*
X156830479Y-102169560D01*
X156519880Y-102169560D01*
X156516417Y-102184599D01*
X156507018Y-102218901D01*
X156493174Y-102267437D01*
X156476374Y-102325181D01*
X156458108Y-102387104D01*
X156439865Y-102448177D01*
X156423134Y-102503373D01*
X156409405Y-102547665D01*
X156400167Y-102576023D01*
X156397226Y-102583615D01*
X156381384Y-102591061D01*
X156361582Y-102593140D01*
X156345970Y-102590167D01*
X156332743Y-102578211D01*
X156318969Y-102552713D01*
X156301715Y-102509115D01*
X156294179Y-102488365D01*
X156274236Y-102430386D01*
X156255560Y-102371964D01*
X156241649Y-102324124D01*
X156239777Y-102316915D01*
X156228110Y-102279524D01*
X156216388Y-102255456D01*
X156207086Y-102248092D01*
X156202678Y-102260814D01*
X156202602Y-102266115D01*
X156199112Y-102283732D01*
X156189418Y-102320410D01*
X156174958Y-102370984D01*
X156157166Y-102430291D01*
X156154977Y-102437419D01*
X156135031Y-102501323D01*
X156120247Y-102544804D01*
X156108550Y-102571788D01*
X156097866Y-102586198D01*
X156086120Y-102591959D01*
X156072751Y-102592994D01*
X156059928Y-102592076D01*
X156049248Y-102586943D01*
X156039072Y-102574209D01*
X156027762Y-102550489D01*
X156013679Y-102512397D01*
X155995183Y-102456548D01*
X155972923Y-102386765D01*
X155951041Y-102318238D01*
X155931584Y-102258198D01*
X155915930Y-102210820D01*
X155905452Y-102180281D01*
X155901778Y-102170865D01*
X155908469Y-102164185D01*
X155932526Y-102161341D01*
X155933078Y-102161340D01*
X155795980Y-102161340D01*
X155795980Y-102593140D01*
X155732480Y-102593140D01*
X155732480Y-102186740D01*
X155643580Y-102186740D01*
X155637399Y-102205521D01*
X155614613Y-102211950D01*
X155606464Y-102212140D01*
X155569348Y-102212140D01*
X155565189Y-102384741D01*
X155563272Y-102454349D01*
X155560920Y-102503130D01*
X155557341Y-102535654D01*
X155551742Y-102556489D01*
X155543332Y-102570205D01*
X155531317Y-102581373D01*
X155531049Y-102581591D01*
X155501802Y-102597114D01*
X155465942Y-102605590D01*
X155430776Y-102606914D01*
X155403606Y-102600979D01*
X155391739Y-102587679D01*
X155391933Y-102583615D01*
X155407256Y-102564677D01*
X155430825Y-102557384D01*
X155459514Y-102549994D01*
X155479846Y-102533129D01*
X155493115Y-102503217D01*
X155500614Y-102456680D01*
X155503636Y-102389946D01*
X155503880Y-102355364D01*
X155503880Y-102212140D01*
X155446730Y-102212140D01*
X155411016Y-102210478D01*
X155394128Y-102203577D01*
X155389602Y-102188564D01*
X155389580Y-102186740D01*
X155393320Y-102170867D01*
X155408847Y-102163361D01*
X155442625Y-102161349D01*
X155446730Y-102161340D01*
X155503880Y-102161340D01*
X155503880Y-102110540D01*
X155506467Y-102078725D01*
X155512930Y-102061033D01*
X155515542Y-102059740D01*
X155548822Y-102068547D01*
X155565190Y-102095789D01*
X155567380Y-102118248D01*
X155569680Y-102147512D01*
X155581174Y-102159275D01*
X155605480Y-102161340D01*
X155633369Y-102165331D01*
X155643187Y-102180183D01*
X155643580Y-102186740D01*
X155732480Y-102186740D01*
X155732480Y-102161340D01*
X155795980Y-102161340D01*
X155933078Y-102161340D01*
X155947674Y-102162030D01*
X155958995Y-102166579D01*
X155968830Y-102178702D01*
X155978969Y-102202115D01*
X155991202Y-102240536D01*
X156007319Y-102297679D01*
X156018640Y-102338994D01*
X156036026Y-102401469D01*
X156051181Y-102453806D01*
X156062842Y-102491809D01*
X156069746Y-102511283D01*
X156070941Y-102512912D01*
X156075778Y-102500086D01*
X156086539Y-102467363D01*
X156101813Y-102419161D01*
X156120185Y-102359901D01*
X156127925Y-102334616D01*
X156148969Y-102266322D01*
X156164587Y-102218755D01*
X156176596Y-102188298D01*
X156186811Y-102171335D01*
X156197049Y-102164245D01*
X156209127Y-102163413D01*
X156213640Y-102163873D01*
X156227122Y-102167195D01*
X156238589Y-102176140D01*
X156249930Y-102194514D01*
X156263036Y-102226121D01*
X156279800Y-102274766D01*
X156300021Y-102337659D01*
X156319789Y-102399236D01*
X156337048Y-102451614D01*
X156350281Y-102490283D01*
X156357965Y-102510734D01*
X156359037Y-102512729D01*
X156364095Y-102503632D01*
X156373403Y-102474994D01*
X156385363Y-102431991D01*
X156391951Y-102406260D01*
X156413007Y-102322613D01*
X156429419Y-102260489D01*
X156442446Y-102216708D01*
X156453350Y-102188088D01*
X156463392Y-102171449D01*
X156473832Y-102163610D01*
X156485931Y-102161390D01*
X156489032Y-102161340D01*
X156512485Y-102164234D01*
X156519880Y-102169560D01*
X156830479Y-102169560D01*
X156839250Y-102163285D01*
X156882927Y-102155946D01*
X156915315Y-102154990D01*
X156960109Y-102156355D01*
X156988395Y-102162407D01*
X157009007Y-102176079D01*
X157022630Y-102190623D01*
X157049287Y-102237817D01*
X157053724Y-102287320D01*
X157036210Y-102333055D01*
X157015249Y-102356183D01*
X156982584Y-102379725D01*
X156952175Y-102395640D01*
X156948574Y-102396872D01*
X156911535Y-102415658D01*
X156880786Y-102444057D01*
X156863970Y-102474374D01*
X156862780Y-102483228D01*
X156873659Y-102519333D01*
X156902967Y-102543741D01*
X156945712Y-102554587D01*
X156996900Y-102550000D01*
X157021157Y-102542482D01*
X157046890Y-102536249D01*
X157059753Y-102545331D01*
X157062147Y-102550668D01*
X157145082Y-102550668D01*
X157206191Y-102469757D01*
X157241097Y-102422814D01*
X157269500Y-102383236D01*
X157288336Y-102355388D01*
X157294580Y-102343852D01*
X157286670Y-102331050D01*
X157265478Y-102304177D01*
X157234810Y-102267955D01*
X157217420Y-102248159D01*
X157140259Y-102161340D01*
X157182495Y-102162024D01*
X157204546Y-102164735D01*
X157224972Y-102174598D01*
X157248514Y-102195391D01*
X157279910Y-102230891D01*
X157300930Y-102256438D01*
X157334780Y-102297002D01*
X157363068Y-102328914D01*
X157381809Y-102347778D01*
X157386655Y-102351004D01*
X157389918Y-102339322D01*
X157392700Y-102306535D01*
X157394791Y-102256937D01*
X157395983Y-102194823D01*
X157396180Y-102154990D01*
X157396180Y-102020203D01*
X155806617Y-102020203D01*
X155803620Y-102047774D01*
X155793917Y-102061284D01*
X155773564Y-102071046D01*
X155755644Y-102066428D01*
X155739877Y-102055725D01*
X155721220Y-102031369D01*
X155724335Y-102007763D01*
X155746477Y-101992281D01*
X155764404Y-101989890D01*
X155792822Y-101994272D01*
X155804901Y-102011312D01*
X155806617Y-102020203D01*
X157396180Y-102020203D01*
X157396180Y-101958140D01*
X155300680Y-101958140D01*
X155300680Y-102593140D01*
X155237180Y-102593140D01*
X155237180Y-102459382D01*
X155234998Y-102376949D01*
X155227568Y-102315644D01*
X155213569Y-102271501D01*
X155191676Y-102240552D01*
X155160567Y-102218832D01*
X155156243Y-102216701D01*
X155121633Y-102203642D01*
X155093704Y-102204453D01*
X155074639Y-102211080D01*
X155049049Y-102225526D01*
X155030836Y-102246962D01*
X155018850Y-102279397D01*
X155011943Y-102326838D01*
X155008962Y-102393293D01*
X155008580Y-102441337D01*
X155008580Y-102593140D01*
X154945080Y-102593140D01*
X154945128Y-102424865D01*
X154945617Y-102353786D01*
X154947452Y-102302958D01*
X154951255Y-102267240D01*
X154957648Y-102241491D01*
X154967254Y-102220574D01*
X154970534Y-102214998D01*
X155009435Y-102172687D01*
X155058934Y-102151539D01*
X155114513Y-102152305D01*
X155171654Y-102175734D01*
X155178822Y-102180390D01*
X155208270Y-102199570D01*
X155227898Y-102210866D01*
X155231394Y-102212140D01*
X155233823Y-102200336D01*
X155235750Y-102168511D01*
X155236930Y-102122039D01*
X155237180Y-102085140D01*
X155237180Y-101958140D01*
X155300680Y-101958140D01*
X157396180Y-101958140D01*
X157459680Y-101958140D01*
X159744346Y-101958140D01*
X159769257Y-101942264D01*
X159853096Y-101900990D01*
X161301965Y-101900990D01*
X161386754Y-101942731D01*
X161478055Y-102001161D01*
X161551220Y-102076820D01*
X161604790Y-102167777D01*
X161637303Y-102272101D01*
X161637791Y-102274642D01*
X161640956Y-102304568D01*
X161643679Y-102356564D01*
X161645963Y-102427515D01*
X161647813Y-102514306D01*
X161649231Y-102613824D01*
X161650221Y-102722955D01*
X161650784Y-102838584D01*
X161650925Y-102957598D01*
X162152328Y-102957598D01*
X162152330Y-102948740D01*
X162152333Y-102759603D01*
X162152261Y-102594039D01*
X162152000Y-102450217D01*
X162151433Y-102326310D01*
X162150443Y-102220489D01*
X162148914Y-102130926D01*
X162146730Y-102055792D01*
X162143774Y-101993259D01*
X162139929Y-101941498D01*
X162135080Y-101898681D01*
X162129109Y-101862979D01*
X162121901Y-101832564D01*
X162113339Y-101805608D01*
X162103306Y-101780281D01*
X162091687Y-101754756D01*
X162078364Y-101727205D01*
X162073976Y-101718186D01*
X162030500Y-101649034D01*
X161969738Y-101579933D01*
X161898839Y-101517871D01*
X161824953Y-101469831D01*
X161814173Y-101464325D01*
X161802457Y-101458196D01*
X161792492Y-101452398D01*
X161783575Y-101446923D01*
X161775008Y-101441760D01*
X161766089Y-101436901D01*
X161756118Y-101432337D01*
X161744395Y-101428058D01*
X161730218Y-101424055D01*
X161712888Y-101420320D01*
X161691704Y-101416842D01*
X161665966Y-101413614D01*
X161634972Y-101410625D01*
X161598022Y-101407866D01*
X161554417Y-101405329D01*
X161503455Y-101403005D01*
X161444436Y-101400883D01*
X161376659Y-101398955D01*
X161299424Y-101397212D01*
X161212031Y-101395645D01*
X161113778Y-101394244D01*
X161003966Y-101393000D01*
X160881894Y-101391905D01*
X160746861Y-101390948D01*
X160598167Y-101390121D01*
X160435111Y-101389415D01*
X160256993Y-101388821D01*
X160063112Y-101388329D01*
X159852769Y-101387930D01*
X159625261Y-101387615D01*
X159379890Y-101387375D01*
X159115953Y-101387201D01*
X158832752Y-101387083D01*
X158529585Y-101387013D01*
X158205752Y-101386981D01*
X157860552Y-101386978D01*
X157493284Y-101386995D01*
X157493284Y-101386995D01*
G37*
X157493284Y-101386995D02*
X157103250Y-101387023D01*
X156689746Y-101387052D01*
X156252075Y-101387074D01*
X155903930Y-101387081D01*
X155448049Y-101387073D01*
X155016866Y-101387054D01*
X154609679Y-101387034D01*
X154225788Y-101387019D01*
X153864490Y-101387019D01*
X153525084Y-101387041D01*
X153206867Y-101387093D01*
X152909139Y-101387184D01*
X152631198Y-101387322D01*
X152372342Y-101387515D01*
X152131869Y-101387771D01*
X151909078Y-101388098D01*
X151703267Y-101388504D01*
X151513734Y-101388999D01*
X151339778Y-101389589D01*
X151180697Y-101390283D01*
X151035790Y-101391089D01*
X150904354Y-101392015D01*
X150785689Y-101393070D01*
X150679092Y-101394261D01*
X150583862Y-101395597D01*
X150499296Y-101397086D01*
X150424695Y-101398736D01*
X150359355Y-101400555D01*
X150302575Y-101402552D01*
X150253654Y-101404735D01*
X150211890Y-101407111D01*
X150176580Y-101409689D01*
X150147024Y-101412477D01*
X150122521Y-101415483D01*
X150102367Y-101418716D01*
X150085862Y-101422183D01*
X150072303Y-101425893D01*
X150060990Y-101429854D01*
X150051221Y-101434074D01*
X150042293Y-101438562D01*
X150033505Y-101443324D01*
X150024156Y-101448371D01*
X150013544Y-101453709D01*
X150009351Y-101455670D01*
X149939705Y-101497183D01*
X149868830Y-101556094D01*
X149803476Y-101625689D01*
X149750392Y-101699250D01*
X149732780Y-101730904D01*
X149719151Y-101758614D01*
X149707227Y-101784912D01*
X149696894Y-101811620D01*
X149688040Y-101840558D01*
X149680551Y-101873548D01*
X149674314Y-101912409D01*
X149669215Y-101958963D01*
X149665142Y-102015030D01*
X149661981Y-102082430D01*
X149659619Y-102162985D01*
X149657943Y-102258516D01*
X149656839Y-102370842D01*
X149656195Y-102501785D01*
X149655897Y-102653165D01*
X149655832Y-102826803D01*
X149655867Y-102967790D01*
X149655972Y-103149346D01*
X149656177Y-103307328D01*
X149656520Y-103443560D01*
X149657042Y-103559868D01*
X149657779Y-103658076D01*
X149658771Y-103740010D01*
X149660055Y-103807495D01*
X149661672Y-103862355D01*
X149663659Y-103906417D01*
X149666054Y-103941505D01*
X149668897Y-103969444D01*
X149672226Y-103992059D01*
X149676080Y-104011176D01*
X149678097Y-104019524D01*
X149714962Y-104132335D01*
X149765410Y-104228148D01*
X149832886Y-104313252D01*
X149846916Y-104327729D01*
X149924131Y-104394382D01*
X150009987Y-104445888D01*
X150111682Y-104486368D01*
X150138130Y-104494571D01*
X150145039Y-104496385D01*
X150153665Y-104498100D01*
X150164712Y-104499719D01*
X150178885Y-104501245D01*
X150196889Y-104502682D01*
X150219428Y-104504031D01*
X150247207Y-104505296D01*
X150280929Y-104506481D01*
X150321300Y-104507587D01*
X150369023Y-104508619D01*
X150424804Y-104509578D01*
X150489346Y-104510468D01*
X150563354Y-104511293D01*
X150647532Y-104512054D01*
X150742586Y-104512755D01*
X150849218Y-104513399D01*
X150968135Y-104513989D01*
X151100039Y-104514528D01*
X151245636Y-104515019D01*
X151405630Y-104515464D01*
X151580726Y-104515867D01*
X151771627Y-104516232D01*
X151979039Y-104516560D01*
X152203666Y-104516854D01*
X152446211Y-104517119D01*
X152707381Y-104517356D01*
X152987878Y-104517569D01*
X153288408Y-104517761D01*
X153609675Y-104517935D01*
X153952383Y-104518093D01*
X154317236Y-104518239D01*
X154704940Y-104518376D01*
X155116199Y-104518506D01*
X155551717Y-104518633D01*
X155834080Y-104518711D01*
X156211491Y-104518792D01*
X156582870Y-104518827D01*
X156947389Y-104518817D01*
X157304220Y-104518764D01*
X157652534Y-104518669D01*
X157991505Y-104518533D01*
X158320305Y-104518358D01*
X158638104Y-104518145D01*
X158944075Y-104517894D01*
X159237391Y-104517607D01*
X159517223Y-104517286D01*
X159782743Y-104516931D01*
X160033123Y-104516544D01*
X160267535Y-104516126D01*
X160485152Y-104515678D01*
X160685145Y-104515202D01*
X160866686Y-104514698D01*
X161028948Y-104514168D01*
X161171102Y-104513613D01*
X161292320Y-104513035D01*
X161391775Y-104512434D01*
X161468638Y-104511812D01*
X161522082Y-104511170D01*
X161551278Y-104510510D01*
X161555926Y-104510246D01*
X161688952Y-104486109D01*
X161807521Y-104441675D01*
X161910608Y-104377801D01*
X161997187Y-104295341D01*
X162066231Y-104195151D01*
X162116714Y-104078086D01*
X162130262Y-104031528D01*
X162134342Y-104013941D01*
X162137890Y-103993885D01*
X162140944Y-103969568D01*
X162143540Y-103939199D01*
X162145714Y-103900985D01*
X162147503Y-103853134D01*
X162148943Y-103793856D01*
X162150071Y-103721358D01*
X162150923Y-103633848D01*
X162151536Y-103529535D01*
X162151947Y-103406626D01*
X162152192Y-103263331D01*
X162152307Y-103097857D01*
X162152328Y-102957598D01*
X161650925Y-102957598D01*
X161650647Y-103076882D01*
X161649952Y-103193322D01*
X161648845Y-103303804D01*
X161647327Y-103405214D01*
X161645402Y-103494437D01*
X161643074Y-103568360D01*
X161640344Y-103623869D01*
X161637218Y-103657849D01*
X161636401Y-103662489D01*
X161602122Y-103768058D01*
X161548120Y-103858511D01*
X161475984Y-103932230D01*
X161387301Y-103987597D01*
X161283657Y-104022995D01*
X161282380Y-104023280D01*
X161252696Y-104026965D01*
X161200744Y-104030228D01*
X161129652Y-104033062D01*
X161042550Y-104035461D01*
X160942565Y-104037415D01*
X160832828Y-104038918D01*
X160716466Y-104039962D01*
X160596608Y-104040539D01*
X160476384Y-104040643D01*
X160358920Y-104040265D01*
X160247347Y-104039398D01*
X160144793Y-104038035D01*
X160054386Y-104036167D01*
X159979256Y-104033788D01*
X159922530Y-104030890D01*
X159887338Y-104027465D01*
X159882831Y-104026647D01*
X159780414Y-103993341D01*
X159689706Y-103940755D01*
X159614142Y-103871637D01*
X159609027Y-103864196D01*
X159009080Y-103864196D01*
X158997744Y-103871209D01*
X158969131Y-103875357D01*
X158953255Y-103875840D01*
X158897429Y-103875840D01*
X158842130Y-103713915D01*
X158786830Y-103551990D01*
X158443328Y-103544960D01*
X158394429Y-103694525D01*
X158374608Y-103753369D01*
X158356456Y-103804044D01*
X158341942Y-103841260D01*
X158333034Y-103859725D01*
X158332850Y-103859965D01*
X158314095Y-103869386D01*
X158282797Y-103874771D01*
X158249454Y-103875538D01*
X158224569Y-103871104D01*
X158218330Y-103866315D01*
X158221232Y-103852609D01*
X158231544Y-103817465D01*
X158248430Y-103763471D01*
X158271052Y-103693212D01*
X158298575Y-103609275D01*
X158330163Y-103514246D01*
X158364979Y-103410713D01*
X158379506Y-103367840D01*
X158452815Y-103151940D01*
X158120080Y-103151940D01*
X158120080Y-104155240D01*
X157993080Y-104155240D01*
X157993080Y-103789449D01*
X157955586Y-103824474D01*
X157896338Y-103863436D01*
X157826729Y-103883041D01*
X157752100Y-103883897D01*
X157677787Y-103866613D01*
X157609132Y-103831800D01*
X157551472Y-103780065D01*
X157549909Y-103778185D01*
X157508394Y-103710236D01*
X157480243Y-103627496D01*
X157466353Y-103537304D01*
X157467622Y-103447000D01*
X157484950Y-103363925D01*
X157495792Y-103336090D01*
X157542178Y-103255431D01*
X157598637Y-103197722D01*
X157666391Y-103162106D01*
X157723133Y-103151940D01*
X157358080Y-103151940D01*
X157358080Y-104155240D01*
X157231080Y-104155240D01*
X157231080Y-103789449D01*
X157193586Y-103824474D01*
X157134338Y-103863436D01*
X157064729Y-103883041D01*
X156990100Y-103883897D01*
X156961737Y-103877300D01*
X156570680Y-103877300D01*
X156462730Y-103869490D01*
X156462730Y-103488310D01*
X156325829Y-103488310D01*
X156323374Y-103583435D01*
X156302548Y-103671448D01*
X156265246Y-103748225D01*
X156213358Y-103809643D01*
X156162036Y-103845250D01*
X156095500Y-103868781D01*
X156014939Y-103880598D01*
X155929021Y-103880402D01*
X155846413Y-103867895D01*
X155810408Y-103857404D01*
X155779830Y-103843707D01*
X155768338Y-103827577D01*
X155768504Y-103810945D01*
X155777226Y-103779472D01*
X155795387Y-103766683D01*
X155828620Y-103769685D01*
X155842083Y-103773151D01*
X155898816Y-103783281D01*
X155963263Y-103786308D01*
X156025163Y-103782386D01*
X156074252Y-103771667D01*
X156079556Y-103769616D01*
X156129669Y-103736872D01*
X156172354Y-103687336D01*
X156200355Y-103629616D01*
X156201822Y-103624620D01*
X156210555Y-103593750D01*
X156215164Y-103571082D01*
X155247697Y-103571082D01*
X155247610Y-103661433D01*
X155247209Y-103738301D01*
X155246508Y-103798803D01*
X155245525Y-103840060D01*
X155244275Y-103859190D01*
X155244085Y-103859924D01*
X155228237Y-103870370D01*
X155195949Y-103875624D01*
X155187059Y-103875840D01*
X155136141Y-103875840D01*
X155132686Y-103637715D01*
X155129230Y-103399590D01*
X154659330Y-103399590D01*
X154655873Y-103638431D01*
X154652415Y-103877272D01*
X154598723Y-103873381D01*
X154545030Y-103869490D01*
X154545030Y-103471281D01*
X154396493Y-103471281D01*
X154396169Y-103550981D01*
X154379013Y-103650381D01*
X154342046Y-103734977D01*
X154286168Y-103803538D01*
X154212279Y-103854829D01*
X154157763Y-103877435D01*
X154111881Y-103884641D01*
X154052945Y-103883455D01*
X153991466Y-103874963D01*
X153937956Y-103860250D01*
X153921491Y-103853047D01*
X153881793Y-103827316D01*
X153840184Y-103792220D01*
X153823728Y-103775442D01*
X153783764Y-103726048D01*
X153757253Y-103678154D01*
X153741720Y-103624408D01*
X153734691Y-103557461D01*
X153733523Y-103507540D01*
X153734079Y-103447629D01*
X153737372Y-103405033D01*
X153744855Y-103371700D01*
X153757979Y-103339576D01*
X153767087Y-103321499D01*
X153818919Y-103246677D01*
X153881765Y-103193215D01*
X153591737Y-103193215D01*
X153591428Y-103215200D01*
X153590977Y-103258723D01*
X153590418Y-103319919D01*
X153589784Y-103394926D01*
X153589110Y-103479882D01*
X153588562Y-103552720D01*
X153586180Y-103877300D01*
X153478230Y-103869490D01*
X153471880Y-103615490D01*
X153469558Y-103528533D01*
X153467229Y-103463123D01*
X153464424Y-103415408D01*
X153460677Y-103381538D01*
X153455519Y-103357664D01*
X153448481Y-103339934D01*
X153439096Y-103324499D01*
X153435954Y-103320023D01*
X153391839Y-103274774D01*
X153340935Y-103248670D01*
X153288243Y-103241908D01*
X153238761Y-103254687D01*
X153197488Y-103287204D01*
X153182003Y-103309987D01*
X153174370Y-103328276D01*
X153168389Y-103354237D01*
X153163734Y-103391389D01*
X153160080Y-103443251D01*
X153157103Y-103513341D01*
X153154478Y-103605178D01*
X153154380Y-103609140D01*
X153148030Y-103869490D01*
X153040080Y-103877300D01*
X153040080Y-103634862D01*
X153039553Y-103539114D01*
X153037500Y-103464993D01*
X153033215Y-103408738D01*
X153025990Y-103366591D01*
X153015120Y-103334791D01*
X152999898Y-103309578D01*
X152979616Y-103287192D01*
X152973688Y-103281612D01*
X152925784Y-103252739D01*
X152871216Y-103243375D01*
X152817180Y-103252845D01*
X152770868Y-103280472D01*
X152751775Y-103302449D01*
X152743907Y-103317015D01*
X152737804Y-103336972D01*
X152733120Y-103365867D01*
X152729510Y-103407249D01*
X152726630Y-103464666D01*
X152724134Y-103541665D01*
X152722580Y-103602790D01*
X152716230Y-103869490D01*
X152608280Y-103877300D01*
X152608280Y-103606013D01*
X152608357Y-103533205D01*
X152464392Y-103533205D01*
X152461897Y-103575059D01*
X152438445Y-103672469D01*
X152396935Y-103752758D01*
X152338082Y-103815096D01*
X152262599Y-103858652D01*
X152201880Y-103877174D01*
X152155469Y-103881824D01*
X152094898Y-103880843D01*
X152055849Y-103877300D01*
X151706580Y-103877300D01*
X151598630Y-103869490D01*
X151595114Y-103673801D01*
X151591597Y-103478112D01*
X151547594Y-103429405D01*
X151503591Y-103380699D01*
X151338227Y-103628269D01*
X151172864Y-103875840D01*
X151109522Y-103875840D01*
X151073346Y-103873930D01*
X151050417Y-103869049D01*
X151046180Y-103865251D01*
X151053022Y-103852246D01*
X151072267Y-103821210D01*
X151101998Y-103775092D01*
X151140298Y-103716838D01*
X151167619Y-103675847D01*
X150955142Y-103675847D01*
X150954818Y-103747875D01*
X150954045Y-103804986D01*
X150952850Y-103843690D01*
X150951265Y-103860497D01*
X150951260Y-103860511D01*
X150933344Y-103872050D01*
X150892239Y-103873507D01*
X150890722Y-103873400D01*
X150836630Y-103869490D01*
X150836630Y-103158290D01*
X150950930Y-103158290D01*
X150954319Y-103501000D01*
X150954985Y-103592392D01*
X150955142Y-103675847D01*
X151167619Y-103675847D01*
X151185250Y-103649395D01*
X151225179Y-103590117D01*
X151274492Y-103516962D01*
X151319109Y-103450249D01*
X151357029Y-103393014D01*
X151386247Y-103348296D01*
X151404762Y-103319132D01*
X151410506Y-103309077D01*
X151404508Y-103294898D01*
X151384137Y-103264683D01*
X151351736Y-103221524D01*
X151309649Y-103168510D01*
X151295948Y-103151940D01*
X150715980Y-103151940D01*
X150715980Y-103253540D01*
X150614380Y-103253540D01*
X150613827Y-103466265D01*
X150612781Y-103567611D01*
X150609924Y-103647123D01*
X150604793Y-103708331D01*
X150596926Y-103754765D01*
X150585858Y-103789954D01*
X150571129Y-103817430D01*
X150567020Y-103823238D01*
X150524239Y-103860557D01*
X150465878Y-103881786D01*
X150397115Y-103885477D01*
X150361968Y-103880602D01*
X150335381Y-103872382D01*
X150324364Y-103856335D01*
X150322280Y-103826535D01*
X150322280Y-103780406D01*
X150376255Y-103784509D01*
X150413351Y-103784655D01*
X150442309Y-103777041D01*
X150464105Y-103759056D01*
X150479713Y-103728087D01*
X150490108Y-103681522D01*
X150496266Y-103616748D01*
X150499162Y-103531153D01*
X150499778Y-103453565D01*
X150500080Y-103253540D01*
X150309580Y-103253540D01*
X150309580Y-103151940D01*
X150500080Y-103151940D01*
X150500080Y-103075740D01*
X150501360Y-103030680D01*
X150508107Y-103007406D01*
X150524688Y-103002326D01*
X150555466Y-103011849D01*
X150570338Y-103017941D01*
X150597596Y-103031505D01*
X150610424Y-103048091D01*
X150614201Y-103077002D01*
X150614380Y-103094141D01*
X150614380Y-103151940D01*
X150715980Y-103151940D01*
X151295948Y-103151940D01*
X151260218Y-103108730D01*
X151244208Y-103089823D01*
X151192790Y-103029098D01*
X151147472Y-102974944D01*
X151123628Y-102946020D01*
X150969439Y-102946020D01*
X150961118Y-102984245D01*
X150948962Y-103001714D01*
X150915823Y-103021384D01*
X150876074Y-103021981D01*
X150840806Y-103003921D01*
X150820691Y-102971303D01*
X150819986Y-102934313D01*
X150835732Y-102900610D01*
X150864967Y-102877854D01*
X150891574Y-102872540D01*
X150931514Y-102883070D01*
X150958520Y-102909929D01*
X150969439Y-102946020D01*
X151123628Y-102946020D01*
X151110677Y-102930310D01*
X151084830Y-102898145D01*
X151072354Y-102881396D01*
X151071580Y-102879800D01*
X151083040Y-102875746D01*
X151112476Y-102873119D01*
X151138255Y-102872559D01*
X151204930Y-102872578D01*
X151585930Y-103343662D01*
X151598630Y-102878890D01*
X151652605Y-102874984D01*
X151706580Y-102871079D01*
X151706580Y-103877300D01*
X152055849Y-103877300D01*
X152030587Y-103875008D01*
X151972954Y-103865098D01*
X151947958Y-103858219D01*
X151918107Y-103845125D01*
X151906605Y-103828089D01*
X151906033Y-103807217D01*
X151909859Y-103778162D01*
X151920021Y-103764947D01*
X151942761Y-103764589D01*
X151978418Y-103772609D01*
X152073926Y-103787530D01*
X152158029Y-103782207D01*
X152229015Y-103757536D01*
X152285173Y-103714411D01*
X152324792Y-103653728D01*
X152345562Y-103580565D01*
X152352684Y-103532940D01*
X151858980Y-103532940D01*
X151858980Y-103461388D01*
X151865546Y-103378312D01*
X151887061Y-103310266D01*
X151926257Y-103250010D01*
X151947641Y-103226320D01*
X152009908Y-103174862D01*
X152075950Y-103146817D01*
X152149328Y-103141337D01*
X152233601Y-103157573D01*
X152234625Y-103157876D01*
X152291583Y-103184972D01*
X152348278Y-103229228D01*
X152396758Y-103283594D01*
X152421300Y-103323390D01*
X152443870Y-103385213D01*
X152458906Y-103459322D01*
X152464392Y-103533205D01*
X152608357Y-103533205D01*
X152608376Y-103516110D01*
X152608920Y-103447641D01*
X152610296Y-103396639D01*
X152612889Y-103359138D01*
X152617084Y-103331172D01*
X152623264Y-103308775D01*
X152631814Y-103287979D01*
X152640926Y-103269215D01*
X152681919Y-103207105D01*
X152733090Y-103167522D01*
X152797310Y-103148665D01*
X152836824Y-103146452D01*
X152915698Y-103157399D01*
X152982667Y-103190133D01*
X153027153Y-103229937D01*
X153061183Y-103267195D01*
X153117307Y-103211169D01*
X153178665Y-103165162D01*
X153244632Y-103143605D01*
X153313093Y-103146455D01*
X153381934Y-103173668D01*
X153441282Y-103217856D01*
X153497280Y-103269474D01*
X153497280Y-103150406D01*
X153544905Y-103154348D01*
X153576243Y-103159039D01*
X153589435Y-103170035D01*
X153591737Y-103193215D01*
X153881765Y-103193215D01*
X153883817Y-103191470D01*
X153958084Y-103156415D01*
X154038018Y-103142046D01*
X154119922Y-103148899D01*
X154200094Y-103177509D01*
X154274837Y-103228413D01*
X154292940Y-103245382D01*
X154347272Y-103312232D01*
X154381275Y-103386009D01*
X154396493Y-103471281D01*
X154545030Y-103471281D01*
X154545030Y-102878890D01*
X154599005Y-102874984D01*
X154652980Y-102871079D01*
X154652980Y-103291640D01*
X155135580Y-103291640D01*
X155135580Y-102871079D01*
X155189555Y-102874984D01*
X155243530Y-102878890D01*
X155246861Y-103361449D01*
X155247453Y-103470127D01*
X155247697Y-103571082D01*
X156215164Y-103571082D01*
X156215233Y-103570746D01*
X156212908Y-103554402D01*
X156200629Y-103543510D01*
X156175448Y-103536865D01*
X156134415Y-103533260D01*
X156074580Y-103531488D01*
X155992995Y-103530344D01*
X155970605Y-103530039D01*
X155726130Y-103526590D01*
X155722201Y-103472111D01*
X155726902Y-103385903D01*
X155751968Y-103308147D01*
X155794491Y-103241848D01*
X155851562Y-103190011D01*
X155920272Y-103155640D01*
X155997712Y-103141740D01*
X156040242Y-103143573D01*
X156124858Y-103165359D01*
X156196647Y-103208132D01*
X156254197Y-103270187D01*
X156296096Y-103349819D01*
X156320933Y-103445323D01*
X156325829Y-103488310D01*
X156462730Y-103488310D01*
X156462730Y-102828090D01*
X156516705Y-102824184D01*
X156570680Y-102820279D01*
X156570680Y-103877300D01*
X156961737Y-103877300D01*
X156915787Y-103866613D01*
X156847132Y-103831800D01*
X156789472Y-103780065D01*
X156787909Y-103778185D01*
X156745261Y-103708516D01*
X156716912Y-103624347D01*
X156703702Y-103532719D01*
X156706472Y-103440674D01*
X156726062Y-103355254D01*
X156734797Y-103333206D01*
X156772359Y-103269674D01*
X156823154Y-103213710D01*
X156880638Y-103171482D01*
X156927401Y-103151638D01*
X157002792Y-103142941D01*
X157079753Y-103154258D01*
X157151121Y-103183363D01*
X157209734Y-103228028D01*
X157223394Y-103243662D01*
X157256199Y-103285290D01*
X157256340Y-103218615D01*
X157256480Y-103151940D01*
X157358080Y-103151940D01*
X157723133Y-103151940D01*
X157746660Y-103147725D01*
X157764480Y-103147321D01*
X157851826Y-103157548D01*
X157924240Y-103188227D01*
X157982042Y-103239497D01*
X157985394Y-103243662D01*
X158018199Y-103285290D01*
X158018340Y-103218615D01*
X158018480Y-103151940D01*
X158120080Y-103151940D01*
X158452815Y-103151940D01*
X158545530Y-102878890D01*
X158612205Y-102875051D01*
X158649426Y-102873763D01*
X158673628Y-102874566D01*
X158678880Y-102876197D01*
X158682832Y-102888906D01*
X158694112Y-102923091D01*
X158711856Y-102976185D01*
X158735201Y-103045621D01*
X158763282Y-103128833D01*
X158795237Y-103223253D01*
X158830201Y-103326315D01*
X158843980Y-103366867D01*
X158879902Y-103472820D01*
X158913132Y-103571370D01*
X158942801Y-103659905D01*
X158968043Y-103735812D01*
X158987991Y-103796479D01*
X159001778Y-103839294D01*
X159008535Y-103861644D01*
X159009080Y-103864196D01*
X159609027Y-103864196D01*
X159557153Y-103788734D01*
X159540440Y-103752609D01*
X159510730Y-103678990D01*
X159510730Y-102243890D01*
X159544518Y-102171815D01*
X159602287Y-102077600D01*
X159678757Y-101999943D01*
X159704495Y-101983539D01*
X159006001Y-101983539D01*
X158929757Y-102288340D01*
X158853514Y-102593140D01*
X158817535Y-102593140D01*
X158798100Y-102591249D01*
X158784584Y-102582029D01*
X158773183Y-102560159D01*
X158760093Y-102520317D01*
X158756255Y-102507415D01*
X158743182Y-102461689D01*
X158725935Y-102399335D01*
X158706689Y-102328318D01*
X158687624Y-102256603D01*
X158686359Y-102251790D01*
X158665752Y-102174707D01*
X158650325Y-102120720D01*
X158639457Y-102088198D01*
X158632525Y-102075509D01*
X158628904Y-102081022D01*
X158627965Y-102098898D01*
X158625041Y-102120746D01*
X158616992Y-102162702D01*
X158604781Y-102220217D01*
X158589371Y-102288740D01*
X158573053Y-102358190D01*
X158518258Y-102586790D01*
X158443930Y-102594246D01*
X158389944Y-102400869D01*
X158258642Y-102400869D01*
X158245958Y-102468438D01*
X158217440Y-102527445D01*
X158174416Y-102572102D01*
X158158062Y-102582277D01*
X158099034Y-102601453D01*
X158032503Y-102603814D01*
X157970005Y-102589361D01*
X157954782Y-102582292D01*
X157903805Y-102541320D01*
X157870226Y-102482523D01*
X157854664Y-102407145D01*
X157853589Y-102379159D01*
X157853769Y-102377240D01*
X157751780Y-102377240D01*
X157751780Y-102593140D01*
X157720030Y-102593140D01*
X157705584Y-102592359D01*
X157696359Y-102586914D01*
X157691183Y-102572153D01*
X157688887Y-102543423D01*
X157688299Y-102496073D01*
X157688280Y-102466966D01*
X157686932Y-102408694D01*
X157683313Y-102356393D01*
X157678061Y-102317693D01*
X157674735Y-102305041D01*
X157650154Y-102260118D01*
X157617638Y-102227286D01*
X157583326Y-102212449D01*
X157578117Y-102212140D01*
X157555467Y-102206312D01*
X157548639Y-102184263D01*
X157548580Y-102180390D01*
X157556765Y-102156499D01*
X157578376Y-102149608D01*
X157609002Y-102158635D01*
X157644227Y-102182502D01*
X157671949Y-102210595D01*
X157700067Y-102243890D01*
X157700524Y-102202615D01*
X157704270Y-102173267D01*
X157717374Y-102162159D01*
X157726380Y-102161340D01*
X157735635Y-102162471D01*
X157742318Y-102168231D01*
X157746848Y-102182166D01*
X157749642Y-102207823D01*
X157751117Y-102248751D01*
X157751690Y-102308495D01*
X157751780Y-102377240D01*
X157853769Y-102377240D01*
X157861383Y-102296344D01*
X157885473Y-102232910D01*
X157926198Y-102188471D01*
X157983901Y-102162644D01*
X158052474Y-102154990D01*
X158118437Y-102161157D01*
X158167741Y-102182159D01*
X158206581Y-102221746D01*
X158231205Y-102263199D01*
X158254167Y-102330527D01*
X158258642Y-102400869D01*
X158389944Y-102400869D01*
X158363583Y-102306448D01*
X158340548Y-102224206D01*
X158319514Y-102149623D01*
X158301525Y-102086356D01*
X158287625Y-102038064D01*
X158278856Y-102008406D01*
X158276499Y-102001094D01*
X158281538Y-101989123D01*
X158300958Y-101983306D01*
X158324267Y-101984638D01*
X158340977Y-101994113D01*
X158341523Y-101994933D01*
X158346706Y-102010251D01*
X158357015Y-102046256D01*
X158371380Y-102099003D01*
X158388729Y-102164549D01*
X158407990Y-102238948D01*
X158410730Y-102249657D01*
X158435181Y-102344133D01*
X158454375Y-102415300D01*
X158468786Y-102464595D01*
X158478887Y-102493458D01*
X158485149Y-102503323D01*
X158488046Y-102495630D01*
X158488380Y-102485786D01*
X158491179Y-102465974D01*
X158498893Y-102426342D01*
X158510501Y-102371765D01*
X158524984Y-102307122D01*
X158533360Y-102270944D01*
X158554754Y-102179485D01*
X158571287Y-102109778D01*
X158584030Y-102058877D01*
X158594059Y-102023839D01*
X158602447Y-102001718D01*
X158610269Y-101989569D01*
X158618598Y-101984448D01*
X158628509Y-101983409D01*
X158638181Y-101983540D01*
X158650240Y-101984213D01*
X158660103Y-101988385D01*
X158669071Y-101999284D01*
X158678445Y-102020138D01*
X158689524Y-102054175D01*
X158703612Y-102104624D01*
X158722007Y-102174712D01*
X158734138Y-102221665D01*
X158758452Y-102315970D01*
X158777219Y-102387612D01*
X158791426Y-102438471D01*
X158802062Y-102470429D01*
X158810114Y-102485365D01*
X158816571Y-102485162D01*
X158822419Y-102471700D01*
X158828647Y-102446861D01*
X158835682Y-102415035D01*
X158846976Y-102365030D01*
X158862132Y-102298882D01*
X158879175Y-102225167D01*
X158896130Y-102152461D01*
X158896281Y-102151815D01*
X158912234Y-102084500D01*
X158924179Y-102038059D01*
X158933833Y-102008619D01*
X158942912Y-101992306D01*
X158953134Y-101985248D01*
X158966215Y-101983572D01*
X158970864Y-101983540D01*
X159006001Y-101983539D01*
X159704495Y-101983539D01*
X159744346Y-101958140D01*
X157459680Y-101958140D01*
X157459680Y-102593140D01*
X157427930Y-102593140D01*
X157410705Y-102591644D01*
X157401198Y-102583285D01*
X157397123Y-102562259D01*
X157396191Y-102522758D01*
X157396180Y-102512558D01*
X157394330Y-102463541D01*
X157387632Y-102432540D01*
X157374367Y-102412364D01*
X157371596Y-102409728D01*
X157358822Y-102399864D01*
X157347350Y-102399113D01*
X157333030Y-102410529D01*
X157311711Y-102437168D01*
X157285871Y-102472826D01*
X157255712Y-102514922D01*
X157230149Y-102550597D01*
X157213694Y-102573554D01*
X157211470Y-102576655D01*
X157187833Y-102589784D01*
X157158005Y-102590964D01*
X157117801Y-102586790D01*
X157145082Y-102550668D01*
X157062147Y-102550668D01*
X157059936Y-102573021D01*
X157038281Y-102590439D01*
X157002836Y-102601901D01*
X156959255Y-102606390D01*
X156913190Y-102602885D01*
X156870294Y-102590367D01*
X156862526Y-102586658D01*
X156822539Y-102556042D01*
X156802893Y-102513716D01*
X156799684Y-102476499D01*
X156805217Y-102438195D01*
X156823609Y-102406411D01*
X156858789Y-102376524D01*
X156910482Y-102346132D01*
X156951098Y-102322958D01*
X156973911Y-102304170D01*
X156984425Y-102284051D01*
X156987403Y-102266206D01*
X156981389Y-102229105D01*
X156956393Y-102207005D01*
X156914777Y-102201137D01*
X156875289Y-102207802D01*
X156842157Y-102214762D01*
X156825285Y-102211763D01*
X156818533Y-102201736D01*
X156818189Y-102178354D01*
X156830479Y-102169560D01*
X156519880Y-102169560D01*
X156516417Y-102184599D01*
X156507018Y-102218901D01*
X156493174Y-102267437D01*
X156476374Y-102325181D01*
X156458108Y-102387104D01*
X156439865Y-102448177D01*
X156423134Y-102503373D01*
X156409405Y-102547665D01*
X156400167Y-102576023D01*
X156397226Y-102583615D01*
X156381384Y-102591061D01*
X156361582Y-102593140D01*
X156345970Y-102590167D01*
X156332743Y-102578211D01*
X156318969Y-102552713D01*
X156301715Y-102509115D01*
X156294179Y-102488365D01*
X156274236Y-102430386D01*
X156255560Y-102371964D01*
X156241649Y-102324124D01*
X156239777Y-102316915D01*
X156228110Y-102279524D01*
X156216388Y-102255456D01*
X156207086Y-102248092D01*
X156202678Y-102260814D01*
X156202602Y-102266115D01*
X156199112Y-102283732D01*
X156189418Y-102320410D01*
X156174958Y-102370984D01*
X156157166Y-102430291D01*
X156154977Y-102437419D01*
X156135031Y-102501323D01*
X156120247Y-102544804D01*
X156108550Y-102571788D01*
X156097866Y-102586198D01*
X156086120Y-102591959D01*
X156072751Y-102592994D01*
X156059928Y-102592076D01*
X156049248Y-102586943D01*
X156039072Y-102574209D01*
X156027762Y-102550489D01*
X156013679Y-102512397D01*
X155995183Y-102456548D01*
X155972923Y-102386765D01*
X155951041Y-102318238D01*
X155931584Y-102258198D01*
X155915930Y-102210820D01*
X155905452Y-102180281D01*
X155901778Y-102170865D01*
X155908469Y-102164185D01*
X155932526Y-102161341D01*
X155933078Y-102161340D01*
X155795980Y-102161340D01*
X155795980Y-102593140D01*
X155732480Y-102593140D01*
X155732480Y-102186740D01*
X155643580Y-102186740D01*
X155637399Y-102205521D01*
X155614613Y-102211950D01*
X155606464Y-102212140D01*
X155569348Y-102212140D01*
X155565189Y-102384741D01*
X155563272Y-102454349D01*
X155560920Y-102503130D01*
X155557341Y-102535654D01*
X155551742Y-102556489D01*
X155543332Y-102570205D01*
X155531317Y-102581373D01*
X155531049Y-102581591D01*
X155501802Y-102597114D01*
X155465942Y-102605590D01*
X155430776Y-102606914D01*
X155403606Y-102600979D01*
X155391739Y-102587679D01*
X155391933Y-102583615D01*
X155407256Y-102564677D01*
X155430825Y-102557384D01*
X155459514Y-102549994D01*
X155479846Y-102533129D01*
X155493115Y-102503217D01*
X155500614Y-102456680D01*
X155503636Y-102389946D01*
X155503880Y-102355364D01*
X155503880Y-102212140D01*
X155446730Y-102212140D01*
X155411016Y-102210478D01*
X155394128Y-102203577D01*
X155389602Y-102188564D01*
X155389580Y-102186740D01*
X155393320Y-102170867D01*
X155408847Y-102163361D01*
X155442625Y-102161349D01*
X155446730Y-102161340D01*
X155503880Y-102161340D01*
X155503880Y-102110540D01*
X155506467Y-102078725D01*
X155512930Y-102061033D01*
X155515542Y-102059740D01*
X155548822Y-102068547D01*
X155565190Y-102095789D01*
X155567380Y-102118248D01*
X155569680Y-102147512D01*
X155581174Y-102159275D01*
X155605480Y-102161340D01*
X155633369Y-102165331D01*
X155643187Y-102180183D01*
X155643580Y-102186740D01*
X155732480Y-102186740D01*
X155732480Y-102161340D01*
X155795980Y-102161340D01*
X155933078Y-102161340D01*
X155947674Y-102162030D01*
X155958995Y-102166579D01*
X155968830Y-102178702D01*
X155978969Y-102202115D01*
X155991202Y-102240536D01*
X156007319Y-102297679D01*
X156018640Y-102338994D01*
X156036026Y-102401469D01*
X156051181Y-102453806D01*
X156062842Y-102491809D01*
X156069746Y-102511283D01*
X156070941Y-102512912D01*
X156075778Y-102500086D01*
X156086539Y-102467363D01*
X156101813Y-102419161D01*
X156120185Y-102359901D01*
X156127925Y-102334616D01*
X156148969Y-102266322D01*
X156164587Y-102218755D01*
X156176596Y-102188298D01*
X156186811Y-102171335D01*
X156197049Y-102164245D01*
X156209127Y-102163413D01*
X156213640Y-102163873D01*
X156227122Y-102167195D01*
X156238589Y-102176140D01*
X156249930Y-102194514D01*
X156263036Y-102226121D01*
X156279800Y-102274766D01*
X156300021Y-102337659D01*
X156319789Y-102399236D01*
X156337048Y-102451614D01*
X156350281Y-102490283D01*
X156357965Y-102510734D01*
X156359037Y-102512729D01*
X156364095Y-102503632D01*
X156373403Y-102474994D01*
X156385363Y-102431991D01*
X156391951Y-102406260D01*
X156413007Y-102322613D01*
X156429419Y-102260489D01*
X156442446Y-102216708D01*
X156453350Y-102188088D01*
X156463392Y-102171449D01*
X156473832Y-102163610D01*
X156485931Y-102161390D01*
X156489032Y-102161340D01*
X156512485Y-102164234D01*
X156519880Y-102169560D01*
X156830479Y-102169560D01*
X156839250Y-102163285D01*
X156882927Y-102155946D01*
X156915315Y-102154990D01*
X156960109Y-102156355D01*
X156988395Y-102162407D01*
X157009007Y-102176079D01*
X157022630Y-102190623D01*
X157049287Y-102237817D01*
X157053724Y-102287320D01*
X157036210Y-102333055D01*
X157015249Y-102356183D01*
X156982584Y-102379725D01*
X156952175Y-102395640D01*
X156948574Y-102396872D01*
X156911535Y-102415658D01*
X156880786Y-102444057D01*
X156863970Y-102474374D01*
X156862780Y-102483228D01*
X156873659Y-102519333D01*
X156902967Y-102543741D01*
X156945712Y-102554587D01*
X156996900Y-102550000D01*
X157021157Y-102542482D01*
X157046890Y-102536249D01*
X157059753Y-102545331D01*
X157062147Y-102550668D01*
X157145082Y-102550668D01*
X157206191Y-102469757D01*
X157241097Y-102422814D01*
X157269500Y-102383236D01*
X157288336Y-102355388D01*
X157294580Y-102343852D01*
X157286670Y-102331050D01*
X157265478Y-102304177D01*
X157234810Y-102267955D01*
X157217420Y-102248159D01*
X157140259Y-102161340D01*
X157182495Y-102162024D01*
X157204546Y-102164735D01*
X157224972Y-102174598D01*
X157248514Y-102195391D01*
X157279910Y-102230891D01*
X157300930Y-102256438D01*
X157334780Y-102297002D01*
X157363068Y-102328914D01*
X157381809Y-102347778D01*
X157386655Y-102351004D01*
X157389918Y-102339322D01*
X157392700Y-102306535D01*
X157394791Y-102256937D01*
X157395983Y-102194823D01*
X157396180Y-102154990D01*
X157396180Y-102020203D01*
X155806617Y-102020203D01*
X155803620Y-102047774D01*
X155793917Y-102061284D01*
X155773564Y-102071046D01*
X155755644Y-102066428D01*
X155739877Y-102055725D01*
X155721220Y-102031369D01*
X155724335Y-102007763D01*
X155746477Y-101992281D01*
X155764404Y-101989890D01*
X155792822Y-101994272D01*
X155804901Y-102011312D01*
X155806617Y-102020203D01*
X157396180Y-102020203D01*
X157396180Y-101958140D01*
X155300680Y-101958140D01*
X155300680Y-102593140D01*
X155237180Y-102593140D01*
X155237180Y-102459382D01*
X155234998Y-102376949D01*
X155227568Y-102315644D01*
X155213569Y-102271501D01*
X155191676Y-102240552D01*
X155160567Y-102218832D01*
X155156243Y-102216701D01*
X155121633Y-102203642D01*
X155093704Y-102204453D01*
X155074639Y-102211080D01*
X155049049Y-102225526D01*
X155030836Y-102246962D01*
X155018850Y-102279397D01*
X155011943Y-102326838D01*
X155008962Y-102393293D01*
X155008580Y-102441337D01*
X155008580Y-102593140D01*
X154945080Y-102593140D01*
X154945128Y-102424865D01*
X154945617Y-102353786D01*
X154947452Y-102302958D01*
X154951255Y-102267240D01*
X154957648Y-102241491D01*
X154967254Y-102220574D01*
X154970534Y-102214998D01*
X155009435Y-102172687D01*
X155058934Y-102151539D01*
X155114513Y-102152305D01*
X155171654Y-102175734D01*
X155178822Y-102180390D01*
X155208270Y-102199570D01*
X155227898Y-102210866D01*
X155231394Y-102212140D01*
X155233823Y-102200336D01*
X155235750Y-102168511D01*
X155236930Y-102122039D01*
X155237180Y-102085140D01*
X155237180Y-101958140D01*
X155300680Y-101958140D01*
X157396180Y-101958140D01*
X157459680Y-101958140D01*
X159744346Y-101958140D01*
X159769257Y-101942264D01*
X159853096Y-101900990D01*
X161301965Y-101900990D01*
X161386754Y-101942731D01*
X161478055Y-102001161D01*
X161551220Y-102076820D01*
X161604790Y-102167777D01*
X161637303Y-102272101D01*
X161637791Y-102274642D01*
X161640956Y-102304568D01*
X161643679Y-102356564D01*
X161645963Y-102427515D01*
X161647813Y-102514306D01*
X161649231Y-102613824D01*
X161650221Y-102722955D01*
X161650784Y-102838584D01*
X161650925Y-102957598D01*
X162152328Y-102957598D01*
X162152330Y-102948740D01*
X162152333Y-102759603D01*
X162152261Y-102594039D01*
X162152000Y-102450217D01*
X162151433Y-102326310D01*
X162150443Y-102220489D01*
X162148914Y-102130926D01*
X162146730Y-102055792D01*
X162143774Y-101993259D01*
X162139929Y-101941498D01*
X162135080Y-101898681D01*
X162129109Y-101862979D01*
X162121901Y-101832564D01*
X162113339Y-101805608D01*
X162103306Y-101780281D01*
X162091687Y-101754756D01*
X162078364Y-101727205D01*
X162073976Y-101718186D01*
X162030500Y-101649034D01*
X161969738Y-101579933D01*
X161898839Y-101517871D01*
X161824953Y-101469831D01*
X161814173Y-101464325D01*
X161802457Y-101458196D01*
X161792492Y-101452398D01*
X161783575Y-101446923D01*
X161775008Y-101441760D01*
X161766089Y-101436901D01*
X161756118Y-101432337D01*
X161744395Y-101428058D01*
X161730218Y-101424055D01*
X161712888Y-101420320D01*
X161691704Y-101416842D01*
X161665966Y-101413614D01*
X161634972Y-101410625D01*
X161598022Y-101407866D01*
X161554417Y-101405329D01*
X161503455Y-101403005D01*
X161444436Y-101400883D01*
X161376659Y-101398955D01*
X161299424Y-101397212D01*
X161212031Y-101395645D01*
X161113778Y-101394244D01*
X161003966Y-101393000D01*
X160881894Y-101391905D01*
X160746861Y-101390948D01*
X160598167Y-101390121D01*
X160435111Y-101389415D01*
X160256993Y-101388821D01*
X160063112Y-101388329D01*
X159852769Y-101387930D01*
X159625261Y-101387615D01*
X159379890Y-101387375D01*
X159115953Y-101387201D01*
X158832752Y-101387083D01*
X158529585Y-101387013D01*
X158205752Y-101386981D01*
X157860552Y-101386978D01*
X157493284Y-101386995D01*
D11*
G36*
X142148072Y-135719285D02*
X142223115Y-135742050D01*
X142233084Y-135745074D01*
X142302959Y-135782424D01*
X142311437Y-135786955D01*
X142380106Y-135843310D01*
X142380108Y-135843312D01*
X142436467Y-135911986D01*
X142478346Y-135990335D01*
X142481370Y-136000304D01*
X142504135Y-136075347D01*
X142510660Y-136141602D01*
X142510660Y-137385918D01*
X142504135Y-137452173D01*
X142492811Y-137489500D01*
X142478346Y-137537185D01*
X142436467Y-137615534D01*
X142380108Y-137684208D01*
X142311434Y-137740567D01*
X142233085Y-137782446D01*
X142223116Y-137785470D01*
X142148073Y-137808235D01*
X142059660Y-137816942D01*
X141971248Y-137808235D01*
X141896205Y-137785470D01*
X141886236Y-137782446D01*
X141807887Y-137740567D01*
X141739213Y-137684208D01*
X141682854Y-137615534D01*
X141640975Y-137537185D01*
X141626510Y-137489500D01*
X141615186Y-137452173D01*
X141608661Y-137385918D01*
X141608660Y-136141603D01*
X141615185Y-136075348D01*
X141640973Y-135990340D01*
X141640974Y-135990336D01*
X141682853Y-135911987D01*
X141682855Y-135911983D01*
X141739210Y-135843314D01*
X141739215Y-135843310D01*
X141807886Y-135786953D01*
X141886235Y-135745074D01*
X141896204Y-135742050D01*
X141971247Y-135719285D01*
X142059660Y-135710578D01*
X142148072Y-135719285D01*
X142148072Y-135719285D01*
G37*
G36*
X143418072Y-135719285D02*
X143493115Y-135742050D01*
X143503084Y-135745074D01*
X143572959Y-135782424D01*
X143581437Y-135786955D01*
X143650106Y-135843310D01*
X143650108Y-135843312D01*
X143706467Y-135911986D01*
X143748346Y-135990335D01*
X143751370Y-136000304D01*
X143774135Y-136075347D01*
X143780660Y-136141602D01*
X143780660Y-137385918D01*
X143774135Y-137452173D01*
X143762811Y-137489500D01*
X143748346Y-137537185D01*
X143706467Y-137615534D01*
X143650108Y-137684208D01*
X143581434Y-137740567D01*
X143503085Y-137782446D01*
X143493116Y-137785470D01*
X143418073Y-137808235D01*
X143329660Y-137816942D01*
X143241248Y-137808235D01*
X143166205Y-137785470D01*
X143156236Y-137782446D01*
X143077887Y-137740567D01*
X143009213Y-137684208D01*
X142952854Y-137615534D01*
X142910975Y-137537185D01*
X142896510Y-137489500D01*
X142885186Y-137452173D01*
X142878661Y-137385918D01*
X142878660Y-136141603D01*
X142885185Y-136075348D01*
X142910973Y-135990340D01*
X142910974Y-135990336D01*
X142952853Y-135911987D01*
X142952855Y-135911983D01*
X143009210Y-135843314D01*
X143009215Y-135843310D01*
X143077886Y-135786953D01*
X143156235Y-135745074D01*
X143166204Y-135742050D01*
X143241247Y-135719285D01*
X143329660Y-135710578D01*
X143418072Y-135719285D01*
X143418072Y-135719285D01*
G37*
G36*
X144688072Y-135719285D02*
X144763115Y-135742050D01*
X144773084Y-135745074D01*
X144842959Y-135782424D01*
X144851437Y-135786955D01*
X144920106Y-135843310D01*
X144920108Y-135843312D01*
X144976467Y-135911986D01*
X145018346Y-135990335D01*
X145021370Y-136000304D01*
X145044135Y-136075347D01*
X145050660Y-136141602D01*
X145050660Y-137385918D01*
X145044135Y-137452173D01*
X145032811Y-137489500D01*
X145018346Y-137537185D01*
X144976467Y-137615534D01*
X144920108Y-137684208D01*
X144851434Y-137740567D01*
X144773085Y-137782446D01*
X144763116Y-137785470D01*
X144688073Y-137808235D01*
X144599660Y-137816942D01*
X144511248Y-137808235D01*
X144436205Y-137785470D01*
X144426236Y-137782446D01*
X144347887Y-137740567D01*
X144279213Y-137684208D01*
X144222854Y-137615534D01*
X144180975Y-137537185D01*
X144166510Y-137489500D01*
X144155186Y-137452173D01*
X144148661Y-137385918D01*
X144148660Y-136141603D01*
X144155185Y-136075348D01*
X144180973Y-135990340D01*
X144180974Y-135990336D01*
X144222853Y-135911987D01*
X144222855Y-135911983D01*
X144279210Y-135843314D01*
X144279215Y-135843310D01*
X144347886Y-135786953D01*
X144426235Y-135745074D01*
X144436204Y-135742050D01*
X144511247Y-135719285D01*
X144599660Y-135710578D01*
X144688072Y-135719285D01*
X144688072Y-135719285D01*
G37*
G36*
X145958072Y-135719285D02*
X146033115Y-135742050D01*
X146043084Y-135745074D01*
X146112959Y-135782424D01*
X146121437Y-135786955D01*
X146190106Y-135843310D01*
X146190108Y-135843312D01*
X146246467Y-135911986D01*
X146288346Y-135990335D01*
X146291370Y-136000304D01*
X146314135Y-136075347D01*
X146320660Y-136141602D01*
X146320660Y-137385918D01*
X146314135Y-137452173D01*
X146302811Y-137489500D01*
X146288346Y-137537185D01*
X146246467Y-137615534D01*
X146190108Y-137684208D01*
X146121434Y-137740567D01*
X146043085Y-137782446D01*
X146033116Y-137785470D01*
X145958073Y-137808235D01*
X145869660Y-137816942D01*
X145781248Y-137808235D01*
X145706205Y-137785470D01*
X145696236Y-137782446D01*
X145617887Y-137740567D01*
X145549213Y-137684208D01*
X145492854Y-137615534D01*
X145450975Y-137537185D01*
X145436510Y-137489500D01*
X145425186Y-137452173D01*
X145418661Y-137385918D01*
X145418660Y-136141603D01*
X145425185Y-136075348D01*
X145450973Y-135990340D01*
X145450974Y-135990336D01*
X145492853Y-135911987D01*
X145492855Y-135911983D01*
X145549210Y-135843314D01*
X145549215Y-135843310D01*
X145617886Y-135786953D01*
X145696235Y-135745074D01*
X145706204Y-135742050D01*
X145781247Y-135719285D01*
X145869660Y-135710578D01*
X145958072Y-135719285D01*
X145958072Y-135719285D01*
G37*
G36*
X114064702Y-136134682D02*
X114212662Y-136195970D01*
X114270950Y-136234917D01*
X114345817Y-136284941D01*
X114459059Y-136398183D01*
X114485082Y-136437130D01*
X114548030Y-136531338D01*
X114609318Y-136679298D01*
X114640560Y-136836365D01*
X114640560Y-136996515D01*
X114609318Y-137153582D01*
X114548030Y-137301542D01*
X114503243Y-137368570D01*
X114491655Y-137385914D01*
X114459058Y-137434698D01*
X114345818Y-137547938D01*
X114212662Y-137636910D01*
X114064702Y-137698198D01*
X113907635Y-137729440D01*
X113747485Y-137729440D01*
X113590418Y-137698198D01*
X113442458Y-137636910D01*
X113309302Y-137547938D01*
X113196062Y-137434698D01*
X113163466Y-137385914D01*
X113151877Y-137368570D01*
X113107090Y-137301542D01*
X113045802Y-137153582D01*
X113014560Y-136996515D01*
X113014560Y-136836365D01*
X113045802Y-136679298D01*
X113107090Y-136531338D01*
X113170038Y-136437130D01*
X113196061Y-136398183D01*
X113309303Y-136284941D01*
X113384170Y-136234917D01*
X113442458Y-136195970D01*
X113590418Y-136134682D01*
X113747485Y-136103440D01*
X113907635Y-136103440D01*
X114064702Y-136134682D01*
X114064702Y-136134682D01*
G37*
G36*
X132714784Y-137591350D02*
X129112784Y-137591350D01*
X129112784Y-135289350D01*
X132714784Y-135289350D01*
X132714784Y-137591350D01*
X132714784Y-137591350D01*
G37*
G36*
X160282843Y-135694019D02*
X160349027Y-135700537D01*
X160462253Y-135734884D01*
X160518867Y-135752057D01*
X160602452Y-135796735D01*
X160675391Y-135835722D01*
X160711129Y-135865052D01*
X160812586Y-135948314D01*
X160895848Y-136049771D01*
X160925178Y-136085509D01*
X160925179Y-136085511D01*
X161008843Y-136242033D01*
X161008843Y-136242034D01*
X161060363Y-136411873D01*
X161077759Y-136588500D01*
X161060363Y-136765127D01*
X161038753Y-136836365D01*
X161008843Y-136934967D01*
X160981057Y-136986950D01*
X160925178Y-137091491D01*
X160895848Y-137127229D01*
X160812586Y-137228686D01*
X160723812Y-137301540D01*
X160675391Y-137341278D01*
X160675389Y-137341279D01*
X160518867Y-137424943D01*
X160486708Y-137434698D01*
X160349027Y-137476463D01*
X160282842Y-137482982D01*
X160216660Y-137489500D01*
X160128140Y-137489500D01*
X160061958Y-137482982D01*
X159995773Y-137476463D01*
X159858092Y-137434698D01*
X159825933Y-137424943D01*
X159669411Y-137341279D01*
X159669409Y-137341278D01*
X159620988Y-137301540D01*
X159532214Y-137228686D01*
X159448952Y-137127229D01*
X159419622Y-137091491D01*
X159363743Y-136986950D01*
X159335957Y-136934967D01*
X159306047Y-136836365D01*
X159284437Y-136765127D01*
X159267041Y-136588500D01*
X159284437Y-136411873D01*
X159335957Y-136242034D01*
X159335957Y-136242033D01*
X159419621Y-136085511D01*
X159419622Y-136085509D01*
X159448952Y-136049771D01*
X159532214Y-135948314D01*
X159633671Y-135865052D01*
X159669409Y-135835722D01*
X159742348Y-135796735D01*
X159825933Y-135752057D01*
X159882547Y-135734884D01*
X159995773Y-135700537D01*
X160061957Y-135694019D01*
X160128140Y-135687500D01*
X160216660Y-135687500D01*
X160282843Y-135694019D01*
X160282843Y-135694019D01*
G37*
G36*
X152662843Y-135694019D02*
X152729027Y-135700537D01*
X152842253Y-135734884D01*
X152898867Y-135752057D01*
X152982452Y-135796735D01*
X153055391Y-135835722D01*
X153091129Y-135865052D01*
X153192586Y-135948314D01*
X153275848Y-136049771D01*
X153305178Y-136085509D01*
X153305179Y-136085511D01*
X153388843Y-136242033D01*
X153388843Y-136242034D01*
X153440363Y-136411873D01*
X153457759Y-136588500D01*
X153440363Y-136765127D01*
X153418753Y-136836365D01*
X153388843Y-136934967D01*
X153361057Y-136986950D01*
X153305178Y-137091491D01*
X153275848Y-137127229D01*
X153192586Y-137228686D01*
X153103812Y-137301540D01*
X153055391Y-137341278D01*
X153055389Y-137341279D01*
X152898867Y-137424943D01*
X152866708Y-137434698D01*
X152729027Y-137476463D01*
X152662842Y-137482982D01*
X152596660Y-137489500D01*
X152508140Y-137489500D01*
X152441958Y-137482982D01*
X152375773Y-137476463D01*
X152238092Y-137434698D01*
X152205933Y-137424943D01*
X152049411Y-137341279D01*
X152049409Y-137341278D01*
X152000988Y-137301540D01*
X151912214Y-137228686D01*
X151828952Y-137127229D01*
X151799622Y-137091491D01*
X151743743Y-136986950D01*
X151715957Y-136934967D01*
X151686047Y-136836365D01*
X151664437Y-136765127D01*
X151647041Y-136588500D01*
X151664437Y-136411873D01*
X151715957Y-136242034D01*
X151715957Y-136242033D01*
X151799621Y-136085511D01*
X151799622Y-136085509D01*
X151828952Y-136049771D01*
X151912214Y-135948314D01*
X152013671Y-135865052D01*
X152049409Y-135835722D01*
X152122348Y-135796735D01*
X152205933Y-135752057D01*
X152262547Y-135734884D01*
X152375773Y-135700537D01*
X152441957Y-135694019D01*
X152508140Y-135687500D01*
X152596660Y-135687500D01*
X152662843Y-135694019D01*
X152662843Y-135694019D01*
G37*
G36*
X155202843Y-135694019D02*
X155269027Y-135700537D01*
X155382253Y-135734884D01*
X155438867Y-135752057D01*
X155522452Y-135796735D01*
X155595391Y-135835722D01*
X155631129Y-135865052D01*
X155732586Y-135948314D01*
X155815848Y-136049771D01*
X155845178Y-136085509D01*
X155845179Y-136085511D01*
X155928843Y-136242033D01*
X155928843Y-136242034D01*
X155980363Y-136411873D01*
X155997759Y-136588500D01*
X155980363Y-136765127D01*
X155958753Y-136836365D01*
X155928843Y-136934967D01*
X155901057Y-136986950D01*
X155845178Y-137091491D01*
X155815848Y-137127229D01*
X155732586Y-137228686D01*
X155643812Y-137301540D01*
X155595391Y-137341278D01*
X155595389Y-137341279D01*
X155438867Y-137424943D01*
X155406708Y-137434698D01*
X155269027Y-137476463D01*
X155202842Y-137482982D01*
X155136660Y-137489500D01*
X155048140Y-137489500D01*
X154981958Y-137482982D01*
X154915773Y-137476463D01*
X154778092Y-137434698D01*
X154745933Y-137424943D01*
X154589411Y-137341279D01*
X154589409Y-137341278D01*
X154540988Y-137301540D01*
X154452214Y-137228686D01*
X154368952Y-137127229D01*
X154339622Y-137091491D01*
X154283743Y-136986950D01*
X154255957Y-136934967D01*
X154226047Y-136836365D01*
X154204437Y-136765127D01*
X154187041Y-136588500D01*
X154204437Y-136411873D01*
X154255957Y-136242034D01*
X154255957Y-136242033D01*
X154339621Y-136085511D01*
X154339622Y-136085509D01*
X154368952Y-136049771D01*
X154452214Y-135948314D01*
X154553671Y-135865052D01*
X154589409Y-135835722D01*
X154662348Y-135796735D01*
X154745933Y-135752057D01*
X154802547Y-135734884D01*
X154915773Y-135700537D01*
X154981957Y-135694019D01*
X155048140Y-135687500D01*
X155136660Y-135687500D01*
X155202843Y-135694019D01*
X155202843Y-135694019D01*
G37*
G36*
X157742843Y-135694019D02*
X157809027Y-135700537D01*
X157922253Y-135734884D01*
X157978867Y-135752057D01*
X158062452Y-135796735D01*
X158135391Y-135835722D01*
X158171129Y-135865052D01*
X158272586Y-135948314D01*
X158355848Y-136049771D01*
X158385178Y-136085509D01*
X158385179Y-136085511D01*
X158468843Y-136242033D01*
X158468843Y-136242034D01*
X158520363Y-136411873D01*
X158537759Y-136588500D01*
X158520363Y-136765127D01*
X158498753Y-136836365D01*
X158468843Y-136934967D01*
X158441057Y-136986950D01*
X158385178Y-137091491D01*
X158355848Y-137127229D01*
X158272586Y-137228686D01*
X158183812Y-137301540D01*
X158135391Y-137341278D01*
X158135389Y-137341279D01*
X157978867Y-137424943D01*
X157946708Y-137434698D01*
X157809027Y-137476463D01*
X157742842Y-137482982D01*
X157676660Y-137489500D01*
X157588140Y-137489500D01*
X157521958Y-137482982D01*
X157455773Y-137476463D01*
X157318092Y-137434698D01*
X157285933Y-137424943D01*
X157129411Y-137341279D01*
X157129409Y-137341278D01*
X157080988Y-137301540D01*
X156992214Y-137228686D01*
X156908952Y-137127229D01*
X156879622Y-137091491D01*
X156823743Y-136986950D01*
X156795957Y-136934967D01*
X156766047Y-136836365D01*
X156744437Y-136765127D01*
X156727041Y-136588500D01*
X156744437Y-136411873D01*
X156795957Y-136242034D01*
X156795957Y-136242033D01*
X156879621Y-136085511D01*
X156879622Y-136085509D01*
X156908952Y-136049771D01*
X156992214Y-135948314D01*
X157093671Y-135865052D01*
X157129409Y-135835722D01*
X157202348Y-135796735D01*
X157285933Y-135752057D01*
X157342547Y-135734884D01*
X157455773Y-135700537D01*
X157521957Y-135694019D01*
X157588140Y-135687500D01*
X157676660Y-135687500D01*
X157742843Y-135694019D01*
X157742843Y-135694019D01*
G37*
G36*
X136097904Y-136986950D02*
X135015904Y-136986950D01*
X135015904Y-135954950D01*
X136097904Y-135954950D01*
X136097904Y-136986950D01*
X136097904Y-136986950D01*
G37*
G36*
X138439222Y-134934902D02*
X138587182Y-134996190D01*
X138720338Y-135085162D01*
X138833578Y-135198402D01*
X138922550Y-135331558D01*
X138983838Y-135479518D01*
X139015080Y-135636585D01*
X139015080Y-135796735D01*
X138983838Y-135953802D01*
X138968703Y-135990340D01*
X138929282Y-136085511D01*
X138922550Y-136101762D01*
X138833578Y-136234918D01*
X138720338Y-136348158D01*
X138587182Y-136437130D01*
X138439222Y-136498418D01*
X138282155Y-136529660D01*
X138122005Y-136529660D01*
X137964938Y-136498418D01*
X137816978Y-136437130D01*
X137683822Y-136348158D01*
X137570582Y-136234918D01*
X137481610Y-136101762D01*
X137474879Y-136085511D01*
X137435457Y-135990340D01*
X137420322Y-135953802D01*
X137389080Y-135796735D01*
X137389080Y-135636585D01*
X137420322Y-135479518D01*
X137481610Y-135331558D01*
X137570582Y-135198402D01*
X137683822Y-135085162D01*
X137816978Y-134996190D01*
X137964938Y-134934902D01*
X138122005Y-134903660D01*
X138282155Y-134903660D01*
X138439222Y-134934902D01*
X138439222Y-134934902D01*
G37*
G36*
X136097904Y-135446950D02*
X135015904Y-135446950D01*
X135015904Y-134414950D01*
X136097904Y-134414950D01*
X136097904Y-135446950D01*
X136097904Y-135446950D01*
G37*
G36*
X155202843Y-133154019D02*
X155269027Y-133160537D01*
X155382253Y-133194884D01*
X155438867Y-133212057D01*
X155467178Y-133227190D01*
X155595391Y-133295722D01*
X155624632Y-133319720D01*
X155732586Y-133408314D01*
X155799106Y-133489370D01*
X155845178Y-133545509D01*
X155845179Y-133545511D01*
X155928843Y-133702033D01*
X155928843Y-133702034D01*
X155980363Y-133871873D01*
X155997759Y-134048500D01*
X155980363Y-134225127D01*
X155946016Y-134338353D01*
X155928843Y-134394967D01*
X155854748Y-134533587D01*
X155845178Y-134551491D01*
X155815848Y-134587229D01*
X155732586Y-134688686D01*
X155631129Y-134771948D01*
X155595391Y-134801278D01*
X155595389Y-134801279D01*
X155438867Y-134884943D01*
X155382253Y-134902116D01*
X155269027Y-134936463D01*
X155202843Y-134942981D01*
X155136660Y-134949500D01*
X155048140Y-134949500D01*
X154981957Y-134942981D01*
X154915773Y-134936463D01*
X154802547Y-134902116D01*
X154745933Y-134884943D01*
X154589411Y-134801279D01*
X154589409Y-134801278D01*
X154553671Y-134771948D01*
X154452214Y-134688686D01*
X154368952Y-134587229D01*
X154339622Y-134551491D01*
X154330052Y-134533587D01*
X154255957Y-134394967D01*
X154238784Y-134338353D01*
X154204437Y-134225127D01*
X154187041Y-134048500D01*
X154204437Y-133871873D01*
X154255957Y-133702034D01*
X154255957Y-133702033D01*
X154339621Y-133545511D01*
X154339622Y-133545509D01*
X154385694Y-133489370D01*
X154452214Y-133408314D01*
X154560168Y-133319720D01*
X154589409Y-133295722D01*
X154717622Y-133227190D01*
X154745933Y-133212057D01*
X154802547Y-133194884D01*
X154915773Y-133160537D01*
X154981957Y-133154019D01*
X155048140Y-133147500D01*
X155136660Y-133147500D01*
X155202843Y-133154019D01*
X155202843Y-133154019D01*
G37*
G36*
X152662843Y-133154019D02*
X152729027Y-133160537D01*
X152842253Y-133194884D01*
X152898867Y-133212057D01*
X152927178Y-133227190D01*
X153055391Y-133295722D01*
X153084632Y-133319720D01*
X153192586Y-133408314D01*
X153259106Y-133489370D01*
X153305178Y-133545509D01*
X153305179Y-133545511D01*
X153388843Y-133702033D01*
X153388843Y-133702034D01*
X153440363Y-133871873D01*
X153457759Y-134048500D01*
X153440363Y-134225127D01*
X153406016Y-134338353D01*
X153388843Y-134394967D01*
X153314748Y-134533587D01*
X153305178Y-134551491D01*
X153275848Y-134587229D01*
X153192586Y-134688686D01*
X153091129Y-134771948D01*
X153055391Y-134801278D01*
X153055389Y-134801279D01*
X152898867Y-134884943D01*
X152842253Y-134902116D01*
X152729027Y-134936463D01*
X152662843Y-134942981D01*
X152596660Y-134949500D01*
X152508140Y-134949500D01*
X152441957Y-134942981D01*
X152375773Y-134936463D01*
X152262547Y-134902116D01*
X152205933Y-134884943D01*
X152049411Y-134801279D01*
X152049409Y-134801278D01*
X152013671Y-134771948D01*
X151912214Y-134688686D01*
X151828952Y-134587229D01*
X151799622Y-134551491D01*
X151790052Y-134533587D01*
X151715957Y-134394967D01*
X151698784Y-134338353D01*
X151664437Y-134225127D01*
X151647041Y-134048500D01*
X151664437Y-133871873D01*
X151715957Y-133702034D01*
X151715957Y-133702033D01*
X151799621Y-133545511D01*
X151799622Y-133545509D01*
X151845694Y-133489370D01*
X151912214Y-133408314D01*
X152020168Y-133319720D01*
X152049409Y-133295722D01*
X152177622Y-133227190D01*
X152205933Y-133212057D01*
X152262547Y-133194884D01*
X152375773Y-133160537D01*
X152441957Y-133154019D01*
X152508140Y-133147500D01*
X152596660Y-133147500D01*
X152662843Y-133154019D01*
X152662843Y-133154019D01*
G37*
G36*
X161073400Y-134949500D02*
X159271400Y-134949500D01*
X159271400Y-133147500D01*
X161073400Y-133147500D01*
X161073400Y-134949500D01*
X161073400Y-134949500D01*
G37*
G36*
X157742843Y-133154019D02*
X157809027Y-133160537D01*
X157922253Y-133194884D01*
X157978867Y-133212057D01*
X158007178Y-133227190D01*
X158135391Y-133295722D01*
X158164632Y-133319720D01*
X158272586Y-133408314D01*
X158339106Y-133489370D01*
X158385178Y-133545509D01*
X158385179Y-133545511D01*
X158468843Y-133702033D01*
X158468843Y-133702034D01*
X158520363Y-133871873D01*
X158537759Y-134048500D01*
X158520363Y-134225127D01*
X158486016Y-134338353D01*
X158468843Y-134394967D01*
X158394748Y-134533587D01*
X158385178Y-134551491D01*
X158355848Y-134587229D01*
X158272586Y-134688686D01*
X158171129Y-134771948D01*
X158135391Y-134801278D01*
X158135389Y-134801279D01*
X157978867Y-134884943D01*
X157922253Y-134902116D01*
X157809027Y-134936463D01*
X157742843Y-134942981D01*
X157676660Y-134949500D01*
X157588140Y-134949500D01*
X157521957Y-134942981D01*
X157455773Y-134936463D01*
X157342547Y-134902116D01*
X157285933Y-134884943D01*
X157129411Y-134801279D01*
X157129409Y-134801278D01*
X157093671Y-134771948D01*
X156992214Y-134688686D01*
X156908952Y-134587229D01*
X156879622Y-134551491D01*
X156870052Y-134533587D01*
X156795957Y-134394967D01*
X156778784Y-134338353D01*
X156744437Y-134225127D01*
X156727041Y-134048500D01*
X156744437Y-133871873D01*
X156795957Y-133702034D01*
X156795957Y-133702033D01*
X156879621Y-133545511D01*
X156879622Y-133545509D01*
X156925694Y-133489370D01*
X156992214Y-133408314D01*
X157100168Y-133319720D01*
X157129409Y-133295722D01*
X157257622Y-133227190D01*
X157285933Y-133212057D01*
X157342547Y-133194884D01*
X157455773Y-133160537D01*
X157521957Y-133154019D01*
X157588140Y-133147500D01*
X157676660Y-133147500D01*
X157742843Y-133154019D01*
X157742843Y-133154019D01*
G37*
G36*
X136128384Y-133489370D02*
X135046384Y-133489370D01*
X135046384Y-132457370D01*
X136128384Y-132457370D01*
X136128384Y-133489370D01*
X136128384Y-133489370D01*
G37*
G36*
X114064702Y-131724962D02*
X114212662Y-131786250D01*
X114345818Y-131875222D01*
X114459058Y-131988462D01*
X114548030Y-132121618D01*
X114609318Y-132269578D01*
X114640560Y-132426645D01*
X114640560Y-132586795D01*
X114609318Y-132743862D01*
X114561914Y-132858303D01*
X114548031Y-132891820D01*
X114459059Y-133024977D01*
X114345817Y-133138219D01*
X114279690Y-133182403D01*
X114212662Y-133227190D01*
X114064702Y-133288478D01*
X113907635Y-133319720D01*
X113747485Y-133319720D01*
X113590418Y-133288478D01*
X113442458Y-133227190D01*
X113375430Y-133182403D01*
X113309303Y-133138219D01*
X113196061Y-133024977D01*
X113107089Y-132891820D01*
X113093206Y-132858303D01*
X113045802Y-132743862D01*
X113014560Y-132586795D01*
X113014560Y-132426645D01*
X113045802Y-132269578D01*
X113107090Y-132121618D01*
X113196062Y-131988462D01*
X113309302Y-131875222D01*
X113442458Y-131786250D01*
X113590418Y-131724962D01*
X113747485Y-131693720D01*
X113907635Y-131693720D01*
X114064702Y-131724962D01*
X114064702Y-131724962D01*
G37*
G36*
X136128384Y-131949370D02*
X135046384Y-131949370D01*
X135046384Y-130917370D01*
X136128384Y-130917370D01*
X136128384Y-131949370D01*
X136128384Y-131949370D01*
G37*
G36*
X133764784Y-131591350D02*
X132662784Y-131591350D01*
X132662784Y-129289350D01*
X133764784Y-129289350D01*
X133764784Y-131591350D01*
X133764784Y-131591350D01*
G37*
G36*
X131464784Y-131591350D02*
X130362784Y-131591350D01*
X130362784Y-129289350D01*
X131464784Y-129289350D01*
X131464784Y-131591350D01*
X131464784Y-131591350D01*
G37*
G36*
X129164784Y-131591350D02*
X128062784Y-131591350D01*
X128062784Y-129289350D01*
X129164784Y-129289350D01*
X129164784Y-131591350D01*
X129164784Y-131591350D01*
G37*
G36*
X118439222Y-129854902D02*
X118587182Y-129916190D01*
X118720338Y-130005162D01*
X118833578Y-130118402D01*
X118922550Y-130251558D01*
X118983838Y-130399518D01*
X119015080Y-130556585D01*
X119015080Y-130716735D01*
X118983838Y-130873802D01*
X118922550Y-131021762D01*
X118833578Y-131154918D01*
X118720338Y-131268158D01*
X118587182Y-131357130D01*
X118439222Y-131418418D01*
X118282155Y-131449660D01*
X118122005Y-131449660D01*
X117964938Y-131418418D01*
X117816978Y-131357130D01*
X117683822Y-131268158D01*
X117570582Y-131154918D01*
X117481610Y-131021762D01*
X117420322Y-130873802D01*
X117389080Y-130716735D01*
X117389080Y-130556585D01*
X117420322Y-130399518D01*
X117481610Y-130251558D01*
X117570582Y-130118402D01*
X117683822Y-130005162D01*
X117816978Y-129916190D01*
X117964938Y-129854902D01*
X118122005Y-129823660D01*
X118282155Y-129823660D01*
X118439222Y-129854902D01*
X118439222Y-129854902D01*
G37*
G36*
X138439222Y-129854902D02*
X138587182Y-129916190D01*
X138720338Y-130005162D01*
X138833578Y-130118402D01*
X138922550Y-130251558D01*
X138983838Y-130399518D01*
X139015080Y-130556585D01*
X139015080Y-130716735D01*
X138983838Y-130873802D01*
X138922550Y-131021762D01*
X138833578Y-131154918D01*
X138720338Y-131268158D01*
X138587182Y-131357130D01*
X138439222Y-131418418D01*
X138282155Y-131449660D01*
X138122005Y-131449660D01*
X137964938Y-131418418D01*
X137816978Y-131357130D01*
X137683822Y-131268158D01*
X137570582Y-131154918D01*
X137481610Y-131021762D01*
X137420322Y-130873802D01*
X137389080Y-130716735D01*
X137389080Y-130556585D01*
X137420322Y-130399518D01*
X137481610Y-130251558D01*
X137570582Y-130118402D01*
X137683822Y-130005162D01*
X137816978Y-129916190D01*
X137964938Y-129854902D01*
X138122005Y-129823660D01*
X138282155Y-129823660D01*
X138439222Y-129854902D01*
X138439222Y-129854902D01*
G37*
G36*
X152986607Y-128855381D02*
X153066236Y-128863224D01*
X153168403Y-128894216D01*
X153219488Y-128909712D01*
X153360725Y-128985205D01*
X153484519Y-129086801D01*
X153586115Y-129210595D01*
X153661608Y-129351832D01*
X153661608Y-129351833D01*
X153708096Y-129505084D01*
X153723793Y-129664460D01*
X153708096Y-129823836D01*
X153698672Y-129854902D01*
X153661608Y-129977088D01*
X153586115Y-130118325D01*
X153484519Y-130242119D01*
X153360725Y-130343715D01*
X153219488Y-130419208D01*
X153168403Y-130434704D01*
X153066236Y-130465696D01*
X152986607Y-130473539D01*
X152946794Y-130477460D01*
X151390926Y-130477460D01*
X151351113Y-130473539D01*
X151271484Y-130465696D01*
X151169317Y-130434704D01*
X151118232Y-130419208D01*
X150976995Y-130343715D01*
X150853201Y-130242119D01*
X150751605Y-130118325D01*
X150676112Y-129977088D01*
X150639048Y-129854902D01*
X150629624Y-129823836D01*
X150613927Y-129664460D01*
X150629624Y-129505084D01*
X150676112Y-129351833D01*
X150676112Y-129351832D01*
X150751605Y-129210595D01*
X150853201Y-129086801D01*
X150976995Y-128985205D01*
X151118232Y-128909712D01*
X151169317Y-128894216D01*
X151271484Y-128863224D01*
X151351113Y-128855381D01*
X151390926Y-128851460D01*
X152946794Y-128851460D01*
X152986607Y-128855381D01*
X152986607Y-128855381D01*
G37*
G36*
X132302050Y-128488776D02*
X131270050Y-128488776D01*
X131270050Y-127406776D01*
X132302050Y-127406776D01*
X132302050Y-128488776D01*
X132302050Y-128488776D01*
G37*
G36*
X133842050Y-128488776D02*
X132810050Y-128488776D01*
X132810050Y-127406776D01*
X133842050Y-127406776D01*
X133842050Y-128488776D01*
X133842050Y-128488776D01*
G37*
G36*
X128919150Y-128486236D02*
X127887150Y-128486236D01*
X127887150Y-127404236D01*
X128919150Y-127404236D01*
X128919150Y-128486236D01*
X128919150Y-128486236D01*
G37*
G36*
X130459150Y-128486236D02*
X129427150Y-128486236D01*
X129427150Y-127404236D01*
X130459150Y-127404236D01*
X130459150Y-128486236D01*
X130459150Y-128486236D01*
G37*
G36*
X146293760Y-128136860D02*
X140441760Y-128136860D01*
X140441760Y-126734860D01*
X146293760Y-126734860D01*
X146293760Y-128136860D01*
X146293760Y-128136860D01*
G37*
G36*
X152986607Y-126315381D02*
X153066236Y-126323224D01*
X153168403Y-126354216D01*
X153219488Y-126369712D01*
X153360725Y-126445205D01*
X153484519Y-126546801D01*
X153586115Y-126670595D01*
X153661608Y-126811832D01*
X153677104Y-126862917D01*
X153708096Y-126965084D01*
X153723793Y-127124460D01*
X153708096Y-127283836D01*
X153699584Y-127311895D01*
X153661608Y-127437088D01*
X153586115Y-127578325D01*
X153484519Y-127702119D01*
X153360725Y-127803715D01*
X153219488Y-127879208D01*
X153174370Y-127892894D01*
X153066236Y-127925696D01*
X152986607Y-127933539D01*
X152946794Y-127937460D01*
X151390926Y-127937460D01*
X151351113Y-127933539D01*
X151271484Y-127925696D01*
X151163350Y-127892894D01*
X151118232Y-127879208D01*
X150976995Y-127803715D01*
X150853201Y-127702119D01*
X150751605Y-127578325D01*
X150676112Y-127437088D01*
X150638136Y-127311895D01*
X150629624Y-127283836D01*
X150613927Y-127124460D01*
X150629624Y-126965084D01*
X150660616Y-126862917D01*
X150676112Y-126811832D01*
X150751605Y-126670595D01*
X150853201Y-126546801D01*
X150976995Y-126445205D01*
X151118232Y-126369712D01*
X151169317Y-126354216D01*
X151271484Y-126323224D01*
X151351113Y-126315381D01*
X151390926Y-126311460D01*
X152946794Y-126311460D01*
X152986607Y-126315381D01*
X152986607Y-126315381D01*
G37*
G36*
X113991160Y-124303425D02*
X114236400Y-124377818D01*
X114236402Y-124377819D01*
X114462416Y-124498626D01*
X114660517Y-124661203D01*
X114823094Y-124859304D01*
X114823095Y-124859306D01*
X114943902Y-125085320D01*
X115018295Y-125330560D01*
X115037120Y-125521695D01*
X115037120Y-126649505D01*
X115018295Y-126840640D01*
X114943902Y-127085880D01*
X114823096Y-127311893D01*
X114823094Y-127311895D01*
X114660516Y-127509997D01*
X114462415Y-127672574D01*
X114462413Y-127672575D01*
X114236399Y-127793382D01*
X113991159Y-127867775D01*
X113736120Y-127892894D01*
X113481080Y-127867775D01*
X113235840Y-127793382D01*
X113009826Y-127672575D01*
X112974302Y-127643421D01*
X112811723Y-127509996D01*
X112649146Y-127311895D01*
X112528339Y-127085881D01*
X112491696Y-126965086D01*
X112453945Y-126840639D01*
X112435120Y-126649504D01*
X112435120Y-125521695D01*
X112453945Y-125330560D01*
X112528338Y-125085320D01*
X112649145Y-124859306D01*
X112668117Y-124836189D01*
X112811724Y-124661203D01*
X113009825Y-124498626D01*
X113235839Y-124377819D01*
X113235841Y-124377818D01*
X113481081Y-124303425D01*
X113736120Y-124278306D01*
X113991160Y-124303425D01*
X113991160Y-124303425D01*
G37*
G36*
X118439222Y-124774902D02*
X118587182Y-124836190D01*
X118654210Y-124880977D01*
X118720337Y-124925161D01*
X118833579Y-125038403D01*
X118864926Y-125085318D01*
X118922550Y-125171558D01*
X118983838Y-125319518D01*
X119015080Y-125476585D01*
X119015080Y-125636735D01*
X118983838Y-125793802D01*
X118922550Y-125941762D01*
X118833578Y-126074918D01*
X118720338Y-126188158D01*
X118587182Y-126277130D01*
X118439222Y-126338418D01*
X118282155Y-126369660D01*
X118122005Y-126369660D01*
X117964938Y-126338418D01*
X117816978Y-126277130D01*
X117683822Y-126188158D01*
X117570582Y-126074918D01*
X117481610Y-125941762D01*
X117420322Y-125793802D01*
X117389080Y-125636735D01*
X117389080Y-125476585D01*
X117420322Y-125319518D01*
X117481610Y-125171558D01*
X117539234Y-125085318D01*
X117570581Y-125038403D01*
X117683823Y-124925161D01*
X117749950Y-124880977D01*
X117816978Y-124836190D01*
X117964938Y-124774902D01*
X118122005Y-124743660D01*
X118282155Y-124743660D01*
X118439222Y-124774902D01*
X118439222Y-124774902D01*
G37*
G36*
X139718760Y-126011860D02*
X138316760Y-126011860D01*
X138316760Y-120159860D01*
X139718760Y-120159860D01*
X139718760Y-126011860D01*
X139718760Y-126011860D01*
G37*
G36*
X148418760Y-126011860D02*
X147016760Y-126011860D01*
X147016760Y-120159860D01*
X148418760Y-120159860D01*
X148418760Y-126011860D01*
X148418760Y-126011860D01*
G37*
G36*
X130354775Y-125023594D02*
X130394050Y-125027462D01*
X130444442Y-125042749D01*
X130469639Y-125050392D01*
X130539300Y-125087627D01*
X130600362Y-125137738D01*
X130650473Y-125198800D01*
X130687708Y-125268461D01*
X130687708Y-125268462D01*
X130710638Y-125344050D01*
X130718380Y-125422660D01*
X130710638Y-125501270D01*
X130707425Y-125511860D01*
X130687708Y-125576859D01*
X130650473Y-125646520D01*
X130600362Y-125707582D01*
X130539300Y-125757693D01*
X130469639Y-125794928D01*
X130444442Y-125802571D01*
X130394050Y-125817858D01*
X130354775Y-125821726D01*
X130335139Y-125823660D01*
X129195741Y-125823660D01*
X129176105Y-125821726D01*
X129136830Y-125817858D01*
X129086438Y-125802571D01*
X129061241Y-125794928D01*
X128991580Y-125757693D01*
X128930518Y-125707582D01*
X128880407Y-125646520D01*
X128843172Y-125576859D01*
X128823455Y-125511860D01*
X128820242Y-125501270D01*
X128812500Y-125422660D01*
X128820242Y-125344050D01*
X128843172Y-125268462D01*
X128843172Y-125268461D01*
X128880407Y-125198800D01*
X128930518Y-125137738D01*
X128991580Y-125087627D01*
X129061241Y-125050392D01*
X129086438Y-125042749D01*
X129136830Y-125027462D01*
X129176105Y-125023594D01*
X129195741Y-125021660D01*
X130335139Y-125021660D01*
X130354775Y-125023594D01*
X130354775Y-125023594D01*
G37*
G36*
X135554775Y-125023594D02*
X135594050Y-125027462D01*
X135644442Y-125042749D01*
X135669639Y-125050392D01*
X135739300Y-125087627D01*
X135800362Y-125137738D01*
X135850473Y-125198800D01*
X135887708Y-125268461D01*
X135887708Y-125268462D01*
X135910638Y-125344050D01*
X135918380Y-125422660D01*
X135910638Y-125501270D01*
X135907425Y-125511860D01*
X135887708Y-125576859D01*
X135850473Y-125646520D01*
X135800362Y-125707582D01*
X135739300Y-125757693D01*
X135669639Y-125794928D01*
X135644442Y-125802571D01*
X135594050Y-125817858D01*
X135554775Y-125821726D01*
X135535139Y-125823660D01*
X134395741Y-125823660D01*
X134376105Y-125821726D01*
X134336830Y-125817858D01*
X134286438Y-125802571D01*
X134261241Y-125794928D01*
X134191580Y-125757693D01*
X134130518Y-125707582D01*
X134080407Y-125646520D01*
X134043172Y-125576859D01*
X134023455Y-125511860D01*
X134020242Y-125501270D01*
X134012500Y-125422660D01*
X134020242Y-125344050D01*
X134043172Y-125268462D01*
X134043172Y-125268461D01*
X134080407Y-125198800D01*
X134130518Y-125137738D01*
X134191580Y-125087627D01*
X134261241Y-125050392D01*
X134286438Y-125042749D01*
X134336830Y-125027462D01*
X134376105Y-125023594D01*
X134395741Y-125021660D01*
X135535139Y-125021660D01*
X135554775Y-125023594D01*
X135554775Y-125023594D01*
G37*
G36*
X127584180Y-125738000D02*
X126502180Y-125738000D01*
X126502180Y-124706000D01*
X127584180Y-124706000D01*
X127584180Y-125738000D01*
X127584180Y-125738000D01*
G37*
G36*
X152986607Y-123775381D02*
X153066236Y-123783224D01*
X153168403Y-123814216D01*
X153219488Y-123829712D01*
X153360725Y-123905205D01*
X153484519Y-124006801D01*
X153586115Y-124130595D01*
X153661608Y-124271832D01*
X153661608Y-124271833D01*
X153708096Y-124425084D01*
X153723793Y-124584460D01*
X153708096Y-124743836D01*
X153698672Y-124774902D01*
X153661608Y-124897088D01*
X153586115Y-125038325D01*
X153484519Y-125162119D01*
X153360725Y-125263715D01*
X153219488Y-125339208D01*
X153168403Y-125354704D01*
X153066236Y-125385696D01*
X152986607Y-125393539D01*
X152946794Y-125397460D01*
X151390926Y-125397460D01*
X151351113Y-125393539D01*
X151271484Y-125385696D01*
X151169317Y-125354704D01*
X151118232Y-125339208D01*
X150976995Y-125263715D01*
X150853201Y-125162119D01*
X150751605Y-125038325D01*
X150676112Y-124897088D01*
X150639048Y-124774902D01*
X150629624Y-124743836D01*
X150613927Y-124584460D01*
X150629624Y-124425084D01*
X150676112Y-124271833D01*
X150676112Y-124271832D01*
X150751605Y-124130595D01*
X150853201Y-124006801D01*
X150976995Y-123905205D01*
X151118232Y-123829712D01*
X151169317Y-123814216D01*
X151271484Y-123783224D01*
X151351113Y-123775381D01*
X151390926Y-123771460D01*
X152946794Y-123771460D01*
X152986607Y-123775381D01*
X152986607Y-123775381D01*
G37*
G36*
X130354775Y-123753594D02*
X130394050Y-123757462D01*
X130440194Y-123771460D01*
X130469639Y-123780392D01*
X130539300Y-123817627D01*
X130600362Y-123867738D01*
X130650473Y-123928800D01*
X130687708Y-123998461D01*
X130687708Y-123998462D01*
X130710638Y-124074050D01*
X130718380Y-124152660D01*
X130710638Y-124231270D01*
X130698333Y-124271832D01*
X130687708Y-124306859D01*
X130650473Y-124376520D01*
X130600362Y-124437582D01*
X130539300Y-124487693D01*
X130469639Y-124524928D01*
X130444442Y-124532571D01*
X130394050Y-124547858D01*
X130354775Y-124551726D01*
X130335139Y-124553660D01*
X129195741Y-124553660D01*
X129176105Y-124551726D01*
X129136830Y-124547858D01*
X129086438Y-124532571D01*
X129061241Y-124524928D01*
X128991580Y-124487693D01*
X128930518Y-124437582D01*
X128880407Y-124376520D01*
X128843172Y-124306859D01*
X128832547Y-124271832D01*
X128820242Y-124231270D01*
X128812500Y-124152660D01*
X128820242Y-124074050D01*
X128843172Y-123998462D01*
X128843172Y-123998461D01*
X128880407Y-123928800D01*
X128930518Y-123867738D01*
X128991580Y-123817627D01*
X129061241Y-123780392D01*
X129090686Y-123771460D01*
X129136830Y-123757462D01*
X129176105Y-123753594D01*
X129195741Y-123751660D01*
X130335139Y-123751660D01*
X130354775Y-123753594D01*
X130354775Y-123753594D01*
G37*
G36*
X135554775Y-123753594D02*
X135594050Y-123757462D01*
X135640194Y-123771460D01*
X135669639Y-123780392D01*
X135739300Y-123817627D01*
X135800362Y-123867738D01*
X135850473Y-123928800D01*
X135887708Y-123998461D01*
X135887708Y-123998462D01*
X135910638Y-124074050D01*
X135918380Y-124152660D01*
X135910638Y-124231270D01*
X135898333Y-124271832D01*
X135887708Y-124306859D01*
X135850473Y-124376520D01*
X135800362Y-124437582D01*
X135739300Y-124487693D01*
X135669639Y-124524928D01*
X135644442Y-124532571D01*
X135594050Y-124547858D01*
X135554775Y-124551726D01*
X135535139Y-124553660D01*
X134395741Y-124553660D01*
X134376105Y-124551726D01*
X134336830Y-124547858D01*
X134286438Y-124532571D01*
X134261241Y-124524928D01*
X134191580Y-124487693D01*
X134130518Y-124437582D01*
X134080407Y-124376520D01*
X134043172Y-124306859D01*
X134032547Y-124271832D01*
X134020242Y-124231270D01*
X134012500Y-124152660D01*
X134020242Y-124074050D01*
X134043172Y-123998462D01*
X134043172Y-123998461D01*
X134080407Y-123928800D01*
X134130518Y-123867738D01*
X134191580Y-123817627D01*
X134261241Y-123780392D01*
X134290686Y-123771460D01*
X134336830Y-123757462D01*
X134376105Y-123753594D01*
X134395741Y-123751660D01*
X135535139Y-123751660D01*
X135554775Y-123753594D01*
X135554775Y-123753594D01*
G37*
G36*
X127584180Y-124198000D02*
X126502180Y-124198000D01*
X126502180Y-123166000D01*
X127584180Y-123166000D01*
X127584180Y-124198000D01*
X127584180Y-124198000D01*
G37*
G36*
X135554775Y-122483594D02*
X135594050Y-122487462D01*
X135644442Y-122502749D01*
X135669639Y-122510392D01*
X135739300Y-122547627D01*
X135800362Y-122597738D01*
X135850473Y-122658800D01*
X135887708Y-122728461D01*
X135887708Y-122728462D01*
X135910638Y-122804050D01*
X135918380Y-122882660D01*
X135910638Y-122961270D01*
X135895351Y-123011662D01*
X135887708Y-123036859D01*
X135850473Y-123106520D01*
X135800362Y-123167582D01*
X135739300Y-123217693D01*
X135669639Y-123254928D01*
X135644442Y-123262571D01*
X135594050Y-123277858D01*
X135554775Y-123281726D01*
X135535139Y-123283660D01*
X134395741Y-123283660D01*
X134376105Y-123281726D01*
X134336830Y-123277858D01*
X134286438Y-123262571D01*
X134261241Y-123254928D01*
X134191580Y-123217693D01*
X134130518Y-123167582D01*
X134080407Y-123106520D01*
X134043172Y-123036859D01*
X134035529Y-123011662D01*
X134020242Y-122961270D01*
X134012500Y-122882660D01*
X134020242Y-122804050D01*
X134043172Y-122728462D01*
X134043172Y-122728461D01*
X134080407Y-122658800D01*
X134130518Y-122597738D01*
X134191580Y-122547627D01*
X134261241Y-122510392D01*
X134286438Y-122502749D01*
X134336830Y-122487462D01*
X134376105Y-122483594D01*
X134395741Y-122481660D01*
X135535139Y-122481660D01*
X135554775Y-122483594D01*
X135554775Y-122483594D01*
G37*
G36*
X130354775Y-122483594D02*
X130394050Y-122487462D01*
X130444442Y-122502749D01*
X130469639Y-122510392D01*
X130539300Y-122547627D01*
X130600362Y-122597738D01*
X130650473Y-122658800D01*
X130687708Y-122728461D01*
X130687708Y-122728462D01*
X130710638Y-122804050D01*
X130718380Y-122882660D01*
X130710638Y-122961270D01*
X130695351Y-123011662D01*
X130687708Y-123036859D01*
X130650473Y-123106520D01*
X130600362Y-123167582D01*
X130539300Y-123217693D01*
X130469639Y-123254928D01*
X130444442Y-123262571D01*
X130394050Y-123277858D01*
X130354775Y-123281726D01*
X130335139Y-123283660D01*
X129195741Y-123283660D01*
X129176105Y-123281726D01*
X129136830Y-123277858D01*
X129086438Y-123262571D01*
X129061241Y-123254928D01*
X128991580Y-123217693D01*
X128930518Y-123167582D01*
X128880407Y-123106520D01*
X128843172Y-123036859D01*
X128835529Y-123011662D01*
X128820242Y-122961270D01*
X128812500Y-122882660D01*
X128820242Y-122804050D01*
X128843172Y-122728462D01*
X128843172Y-122728461D01*
X128880407Y-122658800D01*
X128930518Y-122597738D01*
X128991580Y-122547627D01*
X129061241Y-122510392D01*
X129086438Y-122502749D01*
X129136830Y-122487462D01*
X129176105Y-122483594D01*
X129195741Y-122481660D01*
X130335139Y-122481660D01*
X130354775Y-122483594D01*
X130354775Y-122483594D01*
G37*
G36*
X152986607Y-121235381D02*
X153066236Y-121243224D01*
X153168403Y-121274216D01*
X153219488Y-121289712D01*
X153360725Y-121365205D01*
X153484519Y-121466801D01*
X153586115Y-121590595D01*
X153661608Y-121731832D01*
X153661608Y-121731833D01*
X153708096Y-121885084D01*
X153723793Y-122044460D01*
X153708096Y-122203836D01*
X153677104Y-122306003D01*
X153661608Y-122357088D01*
X153586115Y-122498325D01*
X153484519Y-122622119D01*
X153360725Y-122723715D01*
X153219488Y-122799208D01*
X153168403Y-122814704D01*
X153066236Y-122845696D01*
X152986607Y-122853539D01*
X152946794Y-122857460D01*
X151390926Y-122857460D01*
X151351113Y-122853539D01*
X151271484Y-122845696D01*
X151169317Y-122814704D01*
X151118232Y-122799208D01*
X150976995Y-122723715D01*
X150853201Y-122622119D01*
X150751605Y-122498325D01*
X150676112Y-122357088D01*
X150660616Y-122306003D01*
X150629624Y-122203836D01*
X150613927Y-122044460D01*
X150629624Y-121885084D01*
X150676112Y-121731833D01*
X150676112Y-121731832D01*
X150751605Y-121590595D01*
X150853201Y-121466801D01*
X150976995Y-121365205D01*
X151118232Y-121289712D01*
X151169317Y-121274216D01*
X151271484Y-121243224D01*
X151351113Y-121235381D01*
X151390926Y-121231460D01*
X152946794Y-121231460D01*
X152986607Y-121235381D01*
X152986607Y-121235381D01*
G37*
G36*
X135554775Y-121213594D02*
X135594050Y-121217462D01*
X135640194Y-121231460D01*
X135669639Y-121240392D01*
X135739300Y-121277627D01*
X135800362Y-121327738D01*
X135850473Y-121388800D01*
X135887708Y-121458461D01*
X135887708Y-121458462D01*
X135910638Y-121534050D01*
X135918380Y-121612660D01*
X135910638Y-121691270D01*
X135898333Y-121731832D01*
X135887708Y-121766859D01*
X135850473Y-121836520D01*
X135800362Y-121897582D01*
X135739300Y-121947693D01*
X135669639Y-121984928D01*
X135644442Y-121992571D01*
X135594050Y-122007858D01*
X135554775Y-122011726D01*
X135535139Y-122013660D01*
X134395741Y-122013660D01*
X134376105Y-122011726D01*
X134336830Y-122007858D01*
X134286438Y-121992571D01*
X134261241Y-121984928D01*
X134191580Y-121947693D01*
X134130518Y-121897582D01*
X134080407Y-121836520D01*
X134043172Y-121766859D01*
X134032547Y-121731832D01*
X134020242Y-121691270D01*
X134012500Y-121612660D01*
X134020242Y-121534050D01*
X134043172Y-121458462D01*
X134043172Y-121458461D01*
X134080407Y-121388800D01*
X134130518Y-121327738D01*
X134191580Y-121277627D01*
X134261241Y-121240392D01*
X134290686Y-121231460D01*
X134336830Y-121217462D01*
X134376105Y-121213594D01*
X134395741Y-121211660D01*
X135535139Y-121211660D01*
X135554775Y-121213594D01*
X135554775Y-121213594D01*
G37*
G36*
X130354775Y-121213594D02*
X130394050Y-121217462D01*
X130440194Y-121231460D01*
X130469639Y-121240392D01*
X130539300Y-121277627D01*
X130600362Y-121327738D01*
X130650473Y-121388800D01*
X130687708Y-121458461D01*
X130687708Y-121458462D01*
X130710638Y-121534050D01*
X130718380Y-121612660D01*
X130710638Y-121691270D01*
X130698333Y-121731832D01*
X130687708Y-121766859D01*
X130650473Y-121836520D01*
X130600362Y-121897582D01*
X130539300Y-121947693D01*
X130469639Y-121984928D01*
X130444442Y-121992571D01*
X130394050Y-122007858D01*
X130354775Y-122011726D01*
X130335139Y-122013660D01*
X129195741Y-122013660D01*
X129176105Y-122011726D01*
X129136830Y-122007858D01*
X129086438Y-121992571D01*
X129061241Y-121984928D01*
X128991580Y-121947693D01*
X128930518Y-121897582D01*
X128880407Y-121836520D01*
X128843172Y-121766859D01*
X128832547Y-121731832D01*
X128820242Y-121691270D01*
X128812500Y-121612660D01*
X128820242Y-121534050D01*
X128843172Y-121458462D01*
X128843172Y-121458461D01*
X128880407Y-121388800D01*
X128930518Y-121327738D01*
X128991580Y-121277627D01*
X129061241Y-121240392D01*
X129090686Y-121231460D01*
X129136830Y-121217462D01*
X129176105Y-121213594D01*
X129195741Y-121211660D01*
X130335139Y-121211660D01*
X130354775Y-121213594D01*
X130354775Y-121213594D01*
G37*
G36*
X114016560Y-118192185D02*
X114261800Y-118266578D01*
X114261802Y-118266579D01*
X114487816Y-118387386D01*
X114685917Y-118549963D01*
X114848494Y-118748064D01*
X114848495Y-118748066D01*
X114969302Y-118974080D01*
X115043695Y-119219320D01*
X115062520Y-119410455D01*
X115062520Y-120538265D01*
X115043695Y-120729400D01*
X114969302Y-120974640D01*
X114848495Y-121200654D01*
X114834701Y-121217462D01*
X114685916Y-121398757D01*
X114487815Y-121561334D01*
X114433070Y-121590596D01*
X114261799Y-121682142D01*
X114016559Y-121756535D01*
X113761520Y-121781654D01*
X113506480Y-121756535D01*
X113261240Y-121682142D01*
X113035226Y-121561335D01*
X112974941Y-121511860D01*
X112837123Y-121398756D01*
X112674546Y-121200655D01*
X112553739Y-120974641D01*
X112553738Y-120974639D01*
X112479345Y-120729399D01*
X112460520Y-120538264D01*
X112460520Y-119410455D01*
X112479345Y-119219320D01*
X112553738Y-118974080D01*
X112674545Y-118748066D01*
X112689122Y-118730304D01*
X112837124Y-118549963D01*
X113035225Y-118387386D01*
X113261239Y-118266579D01*
X113261241Y-118266578D01*
X113506481Y-118192185D01*
X113761520Y-118167066D01*
X114016560Y-118192185D01*
X114016560Y-118192185D01*
G37*
G36*
X146293760Y-119436860D02*
X140441760Y-119436860D01*
X140441760Y-118034860D01*
X146293760Y-118034860D01*
X146293760Y-119436860D01*
X146293760Y-119436860D01*
G37*
G36*
X127059065Y-115363449D02*
X127250334Y-115442675D01*
X127422476Y-115557697D01*
X127568863Y-115704084D01*
X127683885Y-115876226D01*
X127763111Y-116067495D01*
X127803500Y-116270544D01*
X127803500Y-116477576D01*
X127763111Y-116680625D01*
X127683885Y-116871894D01*
X127568863Y-117044036D01*
X127422476Y-117190423D01*
X127250334Y-117305445D01*
X127059065Y-117384671D01*
X126856016Y-117425060D01*
X126648984Y-117425060D01*
X126445935Y-117384671D01*
X126254666Y-117305445D01*
X126082524Y-117190423D01*
X125936137Y-117044036D01*
X125821115Y-116871894D01*
X125741889Y-116680625D01*
X125701500Y-116477576D01*
X125701500Y-116270544D01*
X125741889Y-116067495D01*
X125821115Y-115876226D01*
X125936137Y-115704084D01*
X126082524Y-115557697D01*
X126254666Y-115442675D01*
X126445935Y-115363449D01*
X126648984Y-115323060D01*
X126856016Y-115323060D01*
X127059065Y-115363449D01*
X127059065Y-115363449D01*
G37*
G36*
X119439065Y-115363449D02*
X119630334Y-115442675D01*
X119802476Y-115557697D01*
X119948863Y-115704084D01*
X120063885Y-115876226D01*
X120143111Y-116067495D01*
X120183500Y-116270544D01*
X120183500Y-116477576D01*
X120143111Y-116680625D01*
X120063885Y-116871894D01*
X119948863Y-117044036D01*
X119802476Y-117190423D01*
X119630334Y-117305445D01*
X119439065Y-117384671D01*
X119236016Y-117425060D01*
X119028984Y-117425060D01*
X118825935Y-117384671D01*
X118634666Y-117305445D01*
X118462524Y-117190423D01*
X118316137Y-117044036D01*
X118201115Y-116871894D01*
X118121889Y-116680625D01*
X118081500Y-116477576D01*
X118081500Y-116270544D01*
X118121889Y-116067495D01*
X118201115Y-115876226D01*
X118316137Y-115704084D01*
X118462524Y-115557697D01*
X118634666Y-115442675D01*
X118825935Y-115363449D01*
X119028984Y-115323060D01*
X119236016Y-115323060D01*
X119439065Y-115363449D01*
X119439065Y-115363449D01*
G37*
G36*
X124519065Y-115363449D02*
X124710334Y-115442675D01*
X124882476Y-115557697D01*
X125028863Y-115704084D01*
X125143885Y-115876226D01*
X125223111Y-116067495D01*
X125263500Y-116270544D01*
X125263500Y-116477576D01*
X125223111Y-116680625D01*
X125143885Y-116871894D01*
X125028863Y-117044036D01*
X124882476Y-117190423D01*
X124710334Y-117305445D01*
X124519065Y-117384671D01*
X124316016Y-117425060D01*
X124108984Y-117425060D01*
X123905935Y-117384671D01*
X123714666Y-117305445D01*
X123542524Y-117190423D01*
X123396137Y-117044036D01*
X123281115Y-116871894D01*
X123201889Y-116680625D01*
X123161500Y-116477576D01*
X123161500Y-116270544D01*
X123201889Y-116067495D01*
X123281115Y-115876226D01*
X123396137Y-115704084D01*
X123542524Y-115557697D01*
X123714666Y-115442675D01*
X123905935Y-115363449D01*
X124108984Y-115323060D01*
X124316016Y-115323060D01*
X124519065Y-115363449D01*
X124519065Y-115363449D01*
G37*
G36*
X134679065Y-115363449D02*
X134870334Y-115442675D01*
X135042476Y-115557697D01*
X135188863Y-115704084D01*
X135303885Y-115876226D01*
X135383111Y-116067495D01*
X135423500Y-116270544D01*
X135423500Y-116477576D01*
X135383111Y-116680625D01*
X135303885Y-116871894D01*
X135188863Y-117044036D01*
X135042476Y-117190423D01*
X134870334Y-117305445D01*
X134679065Y-117384671D01*
X134476016Y-117425060D01*
X134268984Y-117425060D01*
X134065935Y-117384671D01*
X133874666Y-117305445D01*
X133702524Y-117190423D01*
X133556137Y-117044036D01*
X133441115Y-116871894D01*
X133361889Y-116680625D01*
X133321500Y-116477576D01*
X133321500Y-116270544D01*
X133361889Y-116067495D01*
X133441115Y-115876226D01*
X133556137Y-115704084D01*
X133702524Y-115557697D01*
X133874666Y-115442675D01*
X134065935Y-115363449D01*
X134268984Y-115323060D01*
X134476016Y-115323060D01*
X134679065Y-115363449D01*
X134679065Y-115363449D01*
G37*
G36*
X137219065Y-115363449D02*
X137410334Y-115442675D01*
X137582476Y-115557697D01*
X137728863Y-115704084D01*
X137843885Y-115876226D01*
X137923111Y-116067495D01*
X137963500Y-116270544D01*
X137963500Y-116477576D01*
X137923111Y-116680625D01*
X137843885Y-116871894D01*
X137728863Y-117044036D01*
X137582476Y-117190423D01*
X137410334Y-117305445D01*
X137219065Y-117384671D01*
X137016016Y-117425060D01*
X136808984Y-117425060D01*
X136605935Y-117384671D01*
X136414666Y-117305445D01*
X136242524Y-117190423D01*
X136096137Y-117044036D01*
X135981115Y-116871894D01*
X135901889Y-116680625D01*
X135861500Y-116477576D01*
X135861500Y-116270544D01*
X135901889Y-116067495D01*
X135981115Y-115876226D01*
X136096137Y-115704084D01*
X136242524Y-115557697D01*
X136414666Y-115442675D01*
X136605935Y-115363449D01*
X136808984Y-115323060D01*
X137016016Y-115323060D01*
X137219065Y-115363449D01*
X137219065Y-115363449D01*
G37*
G36*
X149725760Y-116095760D02*
X148693760Y-116095760D01*
X148693760Y-115013760D01*
X149725760Y-115013760D01*
X149725760Y-116095760D01*
X149725760Y-116095760D01*
G37*
G36*
X148185760Y-116095760D02*
X147153760Y-116095760D01*
X147153760Y-115013760D01*
X148185760Y-115013760D01*
X148185760Y-116095760D01*
X148185760Y-116095760D01*
G37*
G36*
X140898860Y-116091460D02*
X139816860Y-116091460D01*
X139816860Y-115059460D01*
X140898860Y-115059460D01*
X140898860Y-116091460D01*
X140898860Y-116091460D01*
G37*
G36*
X142714960Y-116083460D02*
X141632960Y-116083460D01*
X141632960Y-115051460D01*
X142714960Y-115051460D01*
X142714960Y-116083460D01*
X142714960Y-116083460D01*
G37*
G36*
X146397960Y-116070760D02*
X145315960Y-116070760D01*
X145315960Y-115038760D01*
X146397960Y-115038760D01*
X146397960Y-116070760D01*
X146397960Y-116070760D01*
G37*
G36*
X144543760Y-116070760D02*
X143461760Y-116070760D01*
X143461760Y-115038760D01*
X144543760Y-115038760D01*
X144543760Y-116070760D01*
X144543760Y-116070760D01*
G37*
G36*
X115114889Y-112927506D02*
X115258240Y-112941625D01*
X115503480Y-113016018D01*
X115503482Y-113016019D01*
X115729496Y-113136826D01*
X115927597Y-113299403D01*
X116090174Y-113497504D01*
X116090175Y-113497506D01*
X116210982Y-113723520D01*
X116285375Y-113968760D01*
X116310494Y-114223800D01*
X116285375Y-114478840D01*
X116210982Y-114724080D01*
X116210981Y-114724082D01*
X116090174Y-114950096D01*
X115927597Y-115148197D01*
X115729496Y-115310774D01*
X115630948Y-115363449D01*
X115503480Y-115431582D01*
X115258240Y-115505975D01*
X115114889Y-115520094D01*
X115067106Y-115524800D01*
X113939294Y-115524800D01*
X113891511Y-115520094D01*
X113748160Y-115505975D01*
X113502920Y-115431582D01*
X113375452Y-115363449D01*
X113276904Y-115310774D01*
X113078803Y-115148197D01*
X112916226Y-114950096D01*
X112795419Y-114724082D01*
X112795418Y-114724080D01*
X112721025Y-114478840D01*
X112695906Y-114223800D01*
X112721025Y-113968760D01*
X112795418Y-113723520D01*
X112916225Y-113497506D01*
X112916226Y-113497504D01*
X113078803Y-113299403D01*
X113276904Y-113136826D01*
X113502918Y-113016019D01*
X113502920Y-113016018D01*
X113748160Y-112941625D01*
X113891511Y-112927506D01*
X113939294Y-112922800D01*
X115067106Y-112922800D01*
X115114889Y-112927506D01*
X115114889Y-112927506D01*
G37*
G36*
X140898860Y-114551460D02*
X139816860Y-114551460D01*
X139816860Y-113519460D01*
X140898860Y-113519460D01*
X140898860Y-114551460D01*
X140898860Y-114551460D01*
G37*
G36*
X142714960Y-114543460D02*
X141632960Y-114543460D01*
X141632960Y-113511460D01*
X142714960Y-113511460D01*
X142714960Y-114543460D01*
X142714960Y-114543460D01*
G37*
G36*
X144543760Y-114530760D02*
X143461760Y-114530760D01*
X143461760Y-113498760D01*
X144543760Y-113498760D01*
X144543760Y-114530760D01*
X144543760Y-114530760D01*
G37*
G36*
X146397960Y-114530760D02*
X145315960Y-114530760D01*
X145315960Y-113498760D01*
X146397960Y-113498760D01*
X146397960Y-114530760D01*
X146397960Y-114530760D01*
G37*
G36*
X149741760Y-114254260D02*
X148709760Y-114254260D01*
X148709760Y-113172260D01*
X149741760Y-113172260D01*
X149741760Y-114254260D01*
X149741760Y-114254260D01*
G37*
G36*
X148201760Y-114254260D02*
X147169760Y-114254260D01*
X147169760Y-113172260D01*
X148201760Y-113172260D01*
X148201760Y-114254260D01*
X148201760Y-114254260D01*
G37*
G36*
X161493273Y-111681285D02*
X161568316Y-111704050D01*
X161578285Y-111707074D01*
X161656634Y-111748953D01*
X161725308Y-111805312D01*
X161781667Y-111873986D01*
X161823546Y-111952335D01*
X161823547Y-111952339D01*
X161849335Y-112037347D01*
X161858042Y-112125760D01*
X161849335Y-112214173D01*
X161826570Y-112289216D01*
X161823546Y-112299185D01*
X161781667Y-112377534D01*
X161725308Y-112446208D01*
X161656634Y-112502567D01*
X161578285Y-112544446D01*
X161568316Y-112547470D01*
X161493273Y-112570235D01*
X161427018Y-112576760D01*
X160182702Y-112576760D01*
X160116447Y-112570235D01*
X160041404Y-112547470D01*
X160031435Y-112544446D01*
X159953086Y-112502567D01*
X159884412Y-112446208D01*
X159828053Y-112377534D01*
X159786174Y-112299185D01*
X159783150Y-112289216D01*
X159760385Y-112214173D01*
X159751678Y-112125760D01*
X159760385Y-112037347D01*
X159786173Y-111952339D01*
X159786174Y-111952335D01*
X159828053Y-111873986D01*
X159884412Y-111805312D01*
X159953086Y-111748953D01*
X160031435Y-111707074D01*
X160041404Y-111704050D01*
X160116447Y-111681285D01*
X160182702Y-111674760D01*
X161427018Y-111674760D01*
X161493273Y-111681285D01*
X161493273Y-111681285D01*
G37*
G36*
X149741760Y-112400060D02*
X148709760Y-112400060D01*
X148709760Y-111318060D01*
X149741760Y-111318060D01*
X149741760Y-112400060D01*
X149741760Y-112400060D01*
G37*
G36*
X148201760Y-112400060D02*
X147169760Y-112400060D01*
X147169760Y-111318060D01*
X148201760Y-111318060D01*
X148201760Y-112400060D01*
X148201760Y-112400060D01*
G37*
G36*
X144861260Y-112222660D02*
X143779260Y-112222660D01*
X143779260Y-111190660D01*
X144861260Y-111190660D01*
X144861260Y-112222660D01*
X144861260Y-112222660D01*
G37*
G36*
X143007060Y-112222660D02*
X141925060Y-112222660D01*
X141925060Y-111190660D01*
X143007060Y-111190660D01*
X143007060Y-112222660D01*
X143007060Y-112222660D01*
G37*
G36*
X146766260Y-112209960D02*
X145684260Y-112209960D01*
X145684260Y-111177960D01*
X146766260Y-111177960D01*
X146766260Y-112209960D01*
X146766260Y-112209960D01*
G37*
G36*
X141083860Y-112175060D02*
X139631860Y-112175060D01*
X139631860Y-110273060D01*
X141083860Y-110273060D01*
X141083860Y-112175060D01*
X141083860Y-112175060D01*
G37*
G36*
X124548125Y-109555589D02*
X124739394Y-109634815D01*
X124911536Y-109749837D01*
X125057923Y-109896224D01*
X125172945Y-110068366D01*
X125252171Y-110259635D01*
X125292560Y-110462684D01*
X125292560Y-110669716D01*
X125252171Y-110872765D01*
X125172945Y-111064034D01*
X125057923Y-111236176D01*
X124911536Y-111382563D01*
X124739394Y-111497585D01*
X124548125Y-111576811D01*
X124345076Y-111617200D01*
X124138044Y-111617200D01*
X123934995Y-111576811D01*
X123743726Y-111497585D01*
X123571584Y-111382563D01*
X123425197Y-111236176D01*
X123310175Y-111064034D01*
X123230949Y-110872765D01*
X123190560Y-110669716D01*
X123190560Y-110462684D01*
X123230949Y-110259635D01*
X123310175Y-110068366D01*
X123425197Y-109896224D01*
X123571584Y-109749837D01*
X123743726Y-109634815D01*
X123934995Y-109555589D01*
X124138044Y-109515200D01*
X124345076Y-109515200D01*
X124548125Y-109555589D01*
X124548125Y-109555589D01*
G37*
G36*
X119468125Y-109555589D02*
X119659394Y-109634815D01*
X119831536Y-109749837D01*
X119977923Y-109896224D01*
X120092945Y-110068366D01*
X120172171Y-110259635D01*
X120212560Y-110462684D01*
X120212560Y-110669716D01*
X120172171Y-110872765D01*
X120092945Y-111064034D01*
X119977923Y-111236176D01*
X119831536Y-111382563D01*
X119659394Y-111497585D01*
X119468125Y-111576811D01*
X119265076Y-111617200D01*
X119058044Y-111617200D01*
X118854995Y-111576811D01*
X118663726Y-111497585D01*
X118491584Y-111382563D01*
X118345197Y-111236176D01*
X118230175Y-111064034D01*
X118150949Y-110872765D01*
X118110560Y-110669716D01*
X118110560Y-110462684D01*
X118150949Y-110259635D01*
X118230175Y-110068366D01*
X118345197Y-109896224D01*
X118491584Y-109749837D01*
X118663726Y-109634815D01*
X118854995Y-109555589D01*
X119058044Y-109515200D01*
X119265076Y-109515200D01*
X119468125Y-109555589D01*
X119468125Y-109555589D01*
G37*
G36*
X134708125Y-109555589D02*
X134899394Y-109634815D01*
X135071536Y-109749837D01*
X135217923Y-109896224D01*
X135332945Y-110068366D01*
X135412171Y-110259635D01*
X135452560Y-110462684D01*
X135452560Y-110669716D01*
X135412171Y-110872765D01*
X135332945Y-111064034D01*
X135217923Y-111236176D01*
X135071536Y-111382563D01*
X134899394Y-111497585D01*
X134708125Y-111576811D01*
X134505076Y-111617200D01*
X134298044Y-111617200D01*
X134094995Y-111576811D01*
X133903726Y-111497585D01*
X133731584Y-111382563D01*
X133585197Y-111236176D01*
X133470175Y-111064034D01*
X133390949Y-110872765D01*
X133350560Y-110669716D01*
X133350560Y-110462684D01*
X133390949Y-110259635D01*
X133470175Y-110068366D01*
X133585197Y-109896224D01*
X133731584Y-109749837D01*
X133903726Y-109634815D01*
X134094995Y-109555589D01*
X134298044Y-109515200D01*
X134505076Y-109515200D01*
X134708125Y-109555589D01*
X134708125Y-109555589D01*
G37*
G36*
X127088125Y-109555589D02*
X127279394Y-109634815D01*
X127451536Y-109749837D01*
X127597923Y-109896224D01*
X127712945Y-110068366D01*
X127792171Y-110259635D01*
X127832560Y-110462684D01*
X127832560Y-110669716D01*
X127792171Y-110872765D01*
X127712945Y-111064034D01*
X127597923Y-111236176D01*
X127451536Y-111382563D01*
X127279394Y-111497585D01*
X127088125Y-111576811D01*
X126885076Y-111617200D01*
X126678044Y-111617200D01*
X126474995Y-111576811D01*
X126283726Y-111497585D01*
X126111584Y-111382563D01*
X125965197Y-111236176D01*
X125850175Y-111064034D01*
X125770949Y-110872765D01*
X125730560Y-110669716D01*
X125730560Y-110462684D01*
X125770949Y-110259635D01*
X125850175Y-110068366D01*
X125965197Y-109896224D01*
X126111584Y-109749837D01*
X126283726Y-109634815D01*
X126474995Y-109555589D01*
X126678044Y-109515200D01*
X126885076Y-109515200D01*
X127088125Y-109555589D01*
X127088125Y-109555589D01*
G37*
G36*
X137248125Y-109555589D02*
X137439394Y-109634815D01*
X137611536Y-109749837D01*
X137757923Y-109896224D01*
X137872945Y-110068366D01*
X137952171Y-110259635D01*
X137992560Y-110462684D01*
X137992560Y-110669716D01*
X137952171Y-110872765D01*
X137872945Y-111064034D01*
X137757923Y-111236176D01*
X137611536Y-111382563D01*
X137439394Y-111497585D01*
X137248125Y-111576811D01*
X137045076Y-111617200D01*
X136838044Y-111617200D01*
X136634995Y-111576811D01*
X136443726Y-111497585D01*
X136271584Y-111382563D01*
X136125197Y-111236176D01*
X136010175Y-111064034D01*
X135930949Y-110872765D01*
X135890560Y-110669716D01*
X135890560Y-110462684D01*
X135930949Y-110259635D01*
X136010175Y-110068366D01*
X136125197Y-109896224D01*
X136271584Y-109749837D01*
X136443726Y-109634815D01*
X136634995Y-109555589D01*
X136838044Y-109515200D01*
X137045076Y-109515200D01*
X137248125Y-109555589D01*
X137248125Y-109555589D01*
G37*
G36*
X161493273Y-110411285D02*
X161568316Y-110434050D01*
X161578285Y-110437074D01*
X161656634Y-110478953D01*
X161725308Y-110535312D01*
X161781667Y-110603986D01*
X161823546Y-110682335D01*
X161826570Y-110692304D01*
X161849335Y-110767347D01*
X161858042Y-110855760D01*
X161849335Y-110944173D01*
X161826570Y-111019216D01*
X161823546Y-111029185D01*
X161781667Y-111107534D01*
X161725308Y-111176208D01*
X161656634Y-111232567D01*
X161578285Y-111274446D01*
X161568316Y-111277470D01*
X161493273Y-111300235D01*
X161427018Y-111306760D01*
X160182702Y-111306760D01*
X160116447Y-111300235D01*
X160041404Y-111277470D01*
X160031435Y-111274446D01*
X159953086Y-111232567D01*
X159884412Y-111176208D01*
X159828053Y-111107534D01*
X159786174Y-111029185D01*
X159783150Y-111019216D01*
X159760385Y-110944173D01*
X159751678Y-110855760D01*
X159760385Y-110767347D01*
X159783150Y-110692304D01*
X159786174Y-110682335D01*
X159828053Y-110603986D01*
X159884412Y-110535312D01*
X159953086Y-110478953D01*
X160031435Y-110437074D01*
X160041404Y-110434050D01*
X160116447Y-110411285D01*
X160182702Y-110404760D01*
X161427018Y-110404760D01*
X161493273Y-110411285D01*
X161493273Y-110411285D01*
G37*
G36*
X144861260Y-110682660D02*
X143779260Y-110682660D01*
X143779260Y-109650660D01*
X144861260Y-109650660D01*
X144861260Y-110682660D01*
X144861260Y-110682660D01*
G37*
G36*
X143007060Y-110682660D02*
X141925060Y-110682660D01*
X141925060Y-109650660D01*
X143007060Y-109650660D01*
X143007060Y-110682660D01*
X143007060Y-110682660D01*
G37*
G36*
X146766260Y-110669960D02*
X145684260Y-110669960D01*
X145684260Y-109637960D01*
X146766260Y-109637960D01*
X146766260Y-110669960D01*
X146766260Y-110669960D01*
G37*
G36*
X148219160Y-110482360D02*
X147187160Y-110482360D01*
X147187160Y-109400360D01*
X148219160Y-109400360D01*
X148219160Y-110482360D01*
X148219160Y-110482360D01*
G37*
G36*
X149759160Y-110482360D02*
X148727160Y-110482360D01*
X148727160Y-109400360D01*
X149759160Y-109400360D01*
X149759160Y-110482360D01*
X149759160Y-110482360D01*
G37*
G36*
X115137749Y-107629066D02*
X115281100Y-107643185D01*
X115526340Y-107717578D01*
X115526342Y-107717579D01*
X115752356Y-107838386D01*
X115950457Y-108000963D01*
X116113034Y-108199064D01*
X116113035Y-108199066D01*
X116233842Y-108425080D01*
X116308235Y-108670320D01*
X116333354Y-108925360D01*
X116308235Y-109180400D01*
X116233842Y-109425640D01*
X116233841Y-109425642D01*
X116113034Y-109651656D01*
X115950457Y-109849757D01*
X115752356Y-110012334D01*
X115526342Y-110133141D01*
X115526340Y-110133142D01*
X115281100Y-110207535D01*
X115137749Y-110221654D01*
X115089966Y-110226360D01*
X113962154Y-110226360D01*
X113914371Y-110221654D01*
X113771020Y-110207535D01*
X113525780Y-110133142D01*
X113525778Y-110133141D01*
X113299764Y-110012334D01*
X113101663Y-109849757D01*
X112939086Y-109651656D01*
X112818279Y-109425642D01*
X112818278Y-109425640D01*
X112743885Y-109180400D01*
X112718766Y-108925360D01*
X112743885Y-108670320D01*
X112818278Y-108425080D01*
X112939085Y-108199066D01*
X112939086Y-108199064D01*
X113101663Y-108000963D01*
X113299764Y-107838386D01*
X113525778Y-107717579D01*
X113525780Y-107717578D01*
X113771020Y-107643185D01*
X113914371Y-107629066D01*
X113962154Y-107624360D01*
X115089966Y-107624360D01*
X115137749Y-107629066D01*
X115137749Y-107629066D01*
G37*
G36*
X161493273Y-109141285D02*
X161568316Y-109164050D01*
X161578285Y-109167074D01*
X161656634Y-109208953D01*
X161725308Y-109265312D01*
X161781667Y-109333986D01*
X161823546Y-109412335D01*
X161823547Y-109412339D01*
X161849335Y-109497347D01*
X161858042Y-109585760D01*
X161849335Y-109674173D01*
X161826570Y-109749216D01*
X161823546Y-109759185D01*
X161781667Y-109837534D01*
X161725308Y-109906208D01*
X161656634Y-109962567D01*
X161578285Y-110004446D01*
X161568316Y-110007470D01*
X161493273Y-110030235D01*
X161427018Y-110036760D01*
X160182702Y-110036760D01*
X160116447Y-110030235D01*
X160041404Y-110007470D01*
X160031435Y-110004446D01*
X159953086Y-109962567D01*
X159884412Y-109906208D01*
X159828053Y-109837534D01*
X159786174Y-109759185D01*
X159783150Y-109749216D01*
X159760385Y-109674173D01*
X159751678Y-109585760D01*
X159760385Y-109497347D01*
X159786173Y-109412339D01*
X159786174Y-109412335D01*
X159828053Y-109333986D01*
X159884412Y-109265312D01*
X159953086Y-109208953D01*
X160031435Y-109167074D01*
X160041404Y-109164050D01*
X160116447Y-109141285D01*
X160182702Y-109134760D01*
X161427018Y-109134760D01*
X161493273Y-109141285D01*
X161493273Y-109141285D01*
G37*
G36*
X141083860Y-109555060D02*
X139631860Y-109555060D01*
X139631860Y-107653060D01*
X141083860Y-107653060D01*
X141083860Y-109555060D01*
X141083860Y-109555060D01*
G37*
G36*
X161493273Y-107871285D02*
X161568316Y-107894050D01*
X161578285Y-107897074D01*
X161656634Y-107938953D01*
X161725308Y-107995312D01*
X161781667Y-108063986D01*
X161823546Y-108142335D01*
X161823547Y-108142339D01*
X161849335Y-108227347D01*
X161858042Y-108315760D01*
X161849335Y-108404173D01*
X161826570Y-108479216D01*
X161823546Y-108489185D01*
X161781667Y-108567534D01*
X161725308Y-108636208D01*
X161656634Y-108692567D01*
X161578285Y-108734446D01*
X161568316Y-108737470D01*
X161493273Y-108760235D01*
X161427018Y-108766760D01*
X160182702Y-108766760D01*
X160116447Y-108760235D01*
X160041404Y-108737470D01*
X160031435Y-108734446D01*
X159953086Y-108692567D01*
X159884412Y-108636208D01*
X159828053Y-108567534D01*
X159786174Y-108489185D01*
X159783150Y-108479216D01*
X159760385Y-108404173D01*
X159751678Y-108315760D01*
X159760385Y-108227347D01*
X159786173Y-108142339D01*
X159786174Y-108142335D01*
X159828053Y-108063986D01*
X159884412Y-107995312D01*
X159953086Y-107938953D01*
X160031435Y-107897074D01*
X160041404Y-107894050D01*
X160116447Y-107871285D01*
X160182702Y-107864760D01*
X161427018Y-107864760D01*
X161493273Y-107871285D01*
X161493273Y-107871285D01*
G37*
G36*
X127073554Y-103820809D02*
X127264823Y-103900035D01*
X127436965Y-104015057D01*
X127583352Y-104161444D01*
X127698374Y-104333586D01*
X127777600Y-104524855D01*
X127817989Y-104727904D01*
X127817989Y-104934936D01*
X127777600Y-105137985D01*
X127698374Y-105329254D01*
X127583352Y-105501396D01*
X127436965Y-105647783D01*
X127264823Y-105762805D01*
X127073554Y-105842031D01*
X126870505Y-105882420D01*
X126663473Y-105882420D01*
X126460424Y-105842031D01*
X126269155Y-105762805D01*
X126097013Y-105647783D01*
X125950626Y-105501396D01*
X125835604Y-105329254D01*
X125756378Y-105137985D01*
X125715989Y-104934936D01*
X125715989Y-104727904D01*
X125756378Y-104524855D01*
X125835604Y-104333586D01*
X125950626Y-104161444D01*
X126097013Y-104015057D01*
X126269155Y-103900035D01*
X126460424Y-103820809D01*
X126663473Y-103780420D01*
X126870505Y-103780420D01*
X127073554Y-103820809D01*
X127073554Y-103820809D01*
G37*
G36*
X119453554Y-103820809D02*
X119644823Y-103900035D01*
X119816965Y-104015057D01*
X119963352Y-104161444D01*
X120078374Y-104333586D01*
X120157600Y-104524855D01*
X120197989Y-104727904D01*
X120197989Y-104934936D01*
X120157600Y-105137985D01*
X120078374Y-105329254D01*
X119963352Y-105501396D01*
X119816965Y-105647783D01*
X119644823Y-105762805D01*
X119453554Y-105842031D01*
X119250505Y-105882420D01*
X119043473Y-105882420D01*
X118840424Y-105842031D01*
X118649155Y-105762805D01*
X118477013Y-105647783D01*
X118330626Y-105501396D01*
X118215604Y-105329254D01*
X118136378Y-105137985D01*
X118095989Y-104934936D01*
X118095989Y-104727904D01*
X118136378Y-104524855D01*
X118215604Y-104333586D01*
X118330626Y-104161444D01*
X118477013Y-104015057D01*
X118649155Y-103900035D01*
X118840424Y-103820809D01*
X119043473Y-103780420D01*
X119250505Y-103780420D01*
X119453554Y-103820809D01*
X119453554Y-103820809D01*
G37*
G36*
X134693554Y-103820809D02*
X134884823Y-103900035D01*
X135056965Y-104015057D01*
X135203352Y-104161444D01*
X135318374Y-104333586D01*
X135397600Y-104524855D01*
X135437989Y-104727904D01*
X135437989Y-104934936D01*
X135397600Y-105137985D01*
X135318374Y-105329254D01*
X135203352Y-105501396D01*
X135056965Y-105647783D01*
X134884823Y-105762805D01*
X134693554Y-105842031D01*
X134490505Y-105882420D01*
X134283473Y-105882420D01*
X134080424Y-105842031D01*
X133889155Y-105762805D01*
X133717013Y-105647783D01*
X133570626Y-105501396D01*
X133455604Y-105329254D01*
X133376378Y-105137985D01*
X133335989Y-104934936D01*
X133335989Y-104727904D01*
X133376378Y-104524855D01*
X133455604Y-104333586D01*
X133570626Y-104161444D01*
X133717013Y-104015057D01*
X133889155Y-103900035D01*
X134080424Y-103820809D01*
X134283473Y-103780420D01*
X134490505Y-103780420D01*
X134693554Y-103820809D01*
X134693554Y-103820809D01*
G37*
G36*
X137233554Y-103820809D02*
X137424823Y-103900035D01*
X137596965Y-104015057D01*
X137743352Y-104161444D01*
X137858374Y-104333586D01*
X137937600Y-104524855D01*
X137977989Y-104727904D01*
X137977989Y-104934936D01*
X137937600Y-105137985D01*
X137858374Y-105329254D01*
X137743352Y-105501396D01*
X137596965Y-105647783D01*
X137424823Y-105762805D01*
X137233554Y-105842031D01*
X137030505Y-105882420D01*
X136823473Y-105882420D01*
X136620424Y-105842031D01*
X136429155Y-105762805D01*
X136257013Y-105647783D01*
X136110626Y-105501396D01*
X135995604Y-105329254D01*
X135916378Y-105137985D01*
X135875989Y-104934936D01*
X135875989Y-104727904D01*
X135916378Y-104524855D01*
X135995604Y-104333586D01*
X136110626Y-104161444D01*
X136257013Y-104015057D01*
X136429155Y-103900035D01*
X136620424Y-103820809D01*
X136823473Y-103780420D01*
X137030505Y-103780420D01*
X137233554Y-103820809D01*
X137233554Y-103820809D01*
G37*
G36*
X124533554Y-103820809D02*
X124724823Y-103900035D01*
X124896965Y-104015057D01*
X125043352Y-104161444D01*
X125158374Y-104333586D01*
X125237600Y-104524855D01*
X125277989Y-104727904D01*
X125277989Y-104934936D01*
X125237600Y-105137985D01*
X125158374Y-105329254D01*
X125043352Y-105501396D01*
X124896965Y-105647783D01*
X124724823Y-105762805D01*
X124533554Y-105842031D01*
X124330505Y-105882420D01*
X124123473Y-105882420D01*
X123920424Y-105842031D01*
X123729155Y-105762805D01*
X123557013Y-105647783D01*
X123410626Y-105501396D01*
X123295604Y-105329254D01*
X123216378Y-105137985D01*
X123175989Y-104934936D01*
X123175989Y-104727904D01*
X123216378Y-104524855D01*
X123295604Y-104333586D01*
X123410626Y-104161444D01*
X123557013Y-104015057D01*
X123729155Y-103900035D01*
X123920424Y-103820809D01*
X124123473Y-103780420D01*
X124330505Y-103780420D01*
X124533554Y-103820809D01*
X124533554Y-103820809D01*
G37*
G36*
X115254589Y-102307766D02*
X115397940Y-102321885D01*
X115643180Y-102396278D01*
X115643182Y-102396279D01*
X115869196Y-102517086D01*
X116067297Y-102679663D01*
X116229874Y-102877764D01*
X116229875Y-102877766D01*
X116350682Y-103103780D01*
X116425075Y-103349020D01*
X116450194Y-103604060D01*
X116425075Y-103859100D01*
X116350682Y-104104340D01*
X116350681Y-104104342D01*
X116229874Y-104330356D01*
X116067297Y-104528457D01*
X115869196Y-104691034D01*
X115869194Y-104691035D01*
X115643180Y-104811842D01*
X115397940Y-104886235D01*
X115254589Y-104900354D01*
X115206806Y-104905060D01*
X114078994Y-104905060D01*
X114031211Y-104900354D01*
X113887860Y-104886235D01*
X113642620Y-104811842D01*
X113416606Y-104691035D01*
X113416604Y-104691034D01*
X113218503Y-104528457D01*
X113055926Y-104330356D01*
X112935119Y-104104342D01*
X112935118Y-104104340D01*
X112860725Y-103859100D01*
X112835606Y-103604060D01*
X112860725Y-103349020D01*
X112935118Y-103103780D01*
X113055925Y-102877766D01*
X113055926Y-102877764D01*
X113218503Y-102679663D01*
X113416604Y-102517086D01*
X113642618Y-102396279D01*
X113642620Y-102396278D01*
X113887860Y-102321885D01*
X114031211Y-102307766D01*
X114078994Y-102303060D01*
X115206806Y-102303060D01*
X115254589Y-102307766D01*
X115254589Y-102307766D01*
G37*
G36*
X139775425Y-101012649D02*
X139966694Y-101091875D01*
X140138836Y-101206897D01*
X140285223Y-101353284D01*
X140400245Y-101525426D01*
X140479471Y-101716695D01*
X140519860Y-101919744D01*
X140519860Y-102126776D01*
X140479471Y-102329825D01*
X140400245Y-102521094D01*
X140285223Y-102693236D01*
X140138836Y-102839623D01*
X139966694Y-102954645D01*
X139775425Y-103033871D01*
X139572376Y-103074260D01*
X139365344Y-103074260D01*
X139162295Y-103033871D01*
X138971026Y-102954645D01*
X138798884Y-102839623D01*
X138652497Y-102693236D01*
X138537475Y-102521094D01*
X138458249Y-102329825D01*
X138417860Y-102126776D01*
X138417860Y-101919744D01*
X138458249Y-101716695D01*
X138537475Y-101525426D01*
X138652497Y-101353284D01*
X138798884Y-101206897D01*
X138971026Y-101091875D01*
X139162295Y-101012649D01*
X139365344Y-100972260D01*
X139572376Y-100972260D01*
X139775425Y-101012649D01*
X139775425Y-101012649D01*
G37*
G36*
X137235425Y-101012649D02*
X137426694Y-101091875D01*
X137598836Y-101206897D01*
X137745223Y-101353284D01*
X137860245Y-101525426D01*
X137939471Y-101716695D01*
X137979860Y-101919744D01*
X137979860Y-102126776D01*
X137939471Y-102329825D01*
X137860245Y-102521094D01*
X137745223Y-102693236D01*
X137598836Y-102839623D01*
X137426694Y-102954645D01*
X137235425Y-103033871D01*
X137032376Y-103074260D01*
X136825344Y-103074260D01*
X136622295Y-103033871D01*
X136431026Y-102954645D01*
X136258884Y-102839623D01*
X136112497Y-102693236D01*
X135997475Y-102521094D01*
X135918249Y-102329825D01*
X135877860Y-102126776D01*
X135877860Y-101919744D01*
X135918249Y-101716695D01*
X135997475Y-101525426D01*
X136112497Y-101353284D01*
X136258884Y-101206897D01*
X136431026Y-101091875D01*
X136622295Y-101012649D01*
X136825344Y-100972260D01*
X137032376Y-100972260D01*
X137235425Y-101012649D01*
X137235425Y-101012649D01*
G37*
G36*
X127075425Y-101012649D02*
X127266694Y-101091875D01*
X127438836Y-101206897D01*
X127585223Y-101353284D01*
X127700245Y-101525426D01*
X127779471Y-101716695D01*
X127819860Y-101919744D01*
X127819860Y-102126776D01*
X127779471Y-102329825D01*
X127700245Y-102521094D01*
X127585223Y-102693236D01*
X127438836Y-102839623D01*
X127266694Y-102954645D01*
X127075425Y-103033871D01*
X126872376Y-103074260D01*
X126665344Y-103074260D01*
X126462295Y-103033871D01*
X126271026Y-102954645D01*
X126098884Y-102839623D01*
X125952497Y-102693236D01*
X125837475Y-102521094D01*
X125758249Y-102329825D01*
X125717860Y-102126776D01*
X125717860Y-101919744D01*
X125758249Y-101716695D01*
X125837475Y-101525426D01*
X125952497Y-101353284D01*
X126098884Y-101206897D01*
X126271026Y-101091875D01*
X126462295Y-101012649D01*
X126665344Y-100972260D01*
X126872376Y-100972260D01*
X127075425Y-101012649D01*
X127075425Y-101012649D01*
G37*
G36*
X119455425Y-101012649D02*
X119646694Y-101091875D01*
X119818836Y-101206897D01*
X119965223Y-101353284D01*
X120080245Y-101525426D01*
X120159471Y-101716695D01*
X120199860Y-101919744D01*
X120199860Y-102126776D01*
X120159471Y-102329825D01*
X120080245Y-102521094D01*
X119965223Y-102693236D01*
X119818836Y-102839623D01*
X119646694Y-102954645D01*
X119455425Y-103033871D01*
X119252376Y-103074260D01*
X119045344Y-103074260D01*
X118842295Y-103033871D01*
X118651026Y-102954645D01*
X118478884Y-102839623D01*
X118332497Y-102693236D01*
X118217475Y-102521094D01*
X118138249Y-102329825D01*
X118097860Y-102126776D01*
X118097860Y-101919744D01*
X118138249Y-101716695D01*
X118217475Y-101525426D01*
X118332497Y-101353284D01*
X118478884Y-101206897D01*
X118651026Y-101091875D01*
X118842295Y-101012649D01*
X119045344Y-100972260D01*
X119252376Y-100972260D01*
X119455425Y-101012649D01*
X119455425Y-101012649D01*
G37*
M02*
