%TF.GenerationSoftware,KiCad,Pcbnew,(5.0.2)-1*%
%TF.CreationDate,2020-06-03T15:28:38+08:00*%
%TF.ProjectId,MixRelays,4d697852-656c-4617-9973-2e6b69636164,rev?*%
%TF.SameCoordinates,Original*%
%TF.FileFunction,Paste,Top*%
%TF.FilePolarity,Positive*%
%FSLAX46Y46*%
G04 Gerber Fmt 4.6, Leading zero omitted, Abs format (unit mm)*
G04 Created by KiCad (PCBNEW (5.0.2)-1) date 2020-06-03 15:28:38*
%MOMM*%
%LPD*%
G01*
G04 APERTURE LIST*
%ADD10C,0.350000*%
%ADD11C,1.000000*%
%ADD12R,2.800000X2.400000*%
%ADD13O,2.200000X0.900000*%
G04 APERTURE END LIST*
D10*
G36*
X149692164Y-132452364D02*
X149716433Y-132455964D01*
X149740231Y-132461925D01*
X149763331Y-132470190D01*
X149785509Y-132480680D01*
X149806553Y-132493293D01*
X149826258Y-132507907D01*
X149844437Y-132524383D01*
X149860913Y-132542562D01*
X149875527Y-132562267D01*
X149888140Y-132583311D01*
X149898630Y-132605489D01*
X149906895Y-132628589D01*
X149912856Y-132652387D01*
X149916456Y-132676656D01*
X149917660Y-132701160D01*
X149917660Y-133201160D01*
X149916456Y-133225664D01*
X149912856Y-133249933D01*
X149906895Y-133273731D01*
X149898630Y-133296831D01*
X149888140Y-133319009D01*
X149875527Y-133340053D01*
X149860913Y-133359758D01*
X149844437Y-133377937D01*
X149826258Y-133394413D01*
X149806553Y-133409027D01*
X149785509Y-133421640D01*
X149763331Y-133432130D01*
X149740231Y-133440395D01*
X149716433Y-133446356D01*
X149692164Y-133449956D01*
X149667660Y-133451160D01*
X148167660Y-133451160D01*
X148143156Y-133449956D01*
X148118887Y-133446356D01*
X148095089Y-133440395D01*
X148071989Y-133432130D01*
X148049811Y-133421640D01*
X148028767Y-133409027D01*
X148009062Y-133394413D01*
X147990883Y-133377937D01*
X147974407Y-133359758D01*
X147959793Y-133340053D01*
X147947180Y-133319009D01*
X147936690Y-133296831D01*
X147928425Y-133273731D01*
X147922464Y-133249933D01*
X147918864Y-133225664D01*
X147917660Y-133201160D01*
X147917660Y-132701160D01*
X147918864Y-132676656D01*
X147922464Y-132652387D01*
X147928425Y-132628589D01*
X147936690Y-132605489D01*
X147947180Y-132583311D01*
X147959793Y-132562267D01*
X147974407Y-132542562D01*
X147990883Y-132524383D01*
X148009062Y-132507907D01*
X148028767Y-132493293D01*
X148049811Y-132480680D01*
X148071989Y-132470190D01*
X148095089Y-132461925D01*
X148118887Y-132455964D01*
X148143156Y-132452364D01*
X148167660Y-132451160D01*
X149667660Y-132451160D01*
X149692164Y-132452364D01*
X149692164Y-132452364D01*
G37*
D11*
X148917660Y-132951160D03*
D10*
G36*
X149692164Y-137052364D02*
X149716433Y-137055964D01*
X149740231Y-137061925D01*
X149763331Y-137070190D01*
X149785509Y-137080680D01*
X149806553Y-137093293D01*
X149826258Y-137107907D01*
X149844437Y-137124383D01*
X149860913Y-137142562D01*
X149875527Y-137162267D01*
X149888140Y-137183311D01*
X149898630Y-137205489D01*
X149906895Y-137228589D01*
X149912856Y-137252387D01*
X149916456Y-137276656D01*
X149917660Y-137301160D01*
X149917660Y-137801160D01*
X149916456Y-137825664D01*
X149912856Y-137849933D01*
X149906895Y-137873731D01*
X149898630Y-137896831D01*
X149888140Y-137919009D01*
X149875527Y-137940053D01*
X149860913Y-137959758D01*
X149844437Y-137977937D01*
X149826258Y-137994413D01*
X149806553Y-138009027D01*
X149785509Y-138021640D01*
X149763331Y-138032130D01*
X149740231Y-138040395D01*
X149716433Y-138046356D01*
X149692164Y-138049956D01*
X149667660Y-138051160D01*
X148167660Y-138051160D01*
X148143156Y-138049956D01*
X148118887Y-138046356D01*
X148095089Y-138040395D01*
X148071989Y-138032130D01*
X148049811Y-138021640D01*
X148028767Y-138009027D01*
X148009062Y-137994413D01*
X147990883Y-137977937D01*
X147974407Y-137959758D01*
X147959793Y-137940053D01*
X147947180Y-137919009D01*
X147936690Y-137896831D01*
X147928425Y-137873731D01*
X147922464Y-137849933D01*
X147918864Y-137825664D01*
X147917660Y-137801160D01*
X147917660Y-137301160D01*
X147918864Y-137276656D01*
X147922464Y-137252387D01*
X147928425Y-137228589D01*
X147936690Y-137205489D01*
X147947180Y-137183311D01*
X147959793Y-137162267D01*
X147974407Y-137142562D01*
X147990883Y-137124383D01*
X148009062Y-137107907D01*
X148028767Y-137093293D01*
X148049811Y-137080680D01*
X148071989Y-137070190D01*
X148095089Y-137061925D01*
X148118887Y-137055964D01*
X148143156Y-137052364D01*
X148167660Y-137051160D01*
X149667660Y-137051160D01*
X149692164Y-137052364D01*
X149692164Y-137052364D01*
G37*
D11*
X148917660Y-137551160D03*
D12*
X143507460Y-130947160D03*
X143507460Y-135907160D03*
D13*
X143208840Y-108343700D03*
X143208840Y-109613700D03*
X143208840Y-110883700D03*
X143208840Y-119773700D03*
X143208840Y-121043700D03*
X143208840Y-122313700D03*
X160808840Y-124853700D03*
X160808840Y-114693700D03*
X160808840Y-113423700D03*
X160808840Y-112153700D03*
X160808840Y-110883700D03*
X160808840Y-109613700D03*
X160808840Y-108343700D03*
M02*
