%TF.GenerationSoftware,KiCad,Pcbnew,(5.0.2)-1*%
%TF.CreationDate,2020-06-03T15:28:38+08:00*%
%TF.ProjectId,MixRelays,4d697852-656c-4617-9973-2e6b69636164,rev?*%
%TF.SameCoordinates,Original*%
%TF.FileFunction,Paste,Bot*%
%TF.FilePolarity,Positive*%
%FSLAX46Y46*%
G04 Gerber Fmt 4.6, Leading zero omitted, Abs format (unit mm)*
G04 Created by KiCad (PCBNEW (5.0.2)-1) date 2020-06-03 15:28:38*
%MOMM*%
%LPD*%
G01*
G04 APERTURE LIST*
%ADD10O,2.000000X0.800000*%
%ADD11R,1.350000X1.800000*%
%ADD12O,0.800000X2.000000*%
%ADD13O,3.000000X1.524000*%
%ADD14R,0.980000X0.930000*%
%ADD15R,0.930000X0.980000*%
%ADD16R,0.250000X1.300000*%
%ADD17R,1.300000X0.250000*%
%ADD18O,1.800000X0.700000*%
%ADD19R,1.000000X2.200000*%
%ADD20R,3.500000X2.200000*%
G04 APERTURE END LIST*
D10*
X160804860Y-108315760D03*
X160804860Y-109585760D03*
X160804860Y-110855760D03*
X160804860Y-112125760D03*
D11*
X140357860Y-111224060D03*
X140357860Y-108604060D03*
D12*
X145869660Y-136763760D03*
X144599660Y-136763760D03*
X143329660Y-136763760D03*
X142059660Y-136763760D03*
D13*
X152168860Y-127124460D03*
X152168860Y-124584460D03*
X152168860Y-122044460D03*
D14*
X145856960Y-114014760D03*
X145856960Y-115554760D03*
D15*
X149225760Y-111859060D03*
X147685760Y-111859060D03*
X147685760Y-113713260D03*
X149225760Y-113713260D03*
D14*
X142466060Y-111706660D03*
X142466060Y-110166660D03*
D15*
X147703160Y-109941360D03*
X149243160Y-109941360D03*
D16*
X140617760Y-118735860D03*
X141117760Y-118735860D03*
X141617760Y-118735860D03*
X142117760Y-118735860D03*
X142617760Y-118735860D03*
X143117760Y-118735860D03*
X143617760Y-118735860D03*
X144117760Y-118735860D03*
X144617760Y-118735860D03*
X145117760Y-118735860D03*
X145617760Y-118735860D03*
X146117760Y-118735860D03*
D17*
X147717760Y-120335860D03*
X147717760Y-120835860D03*
X147717760Y-121335860D03*
X147717760Y-121835860D03*
X147717760Y-122335860D03*
X147717760Y-122835860D03*
X147717760Y-123335860D03*
X147717760Y-123835860D03*
X147717760Y-124335860D03*
X147717760Y-124835860D03*
X147717760Y-125335860D03*
X147717760Y-125835860D03*
D16*
X146117760Y-127435860D03*
X145617760Y-127435860D03*
X145117760Y-127435860D03*
X144617760Y-127435860D03*
X144117760Y-127435860D03*
X143617760Y-127435860D03*
X143117760Y-127435860D03*
X142617760Y-127435860D03*
X142117760Y-127435860D03*
X141617760Y-127435860D03*
X141117760Y-127435860D03*
X140617760Y-127435860D03*
D17*
X139017760Y-125835860D03*
X139017760Y-125335860D03*
X139017760Y-124835860D03*
X139017760Y-124335860D03*
X139017760Y-123835860D03*
X139017760Y-123335860D03*
X139017760Y-122835860D03*
X139017760Y-122335860D03*
X139017760Y-121835860D03*
X139017760Y-121335860D03*
X139017760Y-120835860D03*
X139017760Y-120335860D03*
D18*
X134965440Y-121612660D03*
X134965440Y-122882660D03*
X134965440Y-124152660D03*
X134965440Y-125422660D03*
X129765440Y-125422660D03*
X129765440Y-124152660D03*
X129765440Y-122882660D03*
X129765440Y-121612660D03*
D14*
X140357860Y-115575460D03*
X140357860Y-114035460D03*
X135587384Y-132973370D03*
X135587384Y-131433370D03*
D15*
X133326050Y-127947776D03*
X131786050Y-127947776D03*
X129943150Y-127945236D03*
X128403150Y-127945236D03*
D14*
X146225260Y-111693960D03*
X146225260Y-110153960D03*
X144320260Y-110166660D03*
X144320260Y-111706660D03*
X144002760Y-115554760D03*
X144002760Y-114014760D03*
X127043180Y-123682000D03*
X127043180Y-125222000D03*
X135556904Y-134930950D03*
X135556904Y-136470950D03*
X142173960Y-115567460D03*
X142173960Y-114027460D03*
D19*
X128613784Y-130440350D03*
X130913784Y-130440350D03*
D20*
X130913784Y-136440350D03*
D19*
X133213784Y-130440350D03*
D15*
X149209760Y-115554760D03*
X147669760Y-115554760D03*
M02*
