%TF.GenerationSoftware,KiCad,Pcbnew,(5.0.2)-1*%
%TF.CreationDate,2020-06-03T15:28:38+08:00*%
%TF.ProjectId,MixRelays,4d697852-656c-4617-9973-2e6b69636164,rev?*%
%TF.SameCoordinates,Original*%
%TF.FileFunction,Soldermask,Top*%
%TF.FilePolarity,Negative*%
%FSLAX46Y46*%
G04 Gerber Fmt 4.6, Leading zero omitted, Abs format (unit mm)*
G04 Created by KiCad (PCBNEW (5.0.2)-1) date 2020-06-03 15:28:38*
%MOMM*%
%LPD*%
G01*
G04 APERTURE LIST*
%ADD10C,0.350000*%
G04 APERTURE END LIST*
D10*
G36*
X149797093Y-137004846D02*
X149836941Y-137016934D01*
X149873661Y-137036561D01*
X149905846Y-137062974D01*
X149932259Y-137095159D01*
X149951886Y-137131879D01*
X149963974Y-137171727D01*
X149968660Y-137219301D01*
X149968660Y-137883019D01*
X149963974Y-137930593D01*
X149951886Y-137970441D01*
X149932259Y-138007161D01*
X149905846Y-138039346D01*
X149873661Y-138065759D01*
X149836941Y-138085386D01*
X149797093Y-138097474D01*
X149749519Y-138102160D01*
X148085801Y-138102160D01*
X148038227Y-138097474D01*
X147998379Y-138085386D01*
X147961659Y-138065759D01*
X147929474Y-138039346D01*
X147903061Y-138007161D01*
X147883434Y-137970441D01*
X147871346Y-137930593D01*
X147866660Y-137883019D01*
X147866660Y-137219301D01*
X147871346Y-137171727D01*
X147883434Y-137131879D01*
X147903061Y-137095159D01*
X147929474Y-137062974D01*
X147961659Y-137036561D01*
X147998379Y-137016934D01*
X148038227Y-137004846D01*
X148085801Y-137000160D01*
X149749519Y-137000160D01*
X149797093Y-137004846D01*
X149797093Y-137004846D01*
G37*
G36*
X114064702Y-136134682D02*
X114212662Y-136195970D01*
X114270950Y-136234917D01*
X114345817Y-136284941D01*
X114459059Y-136398183D01*
X114485082Y-136437130D01*
X114548030Y-136531338D01*
X114609318Y-136679298D01*
X114640560Y-136836365D01*
X114640560Y-136996515D01*
X114609318Y-137153582D01*
X114548030Y-137301542D01*
X114459058Y-137434698D01*
X114345818Y-137547938D01*
X114212662Y-137636910D01*
X114064702Y-137698198D01*
X113907635Y-137729440D01*
X113747485Y-137729440D01*
X113590418Y-137698198D01*
X113442458Y-137636910D01*
X113309302Y-137547938D01*
X113196062Y-137434698D01*
X113107090Y-137301542D01*
X113045802Y-137153582D01*
X113014560Y-136996515D01*
X113014560Y-136836365D01*
X113045802Y-136679298D01*
X113107090Y-136531338D01*
X113170038Y-136437130D01*
X113196061Y-136398183D01*
X113309303Y-136284941D01*
X113384170Y-136234917D01*
X113442458Y-136195970D01*
X113590418Y-136134682D01*
X113747485Y-136103440D01*
X113907635Y-136103440D01*
X114064702Y-136134682D01*
X114064702Y-136134682D01*
G37*
G36*
X160282843Y-135694019D02*
X160349027Y-135700537D01*
X160462253Y-135734884D01*
X160518867Y-135752057D01*
X160602452Y-135796735D01*
X160675391Y-135835722D01*
X160711129Y-135865052D01*
X160812586Y-135948314D01*
X160895848Y-136049771D01*
X160925178Y-136085509D01*
X160925179Y-136085511D01*
X161008843Y-136242033D01*
X161008843Y-136242034D01*
X161060363Y-136411873D01*
X161077759Y-136588500D01*
X161060363Y-136765127D01*
X161038753Y-136836365D01*
X161008843Y-136934967D01*
X160954539Y-137036561D01*
X160925178Y-137091491D01*
X160899647Y-137122600D01*
X160812586Y-137228686D01*
X160723812Y-137301540D01*
X160675391Y-137341278D01*
X160675389Y-137341279D01*
X160518867Y-137424943D01*
X160486708Y-137434698D01*
X160349027Y-137476463D01*
X160282842Y-137482982D01*
X160216660Y-137489500D01*
X160128140Y-137489500D01*
X160061958Y-137482982D01*
X159995773Y-137476463D01*
X159858092Y-137434698D01*
X159825933Y-137424943D01*
X159669411Y-137341279D01*
X159669409Y-137341278D01*
X159620988Y-137301540D01*
X159532214Y-137228686D01*
X159445153Y-137122600D01*
X159419622Y-137091491D01*
X159390261Y-137036561D01*
X159335957Y-136934967D01*
X159306047Y-136836365D01*
X159284437Y-136765127D01*
X159267041Y-136588500D01*
X159284437Y-136411873D01*
X159335957Y-136242034D01*
X159335957Y-136242033D01*
X159419621Y-136085511D01*
X159419622Y-136085509D01*
X159448952Y-136049771D01*
X159532214Y-135948314D01*
X159633671Y-135865052D01*
X159669409Y-135835722D01*
X159742348Y-135796735D01*
X159825933Y-135752057D01*
X159882547Y-135734884D01*
X159995773Y-135700537D01*
X160061957Y-135694019D01*
X160128140Y-135687500D01*
X160216660Y-135687500D01*
X160282843Y-135694019D01*
X160282843Y-135694019D01*
G37*
G36*
X157742843Y-135694019D02*
X157809027Y-135700537D01*
X157922253Y-135734884D01*
X157978867Y-135752057D01*
X158062452Y-135796735D01*
X158135391Y-135835722D01*
X158171129Y-135865052D01*
X158272586Y-135948314D01*
X158355848Y-136049771D01*
X158385178Y-136085509D01*
X158385179Y-136085511D01*
X158468843Y-136242033D01*
X158468843Y-136242034D01*
X158520363Y-136411873D01*
X158537759Y-136588500D01*
X158520363Y-136765127D01*
X158498753Y-136836365D01*
X158468843Y-136934967D01*
X158414539Y-137036561D01*
X158385178Y-137091491D01*
X158359647Y-137122600D01*
X158272586Y-137228686D01*
X158183812Y-137301540D01*
X158135391Y-137341278D01*
X158135389Y-137341279D01*
X157978867Y-137424943D01*
X157946708Y-137434698D01*
X157809027Y-137476463D01*
X157742842Y-137482982D01*
X157676660Y-137489500D01*
X157588140Y-137489500D01*
X157521958Y-137482982D01*
X157455773Y-137476463D01*
X157318092Y-137434698D01*
X157285933Y-137424943D01*
X157129411Y-137341279D01*
X157129409Y-137341278D01*
X157080988Y-137301540D01*
X156992214Y-137228686D01*
X156905153Y-137122600D01*
X156879622Y-137091491D01*
X156850261Y-137036561D01*
X156795957Y-136934967D01*
X156766047Y-136836365D01*
X156744437Y-136765127D01*
X156727041Y-136588500D01*
X156744437Y-136411873D01*
X156795957Y-136242034D01*
X156795957Y-136242033D01*
X156879621Y-136085511D01*
X156879622Y-136085509D01*
X156908952Y-136049771D01*
X156992214Y-135948314D01*
X157093671Y-135865052D01*
X157129409Y-135835722D01*
X157202348Y-135796735D01*
X157285933Y-135752057D01*
X157342547Y-135734884D01*
X157455773Y-135700537D01*
X157521957Y-135694019D01*
X157588140Y-135687500D01*
X157676660Y-135687500D01*
X157742843Y-135694019D01*
X157742843Y-135694019D01*
G37*
G36*
X155202843Y-135694019D02*
X155269027Y-135700537D01*
X155382253Y-135734884D01*
X155438867Y-135752057D01*
X155522452Y-135796735D01*
X155595391Y-135835722D01*
X155631129Y-135865052D01*
X155732586Y-135948314D01*
X155815848Y-136049771D01*
X155845178Y-136085509D01*
X155845179Y-136085511D01*
X155928843Y-136242033D01*
X155928843Y-136242034D01*
X155980363Y-136411873D01*
X155997759Y-136588500D01*
X155980363Y-136765127D01*
X155958753Y-136836365D01*
X155928843Y-136934967D01*
X155874539Y-137036561D01*
X155845178Y-137091491D01*
X155819647Y-137122600D01*
X155732586Y-137228686D01*
X155643812Y-137301540D01*
X155595391Y-137341278D01*
X155595389Y-137341279D01*
X155438867Y-137424943D01*
X155406708Y-137434698D01*
X155269027Y-137476463D01*
X155202842Y-137482982D01*
X155136660Y-137489500D01*
X155048140Y-137489500D01*
X154981958Y-137482982D01*
X154915773Y-137476463D01*
X154778092Y-137434698D01*
X154745933Y-137424943D01*
X154589411Y-137341279D01*
X154589409Y-137341278D01*
X154540988Y-137301540D01*
X154452214Y-137228686D01*
X154365153Y-137122600D01*
X154339622Y-137091491D01*
X154310261Y-137036561D01*
X154255957Y-136934967D01*
X154226047Y-136836365D01*
X154204437Y-136765127D01*
X154187041Y-136588500D01*
X154204437Y-136411873D01*
X154255957Y-136242034D01*
X154255957Y-136242033D01*
X154339621Y-136085511D01*
X154339622Y-136085509D01*
X154368952Y-136049771D01*
X154452214Y-135948314D01*
X154553671Y-135865052D01*
X154589409Y-135835722D01*
X154662348Y-135796735D01*
X154745933Y-135752057D01*
X154802547Y-135734884D01*
X154915773Y-135700537D01*
X154981957Y-135694019D01*
X155048140Y-135687500D01*
X155136660Y-135687500D01*
X155202843Y-135694019D01*
X155202843Y-135694019D01*
G37*
G36*
X152662843Y-135694019D02*
X152729027Y-135700537D01*
X152842253Y-135734884D01*
X152898867Y-135752057D01*
X152982452Y-135796735D01*
X153055391Y-135835722D01*
X153091129Y-135865052D01*
X153192586Y-135948314D01*
X153275848Y-136049771D01*
X153305178Y-136085509D01*
X153305179Y-136085511D01*
X153388843Y-136242033D01*
X153388843Y-136242034D01*
X153440363Y-136411873D01*
X153457759Y-136588500D01*
X153440363Y-136765127D01*
X153418753Y-136836365D01*
X153388843Y-136934967D01*
X153334539Y-137036561D01*
X153305178Y-137091491D01*
X153279647Y-137122600D01*
X153192586Y-137228686D01*
X153103812Y-137301540D01*
X153055391Y-137341278D01*
X153055389Y-137341279D01*
X152898867Y-137424943D01*
X152866708Y-137434698D01*
X152729027Y-137476463D01*
X152662842Y-137482982D01*
X152596660Y-137489500D01*
X152508140Y-137489500D01*
X152441958Y-137482982D01*
X152375773Y-137476463D01*
X152238092Y-137434698D01*
X152205933Y-137424943D01*
X152049411Y-137341279D01*
X152049409Y-137341278D01*
X152000988Y-137301540D01*
X151912214Y-137228686D01*
X151825153Y-137122600D01*
X151799622Y-137091491D01*
X151770261Y-137036561D01*
X151715957Y-136934967D01*
X151686047Y-136836365D01*
X151664437Y-136765127D01*
X151647041Y-136588500D01*
X151664437Y-136411873D01*
X151715957Y-136242034D01*
X151715957Y-136242033D01*
X151799621Y-136085511D01*
X151799622Y-136085509D01*
X151828952Y-136049771D01*
X151912214Y-135948314D01*
X152013671Y-135865052D01*
X152049409Y-135835722D01*
X152122348Y-135796735D01*
X152205933Y-135752057D01*
X152262547Y-135734884D01*
X152375773Y-135700537D01*
X152441957Y-135694019D01*
X152508140Y-135687500D01*
X152596660Y-135687500D01*
X152662843Y-135694019D01*
X152662843Y-135694019D01*
G37*
G36*
X144958460Y-137158160D02*
X142056460Y-137158160D01*
X142056460Y-134656160D01*
X144958460Y-134656160D01*
X144958460Y-137158160D01*
X144958460Y-137158160D01*
G37*
G36*
X138439222Y-134934902D02*
X138587182Y-134996190D01*
X138720338Y-135085162D01*
X138833578Y-135198402D01*
X138922550Y-135331558D01*
X138983838Y-135479518D01*
X139015080Y-135636585D01*
X139015080Y-135796735D01*
X138983838Y-135953802D01*
X138936434Y-136068243D01*
X138929282Y-136085511D01*
X138922550Y-136101762D01*
X138833578Y-136234918D01*
X138720338Y-136348158D01*
X138587182Y-136437130D01*
X138439222Y-136498418D01*
X138282155Y-136529660D01*
X138122005Y-136529660D01*
X137964938Y-136498418D01*
X137816978Y-136437130D01*
X137683822Y-136348158D01*
X137570582Y-136234918D01*
X137481610Y-136101762D01*
X137474879Y-136085511D01*
X137467726Y-136068243D01*
X137420322Y-135953802D01*
X137389080Y-135796735D01*
X137389080Y-135636585D01*
X137420322Y-135479518D01*
X137481610Y-135331558D01*
X137570582Y-135198402D01*
X137683822Y-135085162D01*
X137816978Y-134996190D01*
X137964938Y-134934902D01*
X138122005Y-134903660D01*
X138282155Y-134903660D01*
X138439222Y-134934902D01*
X138439222Y-134934902D01*
G37*
G36*
X152662843Y-133154019D02*
X152729027Y-133160537D01*
X152842253Y-133194884D01*
X152898867Y-133212057D01*
X152927178Y-133227190D01*
X153055391Y-133295722D01*
X153084632Y-133319720D01*
X153192586Y-133408314D01*
X153269602Y-133502160D01*
X153305178Y-133545509D01*
X153305179Y-133545511D01*
X153388843Y-133702033D01*
X153388843Y-133702034D01*
X153440363Y-133871873D01*
X153457759Y-134048500D01*
X153440363Y-134225127D01*
X153406016Y-134338353D01*
X153388843Y-134394967D01*
X153314748Y-134533587D01*
X153305178Y-134551491D01*
X153275848Y-134587229D01*
X153192586Y-134688686D01*
X153091129Y-134771948D01*
X153055391Y-134801278D01*
X153055389Y-134801279D01*
X152898867Y-134884943D01*
X152842253Y-134902116D01*
X152729027Y-134936463D01*
X152662843Y-134942981D01*
X152596660Y-134949500D01*
X152508140Y-134949500D01*
X152441957Y-134942981D01*
X152375773Y-134936463D01*
X152262547Y-134902116D01*
X152205933Y-134884943D01*
X152049411Y-134801279D01*
X152049409Y-134801278D01*
X152013671Y-134771948D01*
X151912214Y-134688686D01*
X151828952Y-134587229D01*
X151799622Y-134551491D01*
X151790052Y-134533587D01*
X151715957Y-134394967D01*
X151698784Y-134338353D01*
X151664437Y-134225127D01*
X151647041Y-134048500D01*
X151664437Y-133871873D01*
X151715957Y-133702034D01*
X151715957Y-133702033D01*
X151799621Y-133545511D01*
X151799622Y-133545509D01*
X151835198Y-133502160D01*
X151912214Y-133408314D01*
X152020168Y-133319720D01*
X152049409Y-133295722D01*
X152177622Y-133227190D01*
X152205933Y-133212057D01*
X152262547Y-133194884D01*
X152375773Y-133160537D01*
X152441957Y-133154019D01*
X152508140Y-133147500D01*
X152596660Y-133147500D01*
X152662843Y-133154019D01*
X152662843Y-133154019D01*
G37*
G36*
X161073400Y-134949500D02*
X159271400Y-134949500D01*
X159271400Y-133147500D01*
X161073400Y-133147500D01*
X161073400Y-134949500D01*
X161073400Y-134949500D01*
G37*
G36*
X157742843Y-133154019D02*
X157809027Y-133160537D01*
X157922253Y-133194884D01*
X157978867Y-133212057D01*
X158007178Y-133227190D01*
X158135391Y-133295722D01*
X158164632Y-133319720D01*
X158272586Y-133408314D01*
X158349602Y-133502160D01*
X158385178Y-133545509D01*
X158385179Y-133545511D01*
X158468843Y-133702033D01*
X158468843Y-133702034D01*
X158520363Y-133871873D01*
X158537759Y-134048500D01*
X158520363Y-134225127D01*
X158486016Y-134338353D01*
X158468843Y-134394967D01*
X158394748Y-134533587D01*
X158385178Y-134551491D01*
X158355848Y-134587229D01*
X158272586Y-134688686D01*
X158171129Y-134771948D01*
X158135391Y-134801278D01*
X158135389Y-134801279D01*
X157978867Y-134884943D01*
X157922253Y-134902116D01*
X157809027Y-134936463D01*
X157742843Y-134942981D01*
X157676660Y-134949500D01*
X157588140Y-134949500D01*
X157521957Y-134942981D01*
X157455773Y-134936463D01*
X157342547Y-134902116D01*
X157285933Y-134884943D01*
X157129411Y-134801279D01*
X157129409Y-134801278D01*
X157093671Y-134771948D01*
X156992214Y-134688686D01*
X156908952Y-134587229D01*
X156879622Y-134551491D01*
X156870052Y-134533587D01*
X156795957Y-134394967D01*
X156778784Y-134338353D01*
X156744437Y-134225127D01*
X156727041Y-134048500D01*
X156744437Y-133871873D01*
X156795957Y-133702034D01*
X156795957Y-133702033D01*
X156879621Y-133545511D01*
X156879622Y-133545509D01*
X156915198Y-133502160D01*
X156992214Y-133408314D01*
X157100168Y-133319720D01*
X157129409Y-133295722D01*
X157257622Y-133227190D01*
X157285933Y-133212057D01*
X157342547Y-133194884D01*
X157455773Y-133160537D01*
X157521957Y-133154019D01*
X157588140Y-133147500D01*
X157676660Y-133147500D01*
X157742843Y-133154019D01*
X157742843Y-133154019D01*
G37*
G36*
X155202843Y-133154019D02*
X155269027Y-133160537D01*
X155382253Y-133194884D01*
X155438867Y-133212057D01*
X155467178Y-133227190D01*
X155595391Y-133295722D01*
X155624632Y-133319720D01*
X155732586Y-133408314D01*
X155809602Y-133502160D01*
X155845178Y-133545509D01*
X155845179Y-133545511D01*
X155928843Y-133702033D01*
X155928843Y-133702034D01*
X155980363Y-133871873D01*
X155997759Y-134048500D01*
X155980363Y-134225127D01*
X155946016Y-134338353D01*
X155928843Y-134394967D01*
X155854748Y-134533587D01*
X155845178Y-134551491D01*
X155815848Y-134587229D01*
X155732586Y-134688686D01*
X155631129Y-134771948D01*
X155595391Y-134801278D01*
X155595389Y-134801279D01*
X155438867Y-134884943D01*
X155382253Y-134902116D01*
X155269027Y-134936463D01*
X155202843Y-134942981D01*
X155136660Y-134949500D01*
X155048140Y-134949500D01*
X154981957Y-134942981D01*
X154915773Y-134936463D01*
X154802547Y-134902116D01*
X154745933Y-134884943D01*
X154589411Y-134801279D01*
X154589409Y-134801278D01*
X154553671Y-134771948D01*
X154452214Y-134688686D01*
X154368952Y-134587229D01*
X154339622Y-134551491D01*
X154330052Y-134533587D01*
X154255957Y-134394967D01*
X154238784Y-134338353D01*
X154204437Y-134225127D01*
X154187041Y-134048500D01*
X154204437Y-133871873D01*
X154255957Y-133702034D01*
X154255957Y-133702033D01*
X154339621Y-133545511D01*
X154339622Y-133545509D01*
X154375198Y-133502160D01*
X154452214Y-133408314D01*
X154560168Y-133319720D01*
X154589409Y-133295722D01*
X154717622Y-133227190D01*
X154745933Y-133212057D01*
X154802547Y-133194884D01*
X154915773Y-133160537D01*
X154981957Y-133154019D01*
X155048140Y-133147500D01*
X155136660Y-133147500D01*
X155202843Y-133154019D01*
X155202843Y-133154019D01*
G37*
G36*
X149797093Y-132404846D02*
X149836941Y-132416934D01*
X149873661Y-132436561D01*
X149905846Y-132462974D01*
X149932259Y-132495159D01*
X149951886Y-132531879D01*
X149963974Y-132571727D01*
X149968660Y-132619301D01*
X149968660Y-133283019D01*
X149963974Y-133330593D01*
X149951886Y-133370441D01*
X149932259Y-133407161D01*
X149905846Y-133439346D01*
X149873661Y-133465759D01*
X149836941Y-133485386D01*
X149797093Y-133497474D01*
X149749519Y-133502160D01*
X148085801Y-133502160D01*
X148038227Y-133497474D01*
X147998379Y-133485386D01*
X147961659Y-133465759D01*
X147929474Y-133439346D01*
X147903061Y-133407161D01*
X147883434Y-133370441D01*
X147871346Y-133330593D01*
X147866660Y-133283019D01*
X147866660Y-132619301D01*
X147871346Y-132571727D01*
X147883434Y-132531879D01*
X147903061Y-132495159D01*
X147929474Y-132462974D01*
X147961659Y-132436561D01*
X147998379Y-132416934D01*
X148038227Y-132404846D01*
X148085801Y-132400160D01*
X149749519Y-132400160D01*
X149797093Y-132404846D01*
X149797093Y-132404846D01*
G37*
G36*
X114064702Y-131724962D02*
X114212662Y-131786250D01*
X114345818Y-131875222D01*
X114459058Y-131988462D01*
X114548030Y-132121618D01*
X114609318Y-132269578D01*
X114640560Y-132426645D01*
X114640560Y-132586795D01*
X114609318Y-132743862D01*
X114561914Y-132858303D01*
X114548031Y-132891820D01*
X114459059Y-133024977D01*
X114345817Y-133138219D01*
X114279690Y-133182403D01*
X114212662Y-133227190D01*
X114064702Y-133288478D01*
X113907635Y-133319720D01*
X113747485Y-133319720D01*
X113590418Y-133288478D01*
X113442458Y-133227190D01*
X113375430Y-133182403D01*
X113309303Y-133138219D01*
X113196061Y-133024977D01*
X113107089Y-132891820D01*
X113093206Y-132858303D01*
X113045802Y-132743862D01*
X113014560Y-132586795D01*
X113014560Y-132426645D01*
X113045802Y-132269578D01*
X113107090Y-132121618D01*
X113196062Y-131988462D01*
X113309302Y-131875222D01*
X113442458Y-131786250D01*
X113590418Y-131724962D01*
X113747485Y-131693720D01*
X113907635Y-131693720D01*
X114064702Y-131724962D01*
X114064702Y-131724962D01*
G37*
G36*
X144958460Y-132198160D02*
X142056460Y-132198160D01*
X142056460Y-129696160D01*
X144958460Y-129696160D01*
X144958460Y-132198160D01*
X144958460Y-132198160D01*
G37*
G36*
X138439222Y-129854902D02*
X138587182Y-129916190D01*
X138720338Y-130005162D01*
X138833578Y-130118402D01*
X138922550Y-130251558D01*
X138983838Y-130399518D01*
X139015080Y-130556585D01*
X139015080Y-130716735D01*
X138983838Y-130873802D01*
X138922550Y-131021762D01*
X138833578Y-131154918D01*
X138720338Y-131268158D01*
X138587182Y-131357130D01*
X138439222Y-131418418D01*
X138282155Y-131449660D01*
X138122005Y-131449660D01*
X137964938Y-131418418D01*
X137816978Y-131357130D01*
X137683822Y-131268158D01*
X137570582Y-131154918D01*
X137481610Y-131021762D01*
X137420322Y-130873802D01*
X137389080Y-130716735D01*
X137389080Y-130556585D01*
X137420322Y-130399518D01*
X137481610Y-130251558D01*
X137570582Y-130118402D01*
X137683822Y-130005162D01*
X137816978Y-129916190D01*
X137964938Y-129854902D01*
X138122005Y-129823660D01*
X138282155Y-129823660D01*
X138439222Y-129854902D01*
X138439222Y-129854902D01*
G37*
G36*
X118439222Y-129854902D02*
X118587182Y-129916190D01*
X118720338Y-130005162D01*
X118833578Y-130118402D01*
X118922550Y-130251558D01*
X118983838Y-130399518D01*
X119015080Y-130556585D01*
X119015080Y-130716735D01*
X118983838Y-130873802D01*
X118922550Y-131021762D01*
X118833578Y-131154918D01*
X118720338Y-131268158D01*
X118587182Y-131357130D01*
X118439222Y-131418418D01*
X118282155Y-131449660D01*
X118122005Y-131449660D01*
X117964938Y-131418418D01*
X117816978Y-131357130D01*
X117683822Y-131268158D01*
X117570582Y-131154918D01*
X117481610Y-131021762D01*
X117420322Y-130873802D01*
X117389080Y-130716735D01*
X117389080Y-130556585D01*
X117420322Y-130399518D01*
X117481610Y-130251558D01*
X117570582Y-130118402D01*
X117683822Y-130005162D01*
X117816978Y-129916190D01*
X117964938Y-129854902D01*
X118122005Y-129823660D01*
X118282155Y-129823660D01*
X118439222Y-129854902D01*
X118439222Y-129854902D01*
G37*
G36*
X152986607Y-128855381D02*
X153066236Y-128863224D01*
X153168403Y-128894216D01*
X153219488Y-128909712D01*
X153360725Y-128985205D01*
X153484519Y-129086801D01*
X153586115Y-129210595D01*
X153661608Y-129351832D01*
X153661608Y-129351833D01*
X153708096Y-129505084D01*
X153723793Y-129664460D01*
X153708096Y-129823836D01*
X153698672Y-129854902D01*
X153661608Y-129977088D01*
X153586115Y-130118325D01*
X153484519Y-130242119D01*
X153360725Y-130343715D01*
X153219488Y-130419208D01*
X153168403Y-130434704D01*
X153066236Y-130465696D01*
X152986607Y-130473539D01*
X152946794Y-130477460D01*
X151390926Y-130477460D01*
X151351113Y-130473539D01*
X151271484Y-130465696D01*
X151169317Y-130434704D01*
X151118232Y-130419208D01*
X150976995Y-130343715D01*
X150853201Y-130242119D01*
X150751605Y-130118325D01*
X150676112Y-129977088D01*
X150639048Y-129854902D01*
X150629624Y-129823836D01*
X150613927Y-129664460D01*
X150629624Y-129505084D01*
X150676112Y-129351833D01*
X150676112Y-129351832D01*
X150751605Y-129210595D01*
X150853201Y-129086801D01*
X150976995Y-128985205D01*
X151118232Y-128909712D01*
X151169317Y-128894216D01*
X151271484Y-128863224D01*
X151351113Y-128855381D01*
X151390926Y-128851460D01*
X152946794Y-128851460D01*
X152986607Y-128855381D01*
X152986607Y-128855381D01*
G37*
G36*
X113991160Y-124303425D02*
X114236400Y-124377818D01*
X114236402Y-124377819D01*
X114462416Y-124498626D01*
X114660517Y-124661203D01*
X114823094Y-124859304D01*
X114918824Y-125038402D01*
X114943902Y-125085320D01*
X115018295Y-125330560D01*
X115037120Y-125521695D01*
X115037120Y-126649505D01*
X115018295Y-126840640D01*
X114943902Y-127085880D01*
X114823096Y-127311893D01*
X114823094Y-127311895D01*
X114660516Y-127509997D01*
X114462415Y-127672574D01*
X114462413Y-127672575D01*
X114236399Y-127793382D01*
X113991159Y-127867775D01*
X113736120Y-127892894D01*
X113481080Y-127867775D01*
X113235840Y-127793382D01*
X113009826Y-127672575D01*
X112974302Y-127643421D01*
X112811723Y-127509996D01*
X112649146Y-127311895D01*
X112528339Y-127085881D01*
X112528338Y-127085879D01*
X112453945Y-126840639D01*
X112435120Y-126649504D01*
X112435120Y-125521695D01*
X112453945Y-125330560D01*
X112528338Y-125085320D01*
X112649145Y-124859306D01*
X112668117Y-124836189D01*
X112811724Y-124661203D01*
X113009825Y-124498626D01*
X113235839Y-124377819D01*
X113235841Y-124377818D01*
X113481081Y-124303425D01*
X113736120Y-124278306D01*
X113991160Y-124303425D01*
X113991160Y-124303425D01*
G37*
G36*
X118439222Y-124774902D02*
X118587182Y-124836190D01*
X118720338Y-124925162D01*
X118833578Y-125038402D01*
X118922550Y-125171558D01*
X118983838Y-125319518D01*
X119015080Y-125476585D01*
X119015080Y-125636735D01*
X118983838Y-125793802D01*
X118922550Y-125941762D01*
X118833578Y-126074918D01*
X118720338Y-126188158D01*
X118587182Y-126277130D01*
X118439222Y-126338418D01*
X118282155Y-126369660D01*
X118122005Y-126369660D01*
X117964938Y-126338418D01*
X117816978Y-126277130D01*
X117683822Y-126188158D01*
X117570582Y-126074918D01*
X117481610Y-125941762D01*
X117420322Y-125793802D01*
X117389080Y-125636735D01*
X117389080Y-125476585D01*
X117420322Y-125319518D01*
X117481610Y-125171558D01*
X117570582Y-125038402D01*
X117683822Y-124925162D01*
X117816978Y-124836190D01*
X117964938Y-124774902D01*
X118122005Y-124743660D01*
X118282155Y-124743660D01*
X118439222Y-124774902D01*
X118439222Y-124774902D01*
G37*
G36*
X161557053Y-124359949D02*
X161651492Y-124388597D01*
X161738527Y-124435118D01*
X161814815Y-124497725D01*
X161877422Y-124574013D01*
X161923943Y-124661048D01*
X161952591Y-124755487D01*
X161962264Y-124853700D01*
X161952591Y-124951913D01*
X161923943Y-125046352D01*
X161877422Y-125133387D01*
X161814815Y-125209675D01*
X161738527Y-125272282D01*
X161651492Y-125318803D01*
X161557053Y-125347451D01*
X161483452Y-125354700D01*
X160134228Y-125354700D01*
X160060627Y-125347451D01*
X159966188Y-125318803D01*
X159879153Y-125272282D01*
X159802865Y-125209675D01*
X159740258Y-125133387D01*
X159693737Y-125046352D01*
X159665089Y-124951913D01*
X159655416Y-124853700D01*
X159665089Y-124755487D01*
X159693737Y-124661048D01*
X159740258Y-124574013D01*
X159802865Y-124497725D01*
X159879153Y-124435118D01*
X159966188Y-124388597D01*
X160060627Y-124359949D01*
X160134228Y-124352700D01*
X161483452Y-124352700D01*
X161557053Y-124359949D01*
X161557053Y-124359949D01*
G37*
G36*
X143957053Y-121819949D02*
X144051492Y-121848597D01*
X144138527Y-121895118D01*
X144214815Y-121957725D01*
X144277422Y-122034013D01*
X144323943Y-122121048D01*
X144352591Y-122215487D01*
X144362264Y-122313700D01*
X144352591Y-122411913D01*
X144323943Y-122506352D01*
X144277422Y-122593387D01*
X144214815Y-122669675D01*
X144138527Y-122732282D01*
X144051492Y-122778803D01*
X143957053Y-122807451D01*
X143883452Y-122814700D01*
X142534228Y-122814700D01*
X142460627Y-122807451D01*
X142366188Y-122778803D01*
X142279153Y-122732282D01*
X142202865Y-122669675D01*
X142140258Y-122593387D01*
X142093737Y-122506352D01*
X142065089Y-122411913D01*
X142055416Y-122313700D01*
X142065089Y-122215487D01*
X142093737Y-122121048D01*
X142140258Y-122034013D01*
X142202865Y-121957725D01*
X142279153Y-121895118D01*
X142366188Y-121848597D01*
X142460627Y-121819949D01*
X142534228Y-121812700D01*
X143883452Y-121812700D01*
X143957053Y-121819949D01*
X143957053Y-121819949D01*
G37*
G36*
X114016560Y-118192185D02*
X114261800Y-118266578D01*
X114261802Y-118266579D01*
X114487816Y-118387386D01*
X114685917Y-118549963D01*
X114848494Y-118748064D01*
X114848495Y-118748066D01*
X114969302Y-118974080D01*
X115043695Y-119219320D01*
X115062520Y-119410455D01*
X115062520Y-120538265D01*
X115043695Y-120729400D01*
X114969302Y-120974640D01*
X114848496Y-121200653D01*
X114848494Y-121200655D01*
X114685916Y-121398757D01*
X114487815Y-121561334D01*
X114487813Y-121561335D01*
X114261799Y-121682142D01*
X114016559Y-121756535D01*
X113761520Y-121781654D01*
X113506480Y-121756535D01*
X113261240Y-121682142D01*
X113035226Y-121561335D01*
X112914530Y-121462282D01*
X112837123Y-121398756D01*
X112674546Y-121200655D01*
X112553739Y-120974641D01*
X112553738Y-120974639D01*
X112479345Y-120729399D01*
X112460520Y-120538264D01*
X112460520Y-119410455D01*
X112479345Y-119219320D01*
X112553738Y-118974080D01*
X112674545Y-118748066D01*
X112689122Y-118730304D01*
X112837124Y-118549963D01*
X113035225Y-118387386D01*
X113261239Y-118266579D01*
X113261241Y-118266578D01*
X113506481Y-118192185D01*
X113761520Y-118167066D01*
X114016560Y-118192185D01*
X114016560Y-118192185D01*
G37*
G36*
X143957053Y-120549949D02*
X144051492Y-120578597D01*
X144138527Y-120625118D01*
X144214815Y-120687725D01*
X144277422Y-120764013D01*
X144323943Y-120851048D01*
X144352591Y-120945487D01*
X144362264Y-121043700D01*
X144352591Y-121141913D01*
X144323943Y-121236352D01*
X144277422Y-121323387D01*
X144214815Y-121399675D01*
X144138527Y-121462282D01*
X144051492Y-121508803D01*
X143957053Y-121537451D01*
X143883452Y-121544700D01*
X142534228Y-121544700D01*
X142460627Y-121537451D01*
X142366188Y-121508803D01*
X142279153Y-121462282D01*
X142202865Y-121399675D01*
X142140258Y-121323387D01*
X142093737Y-121236352D01*
X142065089Y-121141913D01*
X142055416Y-121043700D01*
X142065089Y-120945487D01*
X142093737Y-120851048D01*
X142140258Y-120764013D01*
X142202865Y-120687725D01*
X142279153Y-120625118D01*
X142366188Y-120578597D01*
X142460627Y-120549949D01*
X142534228Y-120542700D01*
X143883452Y-120542700D01*
X143957053Y-120549949D01*
X143957053Y-120549949D01*
G37*
G36*
X143957053Y-119279949D02*
X144051492Y-119308597D01*
X144138527Y-119355118D01*
X144214815Y-119417725D01*
X144277422Y-119494013D01*
X144323943Y-119581048D01*
X144352591Y-119675487D01*
X144362264Y-119773700D01*
X144352591Y-119871913D01*
X144323943Y-119966352D01*
X144277422Y-120053387D01*
X144214815Y-120129675D01*
X144138527Y-120192282D01*
X144051492Y-120238803D01*
X143957053Y-120267451D01*
X143883452Y-120274700D01*
X142534228Y-120274700D01*
X142460627Y-120267451D01*
X142366188Y-120238803D01*
X142279153Y-120192282D01*
X142202865Y-120129675D01*
X142140258Y-120053387D01*
X142093737Y-119966352D01*
X142065089Y-119871913D01*
X142055416Y-119773700D01*
X142065089Y-119675487D01*
X142093737Y-119581048D01*
X142140258Y-119494013D01*
X142202865Y-119417725D01*
X142279153Y-119355118D01*
X142366188Y-119308597D01*
X142460627Y-119279949D01*
X142534228Y-119272700D01*
X143883452Y-119272700D01*
X143957053Y-119279949D01*
X143957053Y-119279949D01*
G37*
G36*
X134679065Y-115363449D02*
X134870334Y-115442675D01*
X135042476Y-115557697D01*
X135188863Y-115704084D01*
X135303885Y-115876226D01*
X135383111Y-116067495D01*
X135423500Y-116270544D01*
X135423500Y-116477576D01*
X135383111Y-116680625D01*
X135303885Y-116871894D01*
X135188863Y-117044036D01*
X135042476Y-117190423D01*
X134870334Y-117305445D01*
X134679065Y-117384671D01*
X134476016Y-117425060D01*
X134268984Y-117425060D01*
X134065935Y-117384671D01*
X133874666Y-117305445D01*
X133702524Y-117190423D01*
X133556137Y-117044036D01*
X133441115Y-116871894D01*
X133361889Y-116680625D01*
X133321500Y-116477576D01*
X133321500Y-116270544D01*
X133361889Y-116067495D01*
X133441115Y-115876226D01*
X133556137Y-115704084D01*
X133702524Y-115557697D01*
X133874666Y-115442675D01*
X134065935Y-115363449D01*
X134268984Y-115323060D01*
X134476016Y-115323060D01*
X134679065Y-115363449D01*
X134679065Y-115363449D01*
G37*
G36*
X127059065Y-115363449D02*
X127250334Y-115442675D01*
X127422476Y-115557697D01*
X127568863Y-115704084D01*
X127683885Y-115876226D01*
X127763111Y-116067495D01*
X127803500Y-116270544D01*
X127803500Y-116477576D01*
X127763111Y-116680625D01*
X127683885Y-116871894D01*
X127568863Y-117044036D01*
X127422476Y-117190423D01*
X127250334Y-117305445D01*
X127059065Y-117384671D01*
X126856016Y-117425060D01*
X126648984Y-117425060D01*
X126445935Y-117384671D01*
X126254666Y-117305445D01*
X126082524Y-117190423D01*
X125936137Y-117044036D01*
X125821115Y-116871894D01*
X125741889Y-116680625D01*
X125701500Y-116477576D01*
X125701500Y-116270544D01*
X125741889Y-116067495D01*
X125821115Y-115876226D01*
X125936137Y-115704084D01*
X126082524Y-115557697D01*
X126254666Y-115442675D01*
X126445935Y-115363449D01*
X126648984Y-115323060D01*
X126856016Y-115323060D01*
X127059065Y-115363449D01*
X127059065Y-115363449D01*
G37*
G36*
X119439065Y-115363449D02*
X119630334Y-115442675D01*
X119802476Y-115557697D01*
X119948863Y-115704084D01*
X120063885Y-115876226D01*
X120143111Y-116067495D01*
X120183500Y-116270544D01*
X120183500Y-116477576D01*
X120143111Y-116680625D01*
X120063885Y-116871894D01*
X119948863Y-117044036D01*
X119802476Y-117190423D01*
X119630334Y-117305445D01*
X119439065Y-117384671D01*
X119236016Y-117425060D01*
X119028984Y-117425060D01*
X118825935Y-117384671D01*
X118634666Y-117305445D01*
X118462524Y-117190423D01*
X118316137Y-117044036D01*
X118201115Y-116871894D01*
X118121889Y-116680625D01*
X118081500Y-116477576D01*
X118081500Y-116270544D01*
X118121889Y-116067495D01*
X118201115Y-115876226D01*
X118316137Y-115704084D01*
X118462524Y-115557697D01*
X118634666Y-115442675D01*
X118825935Y-115363449D01*
X119028984Y-115323060D01*
X119236016Y-115323060D01*
X119439065Y-115363449D01*
X119439065Y-115363449D01*
G37*
G36*
X137219065Y-115363449D02*
X137410334Y-115442675D01*
X137582476Y-115557697D01*
X137728863Y-115704084D01*
X137843885Y-115876226D01*
X137923111Y-116067495D01*
X137963500Y-116270544D01*
X137963500Y-116477576D01*
X137923111Y-116680625D01*
X137843885Y-116871894D01*
X137728863Y-117044036D01*
X137582476Y-117190423D01*
X137410334Y-117305445D01*
X137219065Y-117384671D01*
X137016016Y-117425060D01*
X136808984Y-117425060D01*
X136605935Y-117384671D01*
X136414666Y-117305445D01*
X136242524Y-117190423D01*
X136096137Y-117044036D01*
X135981115Y-116871894D01*
X135901889Y-116680625D01*
X135861500Y-116477576D01*
X135861500Y-116270544D01*
X135901889Y-116067495D01*
X135981115Y-115876226D01*
X136096137Y-115704084D01*
X136242524Y-115557697D01*
X136414666Y-115442675D01*
X136605935Y-115363449D01*
X136808984Y-115323060D01*
X137016016Y-115323060D01*
X137219065Y-115363449D01*
X137219065Y-115363449D01*
G37*
G36*
X124519065Y-115363449D02*
X124710334Y-115442675D01*
X124882476Y-115557697D01*
X125028863Y-115704084D01*
X125143885Y-115876226D01*
X125223111Y-116067495D01*
X125263500Y-116270544D01*
X125263500Y-116477576D01*
X125223111Y-116680625D01*
X125143885Y-116871894D01*
X125028863Y-117044036D01*
X124882476Y-117190423D01*
X124710334Y-117305445D01*
X124519065Y-117384671D01*
X124316016Y-117425060D01*
X124108984Y-117425060D01*
X123905935Y-117384671D01*
X123714666Y-117305445D01*
X123542524Y-117190423D01*
X123396137Y-117044036D01*
X123281115Y-116871894D01*
X123201889Y-116680625D01*
X123161500Y-116477576D01*
X123161500Y-116270544D01*
X123201889Y-116067495D01*
X123281115Y-115876226D01*
X123396137Y-115704084D01*
X123542524Y-115557697D01*
X123714666Y-115442675D01*
X123905935Y-115363449D01*
X124108984Y-115323060D01*
X124316016Y-115323060D01*
X124519065Y-115363449D01*
X124519065Y-115363449D01*
G37*
G36*
X115114889Y-112927506D02*
X115258240Y-112941625D01*
X115503480Y-113016018D01*
X115503482Y-113016019D01*
X115729496Y-113136826D01*
X115927597Y-113299403D01*
X116090174Y-113497504D01*
X116090175Y-113497506D01*
X116210982Y-113723520D01*
X116285375Y-113968760D01*
X116310494Y-114223800D01*
X116285375Y-114478840D01*
X116210982Y-114724080D01*
X116210981Y-114724082D01*
X116090174Y-114950096D01*
X115927597Y-115148197D01*
X115729496Y-115310774D01*
X115630948Y-115363449D01*
X115503480Y-115431582D01*
X115258240Y-115505975D01*
X115114889Y-115520094D01*
X115067106Y-115524800D01*
X113939294Y-115524800D01*
X113891511Y-115520094D01*
X113748160Y-115505975D01*
X113502920Y-115431582D01*
X113375452Y-115363449D01*
X113276904Y-115310774D01*
X113078803Y-115148197D01*
X112916226Y-114950096D01*
X112795419Y-114724082D01*
X112795418Y-114724080D01*
X112721025Y-114478840D01*
X112695906Y-114223800D01*
X112721025Y-113968760D01*
X112795418Y-113723520D01*
X112916225Y-113497506D01*
X112916226Y-113497504D01*
X113078803Y-113299403D01*
X113276904Y-113136826D01*
X113502918Y-113016019D01*
X113502920Y-113016018D01*
X113748160Y-112941625D01*
X113891511Y-112927506D01*
X113939294Y-112922800D01*
X115067106Y-112922800D01*
X115114889Y-112927506D01*
X115114889Y-112927506D01*
G37*
G36*
X161557053Y-114199949D02*
X161651492Y-114228597D01*
X161738527Y-114275118D01*
X161814815Y-114337725D01*
X161877422Y-114414013D01*
X161923943Y-114501048D01*
X161952591Y-114595487D01*
X161962264Y-114693700D01*
X161952591Y-114791913D01*
X161923943Y-114886352D01*
X161877422Y-114973387D01*
X161814815Y-115049675D01*
X161738527Y-115112282D01*
X161651492Y-115158803D01*
X161557053Y-115187451D01*
X161483452Y-115194700D01*
X160134228Y-115194700D01*
X160060627Y-115187451D01*
X159966188Y-115158803D01*
X159879153Y-115112282D01*
X159802865Y-115049675D01*
X159740258Y-114973387D01*
X159693737Y-114886352D01*
X159665089Y-114791913D01*
X159655416Y-114693700D01*
X159665089Y-114595487D01*
X159693737Y-114501048D01*
X159740258Y-114414013D01*
X159802865Y-114337725D01*
X159879153Y-114275118D01*
X159966188Y-114228597D01*
X160060627Y-114199949D01*
X160134228Y-114192700D01*
X161483452Y-114192700D01*
X161557053Y-114199949D01*
X161557053Y-114199949D01*
G37*
G36*
X161557053Y-112929949D02*
X161651492Y-112958597D01*
X161738527Y-113005118D01*
X161814815Y-113067725D01*
X161877422Y-113144013D01*
X161923943Y-113231048D01*
X161952591Y-113325487D01*
X161962264Y-113423700D01*
X161952591Y-113521913D01*
X161923943Y-113616352D01*
X161877422Y-113703387D01*
X161814815Y-113779675D01*
X161738527Y-113842282D01*
X161651492Y-113888803D01*
X161557053Y-113917451D01*
X161483452Y-113924700D01*
X160134228Y-113924700D01*
X160060627Y-113917451D01*
X159966188Y-113888803D01*
X159879153Y-113842282D01*
X159802865Y-113779675D01*
X159740258Y-113703387D01*
X159693737Y-113616352D01*
X159665089Y-113521913D01*
X159655416Y-113423700D01*
X159665089Y-113325487D01*
X159693737Y-113231048D01*
X159740258Y-113144013D01*
X159802865Y-113067725D01*
X159879153Y-113005118D01*
X159966188Y-112958597D01*
X160060627Y-112929949D01*
X160134228Y-112922700D01*
X161483452Y-112922700D01*
X161557053Y-112929949D01*
X161557053Y-112929949D01*
G37*
G36*
X161557053Y-111659949D02*
X161651492Y-111688597D01*
X161738527Y-111735118D01*
X161814815Y-111797725D01*
X161877422Y-111874013D01*
X161923943Y-111961048D01*
X161952591Y-112055487D01*
X161962264Y-112153700D01*
X161952591Y-112251913D01*
X161923943Y-112346352D01*
X161877422Y-112433387D01*
X161814815Y-112509675D01*
X161738527Y-112572282D01*
X161651492Y-112618803D01*
X161557053Y-112647451D01*
X161483452Y-112654700D01*
X160134228Y-112654700D01*
X160060627Y-112647451D01*
X159966188Y-112618803D01*
X159879153Y-112572282D01*
X159802865Y-112509675D01*
X159740258Y-112433387D01*
X159693737Y-112346352D01*
X159665089Y-112251913D01*
X159655416Y-112153700D01*
X159665089Y-112055487D01*
X159693737Y-111961048D01*
X159740258Y-111874013D01*
X159802865Y-111797725D01*
X159879153Y-111735118D01*
X159966188Y-111688597D01*
X160060627Y-111659949D01*
X160134228Y-111652700D01*
X161483452Y-111652700D01*
X161557053Y-111659949D01*
X161557053Y-111659949D01*
G37*
G36*
X119468125Y-109555589D02*
X119659394Y-109634815D01*
X119831536Y-109749837D01*
X119977923Y-109896224D01*
X120092945Y-110068366D01*
X120172171Y-110259635D01*
X120212560Y-110462684D01*
X120212560Y-110669716D01*
X120172171Y-110872765D01*
X120092945Y-111064034D01*
X119977923Y-111236176D01*
X119831536Y-111382563D01*
X119659394Y-111497585D01*
X119468125Y-111576811D01*
X119265076Y-111617200D01*
X119058044Y-111617200D01*
X118854995Y-111576811D01*
X118663726Y-111497585D01*
X118491584Y-111382563D01*
X118345197Y-111236176D01*
X118230175Y-111064034D01*
X118150949Y-110872765D01*
X118110560Y-110669716D01*
X118110560Y-110462684D01*
X118150949Y-110259635D01*
X118230175Y-110068366D01*
X118345197Y-109896224D01*
X118491584Y-109749837D01*
X118663726Y-109634815D01*
X118854995Y-109555589D01*
X119058044Y-109515200D01*
X119265076Y-109515200D01*
X119468125Y-109555589D01*
X119468125Y-109555589D01*
G37*
G36*
X134708125Y-109555589D02*
X134899394Y-109634815D01*
X135071536Y-109749837D01*
X135217923Y-109896224D01*
X135332945Y-110068366D01*
X135412171Y-110259635D01*
X135452560Y-110462684D01*
X135452560Y-110669716D01*
X135412171Y-110872765D01*
X135332945Y-111064034D01*
X135217923Y-111236176D01*
X135071536Y-111382563D01*
X134899394Y-111497585D01*
X134708125Y-111576811D01*
X134505076Y-111617200D01*
X134298044Y-111617200D01*
X134094995Y-111576811D01*
X133903726Y-111497585D01*
X133731584Y-111382563D01*
X133585197Y-111236176D01*
X133470175Y-111064034D01*
X133390949Y-110872765D01*
X133350560Y-110669716D01*
X133350560Y-110462684D01*
X133390949Y-110259635D01*
X133470175Y-110068366D01*
X133585197Y-109896224D01*
X133731584Y-109749837D01*
X133903726Y-109634815D01*
X134094995Y-109555589D01*
X134298044Y-109515200D01*
X134505076Y-109515200D01*
X134708125Y-109555589D01*
X134708125Y-109555589D01*
G37*
G36*
X137248125Y-109555589D02*
X137439394Y-109634815D01*
X137611536Y-109749837D01*
X137757923Y-109896224D01*
X137872945Y-110068366D01*
X137952171Y-110259635D01*
X137992560Y-110462684D01*
X137992560Y-110669716D01*
X137952171Y-110872765D01*
X137872945Y-111064034D01*
X137757923Y-111236176D01*
X137611536Y-111382563D01*
X137439394Y-111497585D01*
X137248125Y-111576811D01*
X137045076Y-111617200D01*
X136838044Y-111617200D01*
X136634995Y-111576811D01*
X136443726Y-111497585D01*
X136271584Y-111382563D01*
X136125197Y-111236176D01*
X136010175Y-111064034D01*
X135930949Y-110872765D01*
X135890560Y-110669716D01*
X135890560Y-110462684D01*
X135930949Y-110259635D01*
X136010175Y-110068366D01*
X136125197Y-109896224D01*
X136271584Y-109749837D01*
X136443726Y-109634815D01*
X136634995Y-109555589D01*
X136838044Y-109515200D01*
X137045076Y-109515200D01*
X137248125Y-109555589D01*
X137248125Y-109555589D01*
G37*
G36*
X124548125Y-109555589D02*
X124739394Y-109634815D01*
X124911536Y-109749837D01*
X125057923Y-109896224D01*
X125172945Y-110068366D01*
X125252171Y-110259635D01*
X125292560Y-110462684D01*
X125292560Y-110669716D01*
X125252171Y-110872765D01*
X125172945Y-111064034D01*
X125057923Y-111236176D01*
X124911536Y-111382563D01*
X124739394Y-111497585D01*
X124548125Y-111576811D01*
X124345076Y-111617200D01*
X124138044Y-111617200D01*
X123934995Y-111576811D01*
X123743726Y-111497585D01*
X123571584Y-111382563D01*
X123425197Y-111236176D01*
X123310175Y-111064034D01*
X123230949Y-110872765D01*
X123190560Y-110669716D01*
X123190560Y-110462684D01*
X123230949Y-110259635D01*
X123310175Y-110068366D01*
X123425197Y-109896224D01*
X123571584Y-109749837D01*
X123743726Y-109634815D01*
X123934995Y-109555589D01*
X124138044Y-109515200D01*
X124345076Y-109515200D01*
X124548125Y-109555589D01*
X124548125Y-109555589D01*
G37*
G36*
X127088125Y-109555589D02*
X127279394Y-109634815D01*
X127451536Y-109749837D01*
X127597923Y-109896224D01*
X127712945Y-110068366D01*
X127792171Y-110259635D01*
X127832560Y-110462684D01*
X127832560Y-110669716D01*
X127792171Y-110872765D01*
X127712945Y-111064034D01*
X127597923Y-111236176D01*
X127451536Y-111382563D01*
X127279394Y-111497585D01*
X127088125Y-111576811D01*
X126885076Y-111617200D01*
X126678044Y-111617200D01*
X126474995Y-111576811D01*
X126283726Y-111497585D01*
X126111584Y-111382563D01*
X125965197Y-111236176D01*
X125850175Y-111064034D01*
X125770949Y-110872765D01*
X125730560Y-110669716D01*
X125730560Y-110462684D01*
X125770949Y-110259635D01*
X125850175Y-110068366D01*
X125965197Y-109896224D01*
X126111584Y-109749837D01*
X126283726Y-109634815D01*
X126474995Y-109555589D01*
X126678044Y-109515200D01*
X126885076Y-109515200D01*
X127088125Y-109555589D01*
X127088125Y-109555589D01*
G37*
G36*
X143957053Y-110389949D02*
X144051492Y-110418597D01*
X144138527Y-110465118D01*
X144214815Y-110527725D01*
X144277422Y-110604013D01*
X144323943Y-110691048D01*
X144352591Y-110785487D01*
X144362264Y-110883700D01*
X144352591Y-110981913D01*
X144323943Y-111076352D01*
X144277422Y-111163387D01*
X144214815Y-111239675D01*
X144138527Y-111302282D01*
X144051492Y-111348803D01*
X143957053Y-111377451D01*
X143883452Y-111384700D01*
X142534228Y-111384700D01*
X142460627Y-111377451D01*
X142366188Y-111348803D01*
X142279153Y-111302282D01*
X142202865Y-111239675D01*
X142140258Y-111163387D01*
X142093737Y-111076352D01*
X142065089Y-110981913D01*
X142055416Y-110883700D01*
X142065089Y-110785487D01*
X142093737Y-110691048D01*
X142140258Y-110604013D01*
X142202865Y-110527725D01*
X142279153Y-110465118D01*
X142366188Y-110418597D01*
X142460627Y-110389949D01*
X142534228Y-110382700D01*
X143883452Y-110382700D01*
X143957053Y-110389949D01*
X143957053Y-110389949D01*
G37*
G36*
X161557053Y-110389949D02*
X161651492Y-110418597D01*
X161738527Y-110465118D01*
X161814815Y-110527725D01*
X161877422Y-110604013D01*
X161923943Y-110691048D01*
X161952591Y-110785487D01*
X161962264Y-110883700D01*
X161952591Y-110981913D01*
X161923943Y-111076352D01*
X161877422Y-111163387D01*
X161814815Y-111239675D01*
X161738527Y-111302282D01*
X161651492Y-111348803D01*
X161557053Y-111377451D01*
X161483452Y-111384700D01*
X160134228Y-111384700D01*
X160060627Y-111377451D01*
X159966188Y-111348803D01*
X159879153Y-111302282D01*
X159802865Y-111239675D01*
X159740258Y-111163387D01*
X159693737Y-111076352D01*
X159665089Y-110981913D01*
X159655416Y-110883700D01*
X159665089Y-110785487D01*
X159693737Y-110691048D01*
X159740258Y-110604013D01*
X159802865Y-110527725D01*
X159879153Y-110465118D01*
X159966188Y-110418597D01*
X160060627Y-110389949D01*
X160134228Y-110382700D01*
X161483452Y-110382700D01*
X161557053Y-110389949D01*
X161557053Y-110389949D01*
G37*
G36*
X115137749Y-107629066D02*
X115281100Y-107643185D01*
X115526340Y-107717578D01*
X115526342Y-107717579D01*
X115752356Y-107838386D01*
X115950457Y-108000963D01*
X116113034Y-108199064D01*
X116233841Y-108425078D01*
X116233842Y-108425080D01*
X116308235Y-108670320D01*
X116333354Y-108925360D01*
X116308235Y-109180400D01*
X116235235Y-109421047D01*
X116233841Y-109425642D01*
X116113034Y-109651656D01*
X115950457Y-109849757D01*
X115752356Y-110012334D01*
X115560843Y-110114700D01*
X115526340Y-110133142D01*
X115281100Y-110207535D01*
X115137749Y-110221654D01*
X115089966Y-110226360D01*
X113962154Y-110226360D01*
X113914371Y-110221654D01*
X113771020Y-110207535D01*
X113525780Y-110133142D01*
X113491277Y-110114700D01*
X113299764Y-110012334D01*
X113101663Y-109849757D01*
X112939086Y-109651656D01*
X112818279Y-109425642D01*
X112816885Y-109421047D01*
X112743885Y-109180400D01*
X112718766Y-108925360D01*
X112743885Y-108670320D01*
X112818278Y-108425080D01*
X112818279Y-108425078D01*
X112939086Y-108199064D01*
X113101663Y-108000963D01*
X113299764Y-107838386D01*
X113525778Y-107717579D01*
X113525780Y-107717578D01*
X113771020Y-107643185D01*
X113914371Y-107629066D01*
X113962154Y-107624360D01*
X115089966Y-107624360D01*
X115137749Y-107629066D01*
X115137749Y-107629066D01*
G37*
G36*
X161557053Y-109119949D02*
X161651492Y-109148597D01*
X161738527Y-109195118D01*
X161814815Y-109257725D01*
X161877422Y-109334013D01*
X161923943Y-109421048D01*
X161952591Y-109515487D01*
X161962264Y-109613700D01*
X161952591Y-109711913D01*
X161923943Y-109806352D01*
X161877422Y-109893387D01*
X161814815Y-109969675D01*
X161738527Y-110032282D01*
X161651492Y-110078803D01*
X161557053Y-110107451D01*
X161483452Y-110114700D01*
X160134228Y-110114700D01*
X160060627Y-110107451D01*
X159966188Y-110078803D01*
X159879153Y-110032282D01*
X159802865Y-109969675D01*
X159740258Y-109893387D01*
X159693737Y-109806352D01*
X159665089Y-109711913D01*
X159655416Y-109613700D01*
X159665089Y-109515487D01*
X159693737Y-109421048D01*
X159740258Y-109334013D01*
X159802865Y-109257725D01*
X159879153Y-109195118D01*
X159966188Y-109148597D01*
X160060627Y-109119949D01*
X160134228Y-109112700D01*
X161483452Y-109112700D01*
X161557053Y-109119949D01*
X161557053Y-109119949D01*
G37*
G36*
X143957053Y-109119949D02*
X144051492Y-109148597D01*
X144138527Y-109195118D01*
X144214815Y-109257725D01*
X144277422Y-109334013D01*
X144323943Y-109421048D01*
X144352591Y-109515487D01*
X144362264Y-109613700D01*
X144352591Y-109711913D01*
X144323943Y-109806352D01*
X144277422Y-109893387D01*
X144214815Y-109969675D01*
X144138527Y-110032282D01*
X144051492Y-110078803D01*
X143957053Y-110107451D01*
X143883452Y-110114700D01*
X142534228Y-110114700D01*
X142460627Y-110107451D01*
X142366188Y-110078803D01*
X142279153Y-110032282D01*
X142202865Y-109969675D01*
X142140258Y-109893387D01*
X142093737Y-109806352D01*
X142065089Y-109711913D01*
X142055416Y-109613700D01*
X142065089Y-109515487D01*
X142093737Y-109421048D01*
X142140258Y-109334013D01*
X142202865Y-109257725D01*
X142279153Y-109195118D01*
X142366188Y-109148597D01*
X142460627Y-109119949D01*
X142534228Y-109112700D01*
X143883452Y-109112700D01*
X143957053Y-109119949D01*
X143957053Y-109119949D01*
G37*
G36*
X143957053Y-107849949D02*
X144051492Y-107878597D01*
X144138527Y-107925118D01*
X144214815Y-107987725D01*
X144277422Y-108064013D01*
X144323943Y-108151048D01*
X144352591Y-108245487D01*
X144362264Y-108343700D01*
X144352591Y-108441913D01*
X144323943Y-108536352D01*
X144277422Y-108623387D01*
X144214815Y-108699675D01*
X144138527Y-108762282D01*
X144051492Y-108808803D01*
X143957053Y-108837451D01*
X143883452Y-108844700D01*
X142534228Y-108844700D01*
X142460627Y-108837451D01*
X142366188Y-108808803D01*
X142279153Y-108762282D01*
X142202865Y-108699675D01*
X142140258Y-108623387D01*
X142093737Y-108536352D01*
X142065089Y-108441913D01*
X142055416Y-108343700D01*
X142065089Y-108245487D01*
X142093737Y-108151048D01*
X142140258Y-108064013D01*
X142202865Y-107987725D01*
X142279153Y-107925118D01*
X142366188Y-107878597D01*
X142460627Y-107849949D01*
X142534228Y-107842700D01*
X143883452Y-107842700D01*
X143957053Y-107849949D01*
X143957053Y-107849949D01*
G37*
G36*
X161557053Y-107849949D02*
X161651492Y-107878597D01*
X161738527Y-107925118D01*
X161814815Y-107987725D01*
X161877422Y-108064013D01*
X161923943Y-108151048D01*
X161952591Y-108245487D01*
X161962264Y-108343700D01*
X161952591Y-108441913D01*
X161923943Y-108536352D01*
X161877422Y-108623387D01*
X161814815Y-108699675D01*
X161738527Y-108762282D01*
X161651492Y-108808803D01*
X161557053Y-108837451D01*
X161483452Y-108844700D01*
X160134228Y-108844700D01*
X160060627Y-108837451D01*
X159966188Y-108808803D01*
X159879153Y-108762282D01*
X159802865Y-108699675D01*
X159740258Y-108623387D01*
X159693737Y-108536352D01*
X159665089Y-108441913D01*
X159655416Y-108343700D01*
X159665089Y-108245487D01*
X159693737Y-108151048D01*
X159740258Y-108064013D01*
X159802865Y-107987725D01*
X159879153Y-107925118D01*
X159966188Y-107878597D01*
X160060627Y-107849949D01*
X160134228Y-107842700D01*
X161483452Y-107842700D01*
X161557053Y-107849949D01*
X161557053Y-107849949D01*
G37*
G36*
X137233554Y-103820809D02*
X137424823Y-103900035D01*
X137596965Y-104015057D01*
X137743352Y-104161444D01*
X137858374Y-104333586D01*
X137937600Y-104524855D01*
X137977989Y-104727904D01*
X137977989Y-104934936D01*
X137937600Y-105137985D01*
X137858374Y-105329254D01*
X137743352Y-105501396D01*
X137596965Y-105647783D01*
X137424823Y-105762805D01*
X137233554Y-105842031D01*
X137030505Y-105882420D01*
X136823473Y-105882420D01*
X136620424Y-105842031D01*
X136429155Y-105762805D01*
X136257013Y-105647783D01*
X136110626Y-105501396D01*
X135995604Y-105329254D01*
X135916378Y-105137985D01*
X135875989Y-104934936D01*
X135875989Y-104727904D01*
X135916378Y-104524855D01*
X135995604Y-104333586D01*
X136110626Y-104161444D01*
X136257013Y-104015057D01*
X136429155Y-103900035D01*
X136620424Y-103820809D01*
X136823473Y-103780420D01*
X137030505Y-103780420D01*
X137233554Y-103820809D01*
X137233554Y-103820809D01*
G37*
G36*
X127073554Y-103820809D02*
X127264823Y-103900035D01*
X127436965Y-104015057D01*
X127583352Y-104161444D01*
X127698374Y-104333586D01*
X127777600Y-104524855D01*
X127817989Y-104727904D01*
X127817989Y-104934936D01*
X127777600Y-105137985D01*
X127698374Y-105329254D01*
X127583352Y-105501396D01*
X127436965Y-105647783D01*
X127264823Y-105762805D01*
X127073554Y-105842031D01*
X126870505Y-105882420D01*
X126663473Y-105882420D01*
X126460424Y-105842031D01*
X126269155Y-105762805D01*
X126097013Y-105647783D01*
X125950626Y-105501396D01*
X125835604Y-105329254D01*
X125756378Y-105137985D01*
X125715989Y-104934936D01*
X125715989Y-104727904D01*
X125756378Y-104524855D01*
X125835604Y-104333586D01*
X125950626Y-104161444D01*
X126097013Y-104015057D01*
X126269155Y-103900035D01*
X126460424Y-103820809D01*
X126663473Y-103780420D01*
X126870505Y-103780420D01*
X127073554Y-103820809D01*
X127073554Y-103820809D01*
G37*
G36*
X124533554Y-103820809D02*
X124724823Y-103900035D01*
X124896965Y-104015057D01*
X125043352Y-104161444D01*
X125158374Y-104333586D01*
X125237600Y-104524855D01*
X125277989Y-104727904D01*
X125277989Y-104934936D01*
X125237600Y-105137985D01*
X125158374Y-105329254D01*
X125043352Y-105501396D01*
X124896965Y-105647783D01*
X124724823Y-105762805D01*
X124533554Y-105842031D01*
X124330505Y-105882420D01*
X124123473Y-105882420D01*
X123920424Y-105842031D01*
X123729155Y-105762805D01*
X123557013Y-105647783D01*
X123410626Y-105501396D01*
X123295604Y-105329254D01*
X123216378Y-105137985D01*
X123175989Y-104934936D01*
X123175989Y-104727904D01*
X123216378Y-104524855D01*
X123295604Y-104333586D01*
X123410626Y-104161444D01*
X123557013Y-104015057D01*
X123729155Y-103900035D01*
X123920424Y-103820809D01*
X124123473Y-103780420D01*
X124330505Y-103780420D01*
X124533554Y-103820809D01*
X124533554Y-103820809D01*
G37*
G36*
X119453554Y-103820809D02*
X119644823Y-103900035D01*
X119816965Y-104015057D01*
X119963352Y-104161444D01*
X120078374Y-104333586D01*
X120157600Y-104524855D01*
X120197989Y-104727904D01*
X120197989Y-104934936D01*
X120157600Y-105137985D01*
X120078374Y-105329254D01*
X119963352Y-105501396D01*
X119816965Y-105647783D01*
X119644823Y-105762805D01*
X119453554Y-105842031D01*
X119250505Y-105882420D01*
X119043473Y-105882420D01*
X118840424Y-105842031D01*
X118649155Y-105762805D01*
X118477013Y-105647783D01*
X118330626Y-105501396D01*
X118215604Y-105329254D01*
X118136378Y-105137985D01*
X118095989Y-104934936D01*
X118095989Y-104727904D01*
X118136378Y-104524855D01*
X118215604Y-104333586D01*
X118330626Y-104161444D01*
X118477013Y-104015057D01*
X118649155Y-103900035D01*
X118840424Y-103820809D01*
X119043473Y-103780420D01*
X119250505Y-103780420D01*
X119453554Y-103820809D01*
X119453554Y-103820809D01*
G37*
G36*
X134693554Y-103820809D02*
X134884823Y-103900035D01*
X135056965Y-104015057D01*
X135203352Y-104161444D01*
X135318374Y-104333586D01*
X135397600Y-104524855D01*
X135437989Y-104727904D01*
X135437989Y-104934936D01*
X135397600Y-105137985D01*
X135318374Y-105329254D01*
X135203352Y-105501396D01*
X135056965Y-105647783D01*
X134884823Y-105762805D01*
X134693554Y-105842031D01*
X134490505Y-105882420D01*
X134283473Y-105882420D01*
X134080424Y-105842031D01*
X133889155Y-105762805D01*
X133717013Y-105647783D01*
X133570626Y-105501396D01*
X133455604Y-105329254D01*
X133376378Y-105137985D01*
X133335989Y-104934936D01*
X133335989Y-104727904D01*
X133376378Y-104524855D01*
X133455604Y-104333586D01*
X133570626Y-104161444D01*
X133717013Y-104015057D01*
X133889155Y-103900035D01*
X134080424Y-103820809D01*
X134283473Y-103780420D01*
X134490505Y-103780420D01*
X134693554Y-103820809D01*
X134693554Y-103820809D01*
G37*
G36*
X115254589Y-102307766D02*
X115397940Y-102321885D01*
X115643180Y-102396278D01*
X115643182Y-102396279D01*
X115869196Y-102517086D01*
X116067297Y-102679663D01*
X116229874Y-102877764D01*
X116229875Y-102877766D01*
X116350682Y-103103780D01*
X116425075Y-103349020D01*
X116450194Y-103604060D01*
X116425075Y-103859100D01*
X116350682Y-104104340D01*
X116350681Y-104104342D01*
X116229874Y-104330356D01*
X116067297Y-104528457D01*
X115869196Y-104691034D01*
X115869194Y-104691035D01*
X115643180Y-104811842D01*
X115397940Y-104886235D01*
X115254589Y-104900354D01*
X115206806Y-104905060D01*
X114078994Y-104905060D01*
X114031211Y-104900354D01*
X113887860Y-104886235D01*
X113642620Y-104811842D01*
X113416606Y-104691035D01*
X113416604Y-104691034D01*
X113218503Y-104528457D01*
X113055926Y-104330356D01*
X112935119Y-104104342D01*
X112935118Y-104104340D01*
X112860725Y-103859100D01*
X112835606Y-103604060D01*
X112860725Y-103349020D01*
X112935118Y-103103780D01*
X113055925Y-102877766D01*
X113055926Y-102877764D01*
X113218503Y-102679663D01*
X113416604Y-102517086D01*
X113642618Y-102396279D01*
X113642620Y-102396278D01*
X113887860Y-102321885D01*
X114031211Y-102307766D01*
X114078994Y-102303060D01*
X115206806Y-102303060D01*
X115254589Y-102307766D01*
X115254589Y-102307766D01*
G37*
G36*
X127075425Y-101012649D02*
X127266694Y-101091875D01*
X127438836Y-101206897D01*
X127585223Y-101353284D01*
X127700245Y-101525426D01*
X127779471Y-101716695D01*
X127819860Y-101919744D01*
X127819860Y-102126776D01*
X127779471Y-102329825D01*
X127700245Y-102521094D01*
X127585223Y-102693236D01*
X127438836Y-102839623D01*
X127266694Y-102954645D01*
X127075425Y-103033871D01*
X126872376Y-103074260D01*
X126665344Y-103074260D01*
X126462295Y-103033871D01*
X126271026Y-102954645D01*
X126098884Y-102839623D01*
X125952497Y-102693236D01*
X125837475Y-102521094D01*
X125758249Y-102329825D01*
X125717860Y-102126776D01*
X125717860Y-101919744D01*
X125758249Y-101716695D01*
X125837475Y-101525426D01*
X125952497Y-101353284D01*
X126098884Y-101206897D01*
X126271026Y-101091875D01*
X126462295Y-101012649D01*
X126665344Y-100972260D01*
X126872376Y-100972260D01*
X127075425Y-101012649D01*
X127075425Y-101012649D01*
G37*
G36*
X119455425Y-101012649D02*
X119646694Y-101091875D01*
X119818836Y-101206897D01*
X119965223Y-101353284D01*
X120080245Y-101525426D01*
X120159471Y-101716695D01*
X120199860Y-101919744D01*
X120199860Y-102126776D01*
X120159471Y-102329825D01*
X120080245Y-102521094D01*
X119965223Y-102693236D01*
X119818836Y-102839623D01*
X119646694Y-102954645D01*
X119455425Y-103033871D01*
X119252376Y-103074260D01*
X119045344Y-103074260D01*
X118842295Y-103033871D01*
X118651026Y-102954645D01*
X118478884Y-102839623D01*
X118332497Y-102693236D01*
X118217475Y-102521094D01*
X118138249Y-102329825D01*
X118097860Y-102126776D01*
X118097860Y-101919744D01*
X118138249Y-101716695D01*
X118217475Y-101525426D01*
X118332497Y-101353284D01*
X118478884Y-101206897D01*
X118651026Y-101091875D01*
X118842295Y-101012649D01*
X119045344Y-100972260D01*
X119252376Y-100972260D01*
X119455425Y-101012649D01*
X119455425Y-101012649D01*
G37*
G36*
X139775425Y-101012649D02*
X139966694Y-101091875D01*
X140138836Y-101206897D01*
X140285223Y-101353284D01*
X140400245Y-101525426D01*
X140479471Y-101716695D01*
X140519860Y-101919744D01*
X140519860Y-102126776D01*
X140479471Y-102329825D01*
X140400245Y-102521094D01*
X140285223Y-102693236D01*
X140138836Y-102839623D01*
X139966694Y-102954645D01*
X139775425Y-103033871D01*
X139572376Y-103074260D01*
X139365344Y-103074260D01*
X139162295Y-103033871D01*
X138971026Y-102954645D01*
X138798884Y-102839623D01*
X138652497Y-102693236D01*
X138537475Y-102521094D01*
X138458249Y-102329825D01*
X138417860Y-102126776D01*
X138417860Y-101919744D01*
X138458249Y-101716695D01*
X138537475Y-101525426D01*
X138652497Y-101353284D01*
X138798884Y-101206897D01*
X138971026Y-101091875D01*
X139162295Y-101012649D01*
X139365344Y-100972260D01*
X139572376Y-100972260D01*
X139775425Y-101012649D01*
X139775425Y-101012649D01*
G37*
G36*
X137235425Y-101012649D02*
X137426694Y-101091875D01*
X137598836Y-101206897D01*
X137745223Y-101353284D01*
X137860245Y-101525426D01*
X137939471Y-101716695D01*
X137979860Y-101919744D01*
X137979860Y-102126776D01*
X137939471Y-102329825D01*
X137860245Y-102521094D01*
X137745223Y-102693236D01*
X137598836Y-102839623D01*
X137426694Y-102954645D01*
X137235425Y-103033871D01*
X137032376Y-103074260D01*
X136825344Y-103074260D01*
X136622295Y-103033871D01*
X136431026Y-102954645D01*
X136258884Y-102839623D01*
X136112497Y-102693236D01*
X135997475Y-102521094D01*
X135918249Y-102329825D01*
X135877860Y-102126776D01*
X135877860Y-101919744D01*
X135918249Y-101716695D01*
X135997475Y-101525426D01*
X136112497Y-101353284D01*
X136258884Y-101206897D01*
X136431026Y-101091875D01*
X136622295Y-101012649D01*
X136825344Y-100972260D01*
X137032376Y-100972260D01*
X137235425Y-101012649D01*
X137235425Y-101012649D01*
G37*
M02*
