M48
;DRILL file {KiCad (5.0.2)-1} date 2020-06-03 15:28:38
;FORMAT={-:-/ absolute / metric / decimal}
FMAT,2
METRIC,TZ
T1C0.400
T2C0.762
T3C0.800
T4C0.900
T5C1.000
T6C1.500
%
G90
G05
T1
X126.616Y-128.013
X130.909Y-134.148
X131.686Y-102.05
X132.23Y-123.48
X133.17Y-124.14
X133.373Y-118.6
X135.125Y-113.632
X135.138Y-127.95
X135.156Y-107.719
X136.726Y-133.017
X138.874Y-108.73
X140.358Y-122.842
X140.383Y-112.862
X140.604Y-121.02
X140.604Y-121.02
X141.293Y-124.965
X141.309Y-123.904
X141.428Y-110.167
X141.587Y-121.811
X142.466Y-112.372
X142.771Y-125.854
X143.616Y-124.159
X144.625Y-116.774
X144.874Y-125.839
X144.916Y-114.015
X144.96Y-109.016
X145.23Y-121.359
X145.616Y-120.063
X145.87Y-134.148
X146.141Y-124.059
X146.479Y-112.824
X147.19Y-117.561
X147.196Y-135.354
X147.251Y-119.062
X147.734Y-128.389
X149.807Y-135.443
X150.188Y-124.584
X152.438Y-131.514
X153.043Y-110.02
X154.262Y-109.233
X154.958Y-124.854
X157.262Y-112.189
X157.617Y-113.434
T2
X113.828Y-132.507
X113.828Y-136.916
T3
X118.202Y-125.557
X118.202Y-130.637
X138.202Y-130.637
X138.202Y-135.717
T4
X152.169Y-129.664
T5
X119.162Y-110.566
X124.242Y-110.566
X126.782Y-110.566
X134.402Y-110.566
X136.942Y-110.566
X119.132Y-116.374
X124.212Y-116.374
X126.752Y-116.374
X134.373Y-116.374
X136.912Y-116.374
X119.149Y-102.023
X126.769Y-102.023
X136.929Y-102.023
X139.469Y-102.023
X119.147Y-104.831
X124.227Y-104.831
X126.767Y-104.831
X134.387Y-104.831
X136.927Y-104.831
X152.552Y-134.048
X152.552Y-136.588
X155.092Y-134.048
X155.092Y-136.588
X157.632Y-134.048
X157.632Y-136.588
X160.172Y-134.048
X160.172Y-136.588
T6
X114.543Y-103.604
X114.743Y-103.604
X113.736Y-125.986
X113.736Y-126.186
X114.426Y-108.925
X114.626Y-108.925
X114.403Y-114.224
X114.603Y-114.224
X113.762Y-119.874
X113.762Y-120.074
T0
M30
